<svg xmlns="http://www.w3.org/2000/svg" width="25" height="25" viewBox="0 0 25 25">
    <g fill="none" fill-rule="evenodd">
        <circle cx="12.5" cy="12.5" r="12.5" fill="#FFF"/>
        <path fill="#9B9B9B" d="M19.621 18.719L15.007 16.5l-.035-10.055c-.001-.235.244-.39.456-.288l4.374 2.104c.11.053.18.164.18.286v9.944a.252.252 0 0 1-.361.228z"/>
        <path fill="#4A4A4A" d="M15.007 16.5l-4.995-2.4 4.808-7.917a.318.318 0 0 1 .41-.121l4.436 2.133c.17.082.231.292.133.452L15.007 16.5z"/>
        <path fill="#231F20" d="M15.007 16.5l-4.995-2.4-4.577-7.455c-.128-.208.094-.454.314-.348l4.263 2.05 4.995 8.153z"/>
        <path fill="#000" d="M9.65 18.719L5.144 16.55A.252.252 0 0 1 5 16.324V6.325c0-.18.188-.298.35-.22l4.662 2.242v10.144a.252.252 0 0 1-.361.228z"/>
    </g>
</svg>
