<svg xmlns="http://www.w3.org/2000/svg" width="25" height="25" viewBox="0 0 25 25">
    <g fill="none" fill-rule="evenodd">
        <circle cx="12.5" cy="12.5" r="12.5" fill="#FFF"/>
        <path fill="#000" fill-rule="nonzero" d="M18.975 13.031v4.428H16.41v-4.131c0-1.038-.372-1.746-1.3-1.746-.71 0-1.132.477-1.318.939-.067.165-.085.395-.085.626v4.312H11.14s.034-6.997 0-7.721h2.567v1.094l-.017.025h.017v-.025c.341-.525.95-1.276 2.314-1.276 1.689 0 2.955 1.104 2.955 3.475zM8.453 6.016C7.575 6.016 7 6.592 7 7.349c0 .741.558 1.335 1.419 1.335h.017c.895 0 1.452-.593 1.452-1.335-.017-.757-.557-1.333-1.435-1.333zm-1.3 11.443h2.566V9.738H7.152v7.72z"/>
    </g>
</svg>
