<svg xmlns="http://www.w3.org/2000/svg" width="32" height="32" viewBox="0 0 32 32">
    <path fill="#29A87C" fill-rule="nonzero" d="M31 0H1a1 1 0 0 0-1 1v30a1 1 0 0 0 1 1h30a1 1 0 0 0 1-1V1a1 1 0 0 0-1-1zm-4.415 7.582l-1.717 1.645a.5.5 0 0 0-.191.482V21.8a.5.5 0 0 0 .191.482l1.676 1.645v.361h-8.43v-.361l1.736-1.687c.171-.171.171-.221.171-.482v-9.772l-4.827 12.261h-.652L8.921 11.986V20.2c-.047.345.068.693.311.943l2.258 2.739v.361h-6.4v-.361l2.258-2.739c.241-.25.35-.6.291-.943v-9.5a.832.832 0 0 0-.271-.7l-2.01-2.418v-.361h6.232l4.817 10.565 4.236-10.565h5.941l.001.361z"/>
</svg>
