<svg xmlns="http://www.w3.org/2000/svg" width="25" height="25" viewBox="0 0 25 25">
    <path fill="#FFF" fill-rule="evenodd" d="M12.484 0C5.59 0 0 5.59 0 12.484 0 19.38 5.59 24.97 12.484 24.97c6.895 0 12.485-5.59 12.485-12.485C24.969 5.588 19.379 0 12.484 0zm6.211 9.682l.01.398c0 4.063-3.092 8.745-8.746 8.745a8.699 8.699 0 0 1-4.71-1.381 6.168 6.168 0 0 0 4.55-1.272 3.079 3.079 0 0 1-2.872-2.135c.19.036.38.053.58.053.28 0 .552-.036.81-.106a3.077 3.077 0 0 1-2.467-3.013v-.04a3.07 3.07 0 0 0 1.392.386 3.073 3.073 0 0 1-.951-4.103 8.723 8.723 0 0 0 6.335 3.212 3.074 3.074 0 0 1 5.239-2.803 6.224 6.224 0 0 0 1.952-.746 3.082 3.082 0 0 1-1.351 1.701 6.162 6.162 0 0 0 1.765-.483 6.213 6.213 0 0 1-1.536 1.587z"/>
</svg>
