<svg xmlns="http://www.w3.org/2000/svg" width="320" height="236" viewBox="0 0 320 236">
    <g fill="none" fill-rule="evenodd">
        <path fill="#1F6CC6" d="M311.02 112.005c2.721-1.635 2.721-2.726 2.177-3.816-.544-1.09-1.088-3.27-1.088-3.27l-2.177-3.27c-1.088-1.635.544-2.18-2.177-2.725-2.721-.545-3.81 0-4.898 0-1.088 0-2.177-1.09-2.72.545-.545 1.635-2.722 2.725-2.722 2.725-4.354 0-2.721 1.635-5.986 1.09-3.266-.545-2.722.545-4.898-1.09-2.177-1.635-9.252-6.54-11.429-8.72-2.177-2.18-5.986-5.45-7.075-6.541-1.088-1.09-3.81-.545-4.354-1.09s-1.088-2.725-1.088-5.45v-7.63s-1.088-1.09 3.265 0c4.354 1.09 4.898-.546 4.898-.546s1.089-.545 2.177 0c1.089.545 1.089-1.635-1.088-1.635s-6.53-1.09-7.62-2.725c-1.088-1.635 0-2.18-1.088-3.815-1.088-1.636-3.265-2.18-4.898-2.726-1.632-.545-2.72 1.09-3.265 0-.544-1.09-1.088-3.27-1.088-3.27h-5.443s-2.176-1.635-1.088-2.725-4.898-4.905-5.442-5.995c-.544-1.09 0-1.635-1.089-2.726l-2.177-2.18s1.089 0 0-1.635c-1.088-1.635-2.72-1.635-1.632-3.815 1.088-2.18 2.177-3.815 2.177-3.815s-4.354-4.906-5.987-6.54c-1.632-1.636-4.353-1.09-3.81-5.996.545-4.905 2.178-2.18 2.722-5.995.544-3.816-1.633-4.36-1.089-5.996.545-1.635.545-2.725.545-2.725s-1.089-1.09-3.266-2.18-3.265 0-5.986-1.635c-2.721-1.635-6.53-3.27-8.163-3.27s-3.81 0-4.898 1.09c-1.089 1.09-3.266 2.725-3.266 1.09S204.898.273 204.898.273h-10.34s-2.177-.546-3.265 1.09c-1.089 1.635-8.708 8.72-8.708 8.72s-.544 1.635-5.442 2.725-13.061 4.906-16.327 7.63c-3.265 2.726-4.353 5.451-9.251 4.906-4.898-.545-8.164-2.18-8.708 0-.544 2.18-.544 4.36-1.088 7.63-.545 3.27-.545 6.541-3.266 5.996-2.72-.545-8.707-4.36-11.428-4.905-2.721-.545-7.62 0-9.796 2.725-2.177 2.725-6.53 6.54-7.62 6.54-1.088 0-1.632 1.635-2.72 4.906-1.089 3.27-2.721 3.815-1.633 7.085 1.089 3.27 1.633 4.905-.544 5.45-2.177.545-1.089-1.09-3.265 0-2.177 1.09-2.721.545-2.721 0s-1.089-2.725-2.177-2.18c-1.089.545-2.177-.545-3.266-1.09-1.088-.545-2.72-2.18-2.72-.545 0 1.635 1.088.545 1.088 2.725s-2.177 4.906-1.089 7.086c1.089 2.18.544 3.815 1.089 5.45.544 1.635 1.632 2.18-.545 2.725-2.176.545-2.72-.545-4.897 0s-3.81.545-2.722 2.18c1.089 1.636 1.089 2.726-.544 2.726-1.632 0-2.72 1.635-5.442-1.636-2.721-3.27-4.898-3.815-7.075-5.45-2.177-1.635-3.265-2.18-5.442-2.18s0-1.635 0-2.18c0-.545-1.633-2.725-2.177-2.725s.544 2.18-1.633 3.27c-2.176 1.09-3.265-1.635-3.809 1.635s-1.088 3.27-2.721 4.36c-1.633 1.09-3.81 1.09-3.265 2.18.544 1.09 1.088 3.27 0 2.726-1.089-.545-2.177-1.09-2.722.545-.544 1.635-2.72 0 0 3.27 2.722 3.27 2.177 3.27 3.266 5.45 1.088 2.18 1.632.545.544 4.905-1.088 4.36-.544 4.906-2.721 4.36-2.177-.544-3.265-2.18-4.898-1.09-1.633 1.09-2.721 1.636-2.721 3.27 0 1.636 2.177 2.181 3.265 3.816 1.089 1.635 1.633 2.725 0 3.815-1.632 1.09-3.265 2.18-1.632 3.816 1.632 1.635 2.72 2.18 1.632 3.27-1.088 1.09-1.088-.545-2.72 0-1.634.545.543.545-1.634 2.18-2.176 1.635-3.265 2.18-2.72 3.815.544 1.635 1.632 0-1.09 1.635-2.72 1.635 0 2.725-2.72 3.27-2.721.546-1.089 1.09-3.265 1.636-2.177.545-3.266-1.09-5.443 0-2.177 1.09-2.72 1.09-4.898 1.09-2.176 0-5.986.545-5.986.545s-2.177 3.27-3.265 4.36c-1.089 1.09-1.633 2.18-3.266 1.635-1.632-.545-2.72-1.09-2.72 0s2.176 1.09 2.72 1.635c.545.545 1.633.545 1.633 2.18 0 1.635-2.177 4.36-1.088 4.906 1.088.545 1.088 0 2.176 1.09 1.089 1.09.545.545 1.089 2.725.544 2.18 1.633 2.725.544 3.815-1.088 1.09-2.177 1.09-2.177 2.18s1.089 2.18.544 3.816c-.544 1.635-1.632.545-2.176 3.27-.545 2.725 1.632 3.27-1.089 3.815-2.72.545-3.81 1.09-5.442 1.09-1.633 0-2.177 1.635-1.088 3.815 1.088 2.18 3.265 4.36 2.72 5.996-.544 1.635 0 2.18-1.088 4.36s-1.088 3.27-1.088 5.45 1.632 2.725 0 4.36C.272 191.58.272 192.67.816 193.215c.545.546 1.089 1.09 1.633 2.726.544 1.635 1.088 3.27 3.81 2.725 2.72-.545 2.72-1.09 4.353-1.09 1.633 0 2.721 0 3.81.545 1.088.545 2.72 0 2.72.545s-.543 1.635.545 3.27c1.089 1.635 1.633 2.18 2.177 3.27.544 1.09-1.633 2.18 0 2.18s2.177 0 2.721 1.09-.544 2.18 0 2.726c.544.545 1.088 1.635.544 2.725s-.544 2.18 1.089 1.635c1.632-.545 1.088-.545 2.72 0 1.633.545 1.633 1.635 2.722 2.18 1.088.545-.544 2.18 0 2.18s.544 1.09 1.633 1.09c1.088 0 1.632 0 2.176 1.09.545 1.09 1.089 1.636 2.177 1.09 1.089-.544 1.633-1.634 2.177-1.09.544.546 1.633 2.18 2.177.546.544-1.635 1.633-1.635 1.088 0-.544 1.635.545 2.18 2.177 2.18 1.633 0 2.177-.545 2.721 1.09.545 1.635 1.633 1.09 2.177.545s1.633-.545 1.633-2.18c0-1.635 0-2.725 1.088-3.27 1.089-.545 1.089 0 2.721-1.09 1.633-1.09 1.089-3.816 3.266-2.18 2.177 1.634 1.088 2.18 3.265.544 2.177-1.635 3.265-1.09 3.81-2.18.544-1.09.544-1.635 3.265-1.09 2.721.545 2.177-.545 3.265-1.09 1.089-.545 1.633-1.635 3.81-1.09 2.177.545 1.088 1.09 3.265 1.09h3.81c2.176 0 4.353-1.09 5.442 0 1.088 1.09 2.177 0 2.72 1.09.545 1.09.545 2.725 2.178 1.09 1.632-1.635 2.72-3.27 2.72-1.635s-1.088 2.725.545 2.725 2.721-1.635 2.721 1.09c0 2.726 1.089 2.726 1.633 3.27.544.546.544-.544 2.177.546 1.632 1.09 2.176 3.815 3.265 4.905 1.088 1.09 3.265 6.54 4.354 7.085 1.088.545 2.72 2.726 3.265 1.09.544-1.635 1.088-1.635 1.633-2.725.544-1.09 0-1.635-1.089-2.725-1.088-1.09-2.177-1.09-1.632-2.725.544-1.635 1.632-.545 1.088-2.18-.544-1.635-3.265-1.635-2.177-3.27 1.089-1.636 2.177-1.636 2.177-3.27 0-1.636-.544-2.726-.544-3.27v-3.271c0-1.09-.544-3.27-1.089-4.905-.544-1.635-1.632-2.726-1.088-3.816.544-1.09 2.177-.545 2.177-2.18 0-1.635 0-2.18-1.633-2.725-1.633-.545-3.81-1.635-2.177-2.725s2.177-.545 2.721-1.635c.545-1.09-1.632-1.09-2.72-2.725-1.09-1.635-2.178-2.726-2.178-3.816 0-1.09-1.088-2.18-.544-3.27.544-1.09.544-2.725.544-2.725s-.544-1.635.545-3.27c1.088-1.635 0-1.09 1.632-2.725 1.633-1.635 2.177-2.18 1.633-3.27-.544-1.09-1.089-1.636-.544-2.18.544-.546 2.72-.546 4.898 0 2.176.544 43.537 0 43.537 0s2.721-.546 2.721-1.09c0-.546 2.721 0 3.81 0 1.088 0 1.632 0 3.265.544 1.633.545 4.898 1.635 8.707.545 3.81-1.09 2.177-1.09 5.443-1.09 3.265 0 3.265-.545 4.353.545 1.089 1.09 1.633 1.635 2.177 1.09.544-.545.544-1.09 2.721-1.09s1.089-.545 3.81.545c2.72 1.09 1.088 1.635 2.72 2.18 1.634.545 1.09-1.09 2.722-1.635 1.633-.545 2.721.545 3.265-1.09.545-1.635 1.089-1.635 1.633-2.725s1.633-1.09 2.721-.545 2.177.545 2.721-.545-.544-2.18 1.633-2.18 4.354-.545 5.442.545 3.265 2.18 4.898 1.635c1.633-.545 2.721 0 4.898.545 2.177.545 5.986 1.09 7.619 1.635 1.633.545 2.177 1.09 4.898 1.635 2.721.545 3.81-1.09 3.81.545 0 1.635 1.632 2.18 2.176 1.635.545-.545 5.442-1.635 8.164-1.635 2.72 0 4.898-.545 5.442 0 .544.545 2.72 1.635 2.72.545 0-1.09-1.632-.545-.543-2.18 1.088-1.635 1.088-2.725 2.72-1.635 1.633 1.09 2.722 2.18 3.266 1.09s0-2.18 0-3.27c0-1.09 0-2.18 1.088-2.18 1.089 0 2.177-.545 1.089-1.635-1.089-1.09-1.633-3.27 1.088-2.725 2.721.545 3.266 2.18 3.81 1.09s-1.633-1.636.544-1.636 3.265 0 2.721-1.09-.544-2.18 0-2.18 1.633 1.09 1.633-.545c0-1.635.544-2.725 2.177-2.725 1.632 0 1.632-.545 3.265 0 1.633.545.544 3.27 2.721 2.725 2.177-.545 2.721-1.635 5.442-1.635s3.266-.545 4.898-.545c1.633 0 1.633 1.09 3.81 1.09s3.265-1.09 4.353-2.725c1.089-1.635 3.266-2.18 4.898-3.815 1.633-1.635 3.81-1.635 4.354-3.27.544-1.636 1.633-4.906 2.177-5.45.544-.546 2.177-2.18 2.177-3.271 0-1.09-.544-1.635-.544-1.635-2.721-1.635-2.721-4.36-4.354-5.995-1.633-1.636-3.265-5.45-4.898-6.54-1.633-1.091-3.265-3.816-3.81-4.361-.544-.545-1.632-2.725 1.633-3.27"/>
        <g stroke="#FFF" stroke-linejoin="round">
            <path d="M.271 167.4c2.713-.544 2.713-1.088 4.341 0 1.628 1.088 2.714 0 3.799 2.176s1.628 2.176 2.713 3.808c1.085 1.632.543 1.632 2.713 2.72 2.17 1.088 1.628-1.088 4.341 0s1.086.544 2.713 1.088c1.628.544 2.714-1.088 2.714 1.088v3.808c0 2.72 2.713 2.72-1.086 3.808-3.798 1.088-2.17 1.632-3.798 1.088-1.628-.544-3.256-2.176-2.713 0 .542 2.176 1.628 0 1.628 3.264s2.17 2.72 1.085 4.352c-1.085 1.632-1.085 2.72-1.085 2.72l-.543 1.632"/>
            <path d="M18.178 176.104c2.713-.544 3.799-2.176 3.799-2.176h3.256s3.798 0 5.969 2.176c2.17 2.176 1.085 2.176 3.255 1.632 2.17-.544 3.256-.544 4.341-1.632 1.086-1.088 2.171-3.264 3.799-1.088 1.628 2.176 1.628 3.808 3.256 4.352 1.628.544 2.17 0 3.256 1.088 1.085 1.088 1.627 2.176 3.798.544 2.17-1.632 4.341-3.264 6.512-1.632 2.17 1.632 1.628 0 3.798 1.632s1.628 2.176 3.256 1.088 0-1.088 1.628-2.72c1.628-1.632 1.085-2.176 2.17-2.72 1.086-.544 2.17-1.088 2.713 0l1.086 2.176s.542 1.088 0 1.088c-.543 0-3.256.544-3.256.544s-2.17.544-.543 1.088c1.628.544 3.799 1.088 3.799 1.632v2.176s1.085 1.632 0 4.896c-1.086 3.264 0 2.72-1.628 3.808-1.628 1.088-2.713 0-1.628 2.72 1.085 2.72 1.628 1.632 1.085 3.808-.542 2.176-2.17 2.176-2.17 3.264 0 1.088-.543 1.632-2.713 2.176-2.171.544-2.171-1.088-3.256 0-1.086 1.088-2.713 0-1.628 2.176 1.085 2.176 2.17 3.264 2.713 3.808.543.544 1.628 1.088 1.628 2.72"/>
            <path d="M105.543 181c-1.628.544-1.628 1.088-2.714 0-1.085-1.088-1.627-2.176-2.713-1.632-1.085.544-1.085 1.632-2.713 2.176-1.628.544-2.17.544-3.256 2.176-1.085 1.632-1.085.544-3.798 1.088s-1.628 1.088-3.799 0c-2.17-1.088-.542-1.632-3.255-1.088-2.714.544-1.628.544-3.799 0-2.17-.544-1.085-.544-3.256-.544-2.17 0-2.17 2.176-2.17 2.176M32.83 126.6c1.627 1.088 1.627 0 2.713 1.632 1.085 1.632 1.085 2.72 1.085 2.72s.543 1.088 0 3.264c-.543 2.176 0 1.632 0 2.72 0 1.088-.543 1.632-1.628 2.176v1.088s1.085 0 2.17.544c1.086.544 1.628-2.72 1.086 0-.543 2.72-1.085 4.352 0 4.896 1.085.544 2.17.544 1.628 2.72-.543 2.176-1.086 3.808-2.713 3.808-1.628 0-.543-1.632-1.628-1.632-1.086 0-1.628.544-2.714 1.632-1.085 1.088-1.085 0-1.627 2.176-.543 2.176-1.086 2.72-1.086 3.808 0 1.088 0 2.72 2.713 4.352 2.714 1.632 3.256 1.088 2.714 3.264-.543 2.176 0 2.176-1.628 2.72s-2.17 0-2.713 1.088c-.543 1.088-1.086 2.176-1.086 3.264 0 1.088-.868 1.958-.868 1.958M35.543 125.512c1.628 1.088 1.628-.544 2.713 0 1.085.544 2.713 1.088 3.256 0 .542-1.088.542-2.72 1.085 0 .543 2.72 2.17 2.176 1.628 3.808-.543 1.632-.543 2.176-1.085 4.352-.543 2.176-1.086 2.72-1.086 3.808 0 1.088 1.086 2.72 2.17 2.176 1.086-.544 1.086-1.088 3.257-.544 2.17.544 1.085 0 2.713-2.176 1.628-2.176-.543-1.088 1.628-3.808 2.17-2.72 0-2.176 3.256-2.176 3.255 0 2.713-1.632 4.883-.544 2.17 1.088 3.256.544 3.256.544s-.543 1.088 0 4.352c.543 3.264 1.085 4.352-.543 6.528-1.627 2.176-.542 4.896.543 5.984s2.713.544 2.713 2.72-2.17 2.72 0 3.264c2.17.544 1.628-.544 1.628 1.632s-.542 2.72-.542 4.896c0 1.85-1.845.87.542 3.264.38.38 1.52-1.36 2.17-.544 4.342 5.44 6.512 7.072 7.055 7.616.543.544-1.085 3.264-1.085 3.264s-.543.544-1.628 1.088c-1.086.544-1.628.544-1.086 1.632"/>
            <path d="M100.116 179.368c-1.085-1.088-.542-1.632-1.628-1.632h-2.17c-.543 0-2.17 1.088-2.17-1.088s0-2.176 1.085-2.72-.543-1.088 0-2.176c.542-1.088.542-1.632 1.085-3.264.542-1.632 1.085-1.088.542-2.72-.542-1.632 1.628-1.632.543-2.72-1.085-1.088-.543-1.632-2.713-1.632s-2.17-.544-3.799.544c-1.627 1.088-1.085 0-3.255.544s-2.714 1.632-3.256 1.088c-.543-.544-.543-1.088-1.628 0s-1.628.544-1.628 1.088-.543.544-1.628 1.632c-1.085 1.088-1.628.544-1.085 2.176.542 1.632-1.79 3.59-1.79 3.59"/>
            <path d="M112.054 169.576c1.086-1.632-.542-1.632 1.628-2.176l2.17-.544s1.086-1.632 0-2.72c-1.085-1.088 0-1.632-1.627-2.176-1.628-.544-2.17.544-2.713 1.088-.543.544-1.086.544-1.086 0s-.542-3.264-.542-3.264 0-.544-1.628-.544-1.085-1.088-1.085-1.632c0-.544.542-.544-.543-1.088s-2.713-.544-4.341-1.088c-1.628-.544-2.17-.544-3.799 0-1.628.544-2.17-1.088-3.255-.544-1.086.544-2.714 1.088-3.799 2.72-1.085 1.632-1.628 3.808-1.628 3.808v1.034"/>
            <path d="M63.217 135.848c0-.544 0-2.72 1.628-1.632 1.628 1.088 0 1.088 1.628 2.176s1.085 2.176 2.17 2.176c1.086 0 .543 0 2.171.544 1.628.544 2.17.544 3.256 0 1.085-.544 1.085.544 2.713-.544 1.628-1.088 1.085-.544 2.17 0 1.086.544 2.714 2.176 4.342 2.176 1.627 0 3.255.544 2.713 1.088-.543.544-1.086 2.176-.543 2.72s0 1.088 1.628 1.632c1.628.544 2.713 1.088 2.713 1.632 0 .544 0 3.808 1.085 2.72 1.086-1.088 1.628 0 2.714-1.088 1.085-1.088.542-.544 2.713-1.632 2.17-1.088 0-2.72 2.713-2.176s3.256 1.632 4.884 1.088c1.628-.544 1.628.544 2.713.544 1.085 0 2.713-.544 2.17 1.088-.542 1.632 0 1.632 0 3.264s-1.085 1.632-.542 3.264c.542 1.632-1.085 2.72-1.085 2.72M51.822 97.768c1.085 1.088 2.713 0 3.256 1.632.542 1.632-.543 2.176-.543 3.264 0 1.088-.543 1.088 0 2.72.543 1.632-.543 2.176.543 3.264 1.085 1.088.542 1.632 1.627 2.72 1.086 1.088 1.628.544 3.256.544s1.086-.544 1.628-1.632c.543-1.088 1.628-.544 1.628-2.176 0-1.632-2.17-2.176 1.628-2.176s4.341.544 5.969 0c1.628-.544 2.17.544 3.798.544 1.628 0 3.256 1.088 3.799 1.088.542 0 .542 1.088.542 1.088v1.632c0 1.088 0 2.72-1.085 1.632-1.085-1.088-1.628-2.176-2.17-1.632-.543.544-1.628 0-2.17 1.632-.544 1.632-1.086 1.088-1.629 2.176-.542 1.088.543 1.088-.542 2.176-1.086 1.088-1.628 0-2.171 1.088-.543 1.088-.543 2.176-.543 3.264 0 1.088 1.086 1.632-.542 2.176-1.628.544-1.628-.544-1.628 1.088 0 1.632-.543 1.088-1.085 2.72-.543 1.632-1.086 1.088-1.628 2.176-.543 1.088-.543 2.176-.543 2.176M82.752 79.816c0 1.088-.543 1.632 0 2.72.543 1.088-.543 1.088 0 2.72.543 1.632-.543 2.176 0 3.264.543 1.088.543.544.543 2.176 0 1.632 0 2.72.542 3.264.543.544 1.085 1.088 1.085 1.632v1.632l-1.085.544c-1.085.544-1.628 0-2.17 0-.543 0-.543.544-1.086 1.088-.542.544-.542 1.088 0 1.088.543 0 1.086.544.543 1.632-.543 1.088-1.085 1.088-1.085 2.176s.542 1.088 0 2.176c-.543 1.088-1.086 2.72-1.086 2.72"/>
            <path d="M78.031 137.97c-.705-1.034-1.248-2.666-1.248-2.666s-.543-.544 1.085-1.632c1.628-1.088 1.085-1.088 2.17-1.632 1.086-.544 2.171 1.088 2.171-.544v-2.176c0-.544.543-1.632 2.17-1.088 1.629.544 1.629-.544 3.257 0 1.628.544 2.17.544 2.17 1.632 0 1.088 0 2.176.543 2.176.542 0 1.628 1.088 2.713.544 1.085-.544 1.628-1.632 2.17-.544.543 1.088 1.628 2.176 2.171 1.088.543-1.088 1.085-1.088 0-2.176s0-1.088-1.628-1.088-1.085-1.088-2.17-2.176c-1.086-1.088-.543-1.632-.543-2.176 0-.544 0-2.72 2.17-1.632 2.171 1.088 2.171.544 3.256.544 1.086 0-.542.544 1.628 1.632 2.17 1.088 3.256.544 3.799.544.542 0 1.628-.544 1.628-.544s0 1.088 1.085 1.632c1.085.544 1.628 1.632 1.085 2.176-.542.544-1.628 1.088-.542 1.632 1.085.544 1.627.544 1.627 1.632 0 1.088 0 1.632-1.085 2.176-1.085.544-1.085-.544-1.628 0-.542.544-2.17 1.632-.542 2.176 1.628.544 3.255.544 4.34.544 1.086 0 1.086 0 1.629 1.632.542 1.632 2.713 3.264 3.255 4.352.543 1.088 0 3.264.543 3.808a20.673 20.673 0 0 0 3.256 2.72c1.628 1.088 3.256 1.088 2.713 2.176-.543 1.088-1.085 1.632-2.17 2.176-1.086.544-1.086 2.176-2.714 1.088s-2.713-.544-2.713-.544-1.628 0-2.17 1.088c-.543 1.088-1.628 1.632-1.628 3.264"/>
            <path d="M114.767 144.008h3.256s.543-.544.543-1.632c0-1.088.543-3.264 1.085-4.352.543-1.088 1.085-2.72 2.713-3.264 1.628-.544 2.17-.544 4.341-1.088 2.171-.544 5.97-1.632 5.97-1.632s.542.544.542 1.632c0 1.088-.543 1.088 0 2.72.543 1.632.543 2.176 0 2.72s-2.713.544-2.713.544h-2.17v2.72c0 1.088-1.086 1.088-.543 2.176.542 1.088-.543 1.088 1.085 2.176 1.628 1.088 3.256 0 4.884 1.088 1.628 1.088 2.17.544 2.17 2.176 0 1.632-1.085.544.543 2.176 1.628 1.632 1.085 2.176 2.17 2.72 1.086.544 2.714 1.088 2.714 1.632 0 .544 1.085.544 1.627 0 .543-.544 0-2.176 2.171-1.632 2.17.544 1.085-1.088 2.17.544 1.086 1.632 2.714 3.264 3.799 2.176l2.713-2.72c1.085-1.088.543 0 2.17 0 1.629 0 2.171 0 2.171.544s.543 1.088.543 1.088-1.085 2.72-1.085 3.264c0 .544 0 1.632-.543 2.176-.543.544-1.628.544 0 1.632 1.628 1.088 2.17 2.176 3.798 2.176 1.628 0 2.171.544 2.714.544.542 0-1.086 1.088.542 1.088 1.628 0 2.713 0 1.628 1.088"/>
            <path d="M132.674 132.04c1.086-.544 0-1.088 2.714-1.088 2.713 0 3.255-1.088 3.798-1.632.543-.544 2.17-.544 2.713.544.543 1.088-.542 2.176 1.628 2.176s2.713.544 3.256 0c.543-.544 1.628-2.176 3.256-1.088s4.34 3.808 5.426 5.44c1.085 1.632 3.799 1.088 4.884 2.72 1.085 1.632 2.17 1.632 3.256 2.72 1.085 1.088.542 1.632 2.17 2.176 1.628.544 2.17 0 2.713 1.088l1.086 2.176-1.628 1.632c-.543.544.542 1.632-1.628 2.176-2.17.544-2.17.544-3.256 1.632-1.085 1.088-1.628 2.72-2.713 2.176-1.085-.544-1.628 1.632-1.628 1.632M194.535 169.576c0-1.632-.543-1.632 0-2.72.543-1.088.543-.544-.543-1.632-1.085-1.088-1.085-1.088-1.628-2.176-.542-1.088-.542-1.632-.542-1.632s.542.544-1.086.544c-1.627 0-2.713 1.632-3.798-.544s-1.628-2.72-2.713-3.264c-1.085-.544-1.085-1.632-1.085-1.632s.542-1.088-1.086-1.088c-1.628 0 .543 1.088-1.628 0-2.17-1.088-1.628-2.176-3.255-2.72-1.628-.544-2.171 0-2.714-1.088-.542-1.088-.542-1.088-1.628-1.632-1.085-.544-1.085-1.632-2.17-2.176l-1.085-.544"/>
            <path d="M168.488 145.096c1.086-2.176 1.086-3.264 1.086-3.264l1.628-3.264s.542-2.176 2.17-3.808c1.628-1.632 1.628-.544 3.256-2.176 1.628-1.632 1.628-2.176 3.798-1.088s3.799.544 4.341 1.088c.543.544 2.171 0 3.256 0 1.086 0 1.086.544 1.628 1.088.543.544 1.085 1.088.543 1.632-.543.544-1.085 1.632-1.628 2.176-.543.544-.543 1.088-1.628 1.632-1.085.544-1.085 3.264-.543 3.808.543.544 0 0 1.086 1.632 1.085 1.632.542 2.176 2.17 2.176s2.713 1.632 3.256 1.088c.543-.544 0-2.176 2.17-.544 2.171 1.632 3.799.544 4.884 1.632 1.086 1.088 1.086 2.176 1.086 2.176s0 3.808-.543 3.264-2.17-.544-2.17 0-1.086 1.088-2.171 1.632c-1.085.544-1.085 0-2.17 1.632-1.086 1.632-1.086.544-1.629 2.176-.542 1.632-.542 2.176-.542 2.176"/>
            <path d="M221.124 165.224c-1.085-1.088-1.085-.544-2.17-1.632-1.086-1.088-.543-.544 0-2.176.542-1.632 1.085-1.088 2.17-2.72 1.085-1.632 1.628-2.176 1.628-2.176s-1.085-1.632-2.713-1.088c-1.628.544-3.799 1.632-3.799 0s-.542-1.632 0-2.72c.543-1.088 1.086-.544 1.086-2.176v-2.72s-1.086-.544-.543-2.176c.543-1.632-.543-1.632 1.628-3.264 2.17-1.632.542 0 2.17-1.632s1.628-1.632 2.714-1.632c1.085 0 2.17-.544 1.627-1.088-.542-.544 0-1.632-1.085-2.72-1.085-1.088-.542-1.088-1.628-1.088-1.085 0-1.628 0-2.17-1.088-.543-1.088-.543-1.088-1.086-1.632-.542-.544-1.627-1.088-2.17 0-.543 1.088-.543.544-1.628 1.632-1.085 1.088-1.628.544-2.17 2.176-.543 1.632-.543 1.632-1.628 1.088-1.086-.544-1.628-.544-2.171-.544-.543 0-3.256 0-4.341-1.632-1.085-1.632-1.085-2.176-1.085-3.264v-2.176h-3.799s-.542.544-1.628 1.088c-1.085.544-1.085.544-1.628 1.632-.542 1.088-1.627 2.176-2.17 2.176-.543 0-1.628 1.088-2.17 1.088-.543 0-2.171-.272-2.171-.272M140.434 128.885c.38-1.197 1.465-1.741 1.465-1.741s0-.544 1.085-2.176c1.086-1.632-.542-.544 1.628-1.632 2.17-1.088 1.628-2.176 2.714-1.088 1.085 1.088 2.17 2.176 3.255 2.176 1.086 0 .543 1.632 2.17 1.088 1.629-.544 1.629 0 2.714-1.088s2.17-1.088 2.713-1.632c.543-.544 1.086 0 1.628-1.088.543-1.088 2.17-2.176 3.256-1.632 1.085.544 1.628 1.088 2.17 2.176.543 1.088 2.171 1.088 3.256.544 1.086-.544-1.628-1.088 1.628-.544s2.17.544 3.799 0c1.628-.544 1.085 0 3.256-.544 2.17-.544 3.255-.544 3.255-.544s.543 2.176 1.086 2.72c.542.544-1.086 0 .542 1.088 1.628 1.088 1.628 2.176 2.713 3.264 1.086 1.088 2.171 2.72 2.171 2.72l-.271 1.795M105.543 126.056c0-1.088-.543-2.72.542-2.176 1.086.544 1.628.544 2.713 1.088 1.086.544 2.171 1.632 1.086-1.088-1.086-2.72 0-3.808-1.086-4.896-1.085-1.088-2.17 0-2.17-1.632s-1.085-2.72.543-3.264c1.627-.544 1.085-1.632 1.085-1.632s-1.628-.544-2.713 0c-1.086.544 0 0-1.628.544s-2.713-.544-2.713-.544-.543 0-2.714-1.632c-2.17-1.632-2.17-.544-2.713-2.176-.542-1.632-.542-2.176-1.085-2.176h-2.17c-.543 0-.543.544-.543 0s-.543-6.528-.543-6.528-2.17 0-2.17.544 0 1.088-.543 1.088h-1.628s0-4.896-2.17-4.352"/>
            <path d="M84.922 95.592c1.086-1.632 1.086-2.72 1.086-2.72s-1.628-1.632 1.085-2.176c2.713-.544 2.713-.544 3.256-1.632.542-1.088 1.628-2.72 3.256-2.176s1.085 2.176 3.255 2.176c2.171 0 1.086.544 3.256.544s1.628-1.088 3.256-.544 2.17 1.632 4.341 1.632c2.17 0 2.713 1.088 3.256 0 .543-1.088 2.713-1.088 2.713-1.088h1.085s-2.17 2.176-1.627 3.264c.542 1.088-.543 1.632.542 2.176 1.085.544 2.713 2.72 2.713 2.72s0 1.632-1.085 2.176l-2.17 1.088s-1.628 0-1.086 2.176c.543 2.176 1.086 2.176.543 4.352s-.543 3.264-2.17 3.808c-1.629.544-2.171 1.088-2.171 1.088M105 60.776c1.085 1.088 0 2.176 2.17 2.72 2.171.544 2.714 1.632 4.884 1.632 2.17 0 2.713.544 3.799 2.176 1.085 1.632 1.085 2.72 1.628 4.896.542 2.176 1.628 3.264 1.628 3.264s3.255 0 4.34.544c1.086.544.543 2.176 0 2.72-.542.544-1.085 1.088-2.17 2.72-1.085 1.632-.543 2.72-2.17 2.176-1.628-.544-3.256-1.088-3.799-.544-.543.544-1.085 1.088-1.085 1.632 0 .544.542 4.896.542 4.896M116.395 97.768c2.17-1.088 2.714-1.632 2.714-1.632s0-3.808 1.627-2.176c1.628 1.632 1.628 1.088 1.086 2.72-.543 1.632-.543 2.176.542 2.176 1.086 0 1.086-.544 2.17 0 1.086.544-1.084.544-.542 2.176.543 1.632.543 3.264 2.713 1.632 2.171-1.632 1.628-3.264 2.714-1.088 1.085 2.176 1.628 2.72 2.17 1.632.543-1.088 2.17-2.176 1.628-.544-.543 1.632-.543 3.808-2.713 4.896s-2.17 2.176-3.799 2.176c-1.627 0-2.713 0-1.627 2.176 1.085 2.176 1.085 5.984 1.085 6.528 0 .544-.543 2.176-1.628 2.176s-1.628 1.088-1.628 1.088 3.256.544 2.17 2.176c-1.085 1.632-2.713 0-2.17 1.632.543 1.632 1.085 2.176 1.085 2.72s.543-1.088 1.628 0 1.628 3.808 3.256 2.72c1.628-1.088 3.256-1.088 3.256-1.088v2.013"/>
            <path d="M114.659 87.704c2.279.816 3.364.816 4.992.816 1.628 0 4.341-.544 4.341-.544s2.713-.544 3.799-2.176c1.085-1.632 1.628-1.088 2.713-2.176 1.085-1.088 3.256-1.088 3.798-.544.543.544 2.17.544 2.17.544v-1.632l1.629-2.176s-.543.544 0-1.088c.542-1.632 0-.544.542-1.632.543-1.088 0-1.088 0-2.176s.543-1.632 0-2.176c-.542-.544-.542-.544-2.17 0s-3.799.544-3.799 0-3.255-1.088-3.255-1.088-2.17 0-2.714-.544c-.542-.544-1.627-1.632-2.17-.544-.543 1.088-1.628 1.088-2.17 1.632-.543.544-1.629 1.632-2.171 1.632-.543 0-1.79.653-1.79.653M114.767 39.56c1.628.544 1.628 0 2.171 1.632.543 1.632 1.085 2.72 1.628 3.264.543.544 1.628 2.176 2.713 1.632 1.085-.544.543 0 2.17-1.088 1.629-1.088 0-2.72 2.171-1.632 2.17 1.088 2.713.544 3.799 1.632 1.085 1.088 1.628-.544 1.628 1.632s-.543 3.264 1.085 3.264c1.628 0 1.628-.544 1.628 1.088 0 1.632 0 3.264 1.085 4.896 1.085 1.632.543 4.352 1.628 5.984 1.085 1.632 0 3.264 1.085 3.264h3.799c1.627 0 4.883 0 4.883-.544s.543-.544.543-1.088.543.544.543-1.088c0-1.632 0-1.088 1.627-2.176 1.628-1.088 2.714-1.088 3.256-1.632.543-.544 2.17-1.088.543-2.176-1.628-1.088-1.628-1.632-3.256-3.264s-3.256-2.72-2.713-4.896c.543-2.176 1.628-3.264 0-3.808s-5.969-3.264-8.14-5.44"/>
            <path d="M136.473 83.624c1.085 1.088 2.713 1.632 3.798 1.632 1.086 0 1.628-1.088 2.713-1.088 1.086 0 2.714 2.176 2.714 0s.542-2.72 1.628-2.72c1.085 0 1.627 1.088 2.713 1.088 1.085 0 3.256.544 3.256-1.632s1.085-3.264-.543-4.352c-1.628-1.088-2.17 1.088-3.256-2.176-1.085-3.264-1.085-3.264-1.085-4.352 0-1.088 0-3.264-1.085-4.896-1.086-1.632-.543-1.088-.543-1.088"/>
            <path d="M129.419 101.576a15.335 15.335 0 0 1 3.255-1.632s1.628-1.088 2.714-.544c1.085.544 1.628.544 2.713 0 1.085-.544 1.085-.544 2.713-.544 1.628 0 2.713 1.088 3.256 1.088h.542s-2.713-3.808-1.085-4.352c1.628-.544.543-.544 2.17-1.632 1.629-1.088 1.086-2.176 2.714-2.176s3.798 0 4.34-.544c.544-.544.544-.544 2.171-1.088 1.628-.544 2.714-.544 3.799 0s2.17.544 2.17.544 1.628-3.264 1.086-3.808c-.543-.544-1.628-.544-2.17-.544-.543 0-1.629-1.088-2.171-1.088-.543 0-1.086.544-1.628 0-.543-.544-3.256-3.373-3.256-3.373"/>
            <path d="M147.326 122.248c1.085-1.632 2.713-1.632 2.713-2.72 0-1.088.542-.544 0-2.176-.543-1.632-1.086-1.632-.543-2.176.543-.544 0-1.632 0-1.632s-.543 0-2.713.544-2.17.544-3.256 1.088c-1.085.544-1.085 1.632-2.17 1.632-1.086 0-2.171-.544-2.171-1.088s0 0 .543-1.088c.542-1.088 0-.544.542-1.632.543-1.088 1.086-1.632 1.086-2.176 0-.544.542-2.72 2.17-2.176s1.628 1.088 2.713 1.088c1.086 0 1.628.544 2.713-.544 1.086-1.088 1.628 0 1.086-1.632-.543-1.632.542-1.088 0-2.176-.543-1.088-1.628-1.632-3.256-2.176-1.628-.544-2.17 0-2.17-1.088s-.543-2.176-.543-2.176"/>
            <path d="M152.752 91.24c1.085 0 1.085.544 2.17 1.088 1.086.544 1.086 2.72 1.086 2.72l1.085 2.72s1.085.544 1.085 1.088.543.544 0 2.176c-.542 1.632 1.086 2.72-1.085 2.72-2.17 0-3.798-.544-3.798 1.088 0 1.632.542 2.72 1.085 3.808.542 1.088.542 3.264.542 3.264s-2.713.544-3.798 1.088-1.628 1.251-1.628 1.251"/>
            <path d="M179.884 121.269c0-1.197-.543-2.285-.543-2.285l-1.085-1.632s-.543 1.088-1.085.544c-.543-.544-2.171-1.632-2.171-1.632s0-.544-1.628-1.088-2.17.544-1.628-2.176c.543-2.72 1.085-1.632.543-3.264-.543-1.632-1.628-1.632-1.628-1.632s-1.085-1.632-2.17-.544c-1.086 1.088-1.629 1.632-2.714 1.632s-2.713-.544-2.713-.544 1.085-1.088 1.085-1.632c0-.544 0-2.72-1.628-2.176s-2.17.544-2.713.544c-.542 0-.542-1.088 0-2.176.543-1.088-1.465-2.883-1.465-2.883M160.891 90.696c1.628 1.632 2.171 1.632 2.171 1.632s1.628 1.088 2.713.544c1.085-.544 1.085-.544 2.713.544 1.628 1.088 2.17 1.088 3.799 1.632 1.628.544 1.085 1.088 2.713 2.176 1.628 1.088 2.17 1.088 2.17 2.72 0 1.632-.542.544 1.086.544 1.628 0 1.628 0 3.256.544s2.713 2.176 2.713 2.176 2.17 2.72 3.256 2.72c1.085 0 1.628.544 1.628.544s0 2.176-1.086 2.176c-1.085 0-1.628 1.088-2.713 0-1.085-1.088-1.085-2.176-2.713-2.176-1.628 0-2.17 1.632-2.713 1.632-.543 0 .542 1.088 0 2.176-.543 1.088-1.086 1.632-1.628 2.176-.543.544-.543 1.632-.543 1.632s1.085.544.543 3.264M203.76 128.776c1.085-.544 1.085 0 1.628-1.632.542-1.632 0 0 0-2.176s.542-2.72 0-3.264c-.543-.544-1.086-1.632-1.628-2.176-.543-.544-1.086-2.176-1.628-3.808-.543-1.632 0-.544 0-2.72s-.543-1.632-1.628-2.72c-1.085-1.088-2.17 0-2.17-1.088s-.543-2.176-.543-2.176-.543-2.72-.543-4.352c0-1.632.543-2.176-1.085-2.72-1.628-.544-3.256-1.088-3.256 0s-.543 2.176-.543 2.176 0 1.632-.542 2.176c-.543.544-2.713 2.176-2.713 2.176M224.922 138.024c1.086 0 0 1.088 1.086 0 1.085-1.088 1.085-1.088 2.713-.544 1.628.544 2.17 0 3.256.544 1.085.544 1.628.544 3.256 1.088 1.627.544 1.627 1.632 2.713 2.176 1.085.544 2.713.544 2.713.544h3.256v7.072s1.085 1.088 1.628 2.72c.542 1.632 0 3.264 0 3.264s-2.17 0-1.628 1.088.542 1.088.542 2.72c0 1.632.543 1.632-.542 3.264-1.086 1.632-1.628 1.088-1.628 2.72 0 1.632-1.085 1.088-1.628 0-.543-1.088-1.085-.544-1.628 0-.543.544-1.085 3.264-1.085 3.264l-.543.544"/>
            <path d="M197.79 107.016c1.086.544 2.171 1.632 5.427 1.632h4.341l6.512-3.808s-1.628 2.72-1.086 3.808c.543 1.088 1.086 1.632 2.171 2.176 1.085.544 1.085 1.088 1.085 2.176s-.542 1.632-.542 2.72c0 1.088 0 2.176 1.085 2.176s2.17 0 3.256 1.088l2.17 2.176c.543.544 2.713 2.176 1.628 2.72-1.085.544-2.17 1.632-3.256 1.632-1.085 0-2.17 1.088-2.17 1.632 0 .544-.271 3.7-.271 3.7M279.729 150.536c-1.628-1.088-.543-1.088-3.256-3.264-2.713-2.176-3.256 0-4.341-3.264-1.085-3.264.542-3.808 0-4.352-.543-.544-2.713 0-3.256-1.088-.543-1.088-1.085-1.088-1.628-2.176-.543-1.088.543-1.632-1.085-1.632-1.628 0-2.713.544-2.713-.544s-.543-1.088-1.086-1.632c-.542-.544-1.085-.544-2.17-.544s-1.085-.544-2.17-.544c-1.086 0-.543-.544-2.714 1.088-2.17 1.632-3.798 1.632-3.798 2.72 0 1.088.542 1.632-.543 2.72-1.085 1.088-1.628 1.632-2.713 1.632-1.085 0-4.341 1.088-4.341 2.176"/>
            <path d="M219.333 118.331c1.248-1.523 2.334-1.523 2.876-2.611.543-1.088-1.085-1.632 1.628-1.632s1.628.544 3.256-.544.543-1.088 3.256-1.088c2.713 0 3.798-.544 3.798-.544s2.713-2.176 3.799-2.72c1.085-.544 1.628-3.264 3.798-2.176 2.17 1.088 3.799 1.088 4.341 2.176.543 1.088 1.628.544 2.17 3.264.543 2.72.543 3.264 2.171 2.176 1.628-1.088.543.544 1.628-1.088 1.086-1.632.543-2.176 1.628-2.72s.543-1.088 1.085-1.088c.543 0 1.628-1.088 1.628-2.176s0 0 .543-1.632-.543-2.72 1.628-2.72c2.17 0 3.798-.544 3.798-.544s0-1.088.543-1.632c.543-.544 1.085-1.632 2.17-1.088 1.086.544 2.714 1.088 2.714.544s1.085-2.176 1.085-2.72.543-1.088 1.085-1.088c.543 0 3.256-.544 3.256-.544l1.628-1.632"/>
            <path d="M272.132 139.656c1.085-1.632 1.628-2.72 1.628-2.72s1.085-1.632 1.085-4.352c0-2.72.543-5.44.543-7.072v-3.264s-2.17.544-3.256-1.088c-1.085-1.632-1.085-3.808-1.085-3.808s1.085-2.72.542-4.352c-.542-1.632-.542-3.264-.542-4.352 0-1.088.542-2.72 1.085-3.264.542-.544 1.085-1.632 1.085-3.264s.543-3.264.543-4.352c0-1.088-.434-2.176-.434-2.176M261.28 83.08c-3.257 1.632-2.171 0-3.257 1.632-1.085 1.632-1.628 1.632-2.17 1.632-.543 0-.543-1.632-1.628 0s-1.628 1.632-1.628 1.632h-2.713s-.543.544-2.17.544c-1.629 0-2.714.544-2.714.544v1.088c0 1.088-1.085 1.088-1.085 1.088s-.543 0-1.628.544-.543 0-1.628 0h-2.713l-1.086-.544c-1.085-.544-.542-.544-1.627-.544-1.086 0-.543-.544-1.086.544-.542 1.088.543 1.088-.542 2.176-1.086 1.088-2.17 0-1.086 1.088 1.086 1.088 1.628 2.176 2.17 3.808.544 1.632.544 3.264.544 3.264s0 2.72.542 3.808a5.432 5.432 0 0 1 .543 2.176l.38 2.557M152.752 56.424c.543-1.632 1.085-2.72 1.085-2.72l1.628-2.176s2.17-2.176 4.341-1.632c2.17.544 1.085 1.632 2.713 2.72 1.628 1.088 1.628 1.632 3.256 2.176 1.628.544 3.799 1.088 3.799 1.088s1.085 1.088 1.085 3.264c0 2.176-1.628 1.632-1.628 3.264v3.808c0 1.088 0 1.632-.543 2.72-.542 1.088 1.086 2.176 1.628 3.264.543 1.088 0 1.632.543 2.72.543 1.088 0 1.088 0 2.72 0 1.632 0 1.632-.543 2.72-.542 1.088-.542.544-2.17.544s-5.427.544-5.427 1.088-1.085 2.72-.542 3.808c.542 1.088 0 1.088 0 1.088M230.349 27.592l-.543 1.088-1.085-.544s-1.085 1.632-1.628 3.264c-.543 1.632-1.628 1.632-2.17 3.264-.543 1.632-1.086 2.72-2.171 2.72-1.085 0-1.628 1.088-2.713.544-1.086-.544-2.17-1.088-3.256-.544-1.085.544-2.17.544-3.256 0-1.085-.544-1.085-1.088-2.713 0-1.628 1.088.543 1.632-2.713 1.632H199.419s-2.17 0-2.17-2.176.542-2.72 0-3.808c-.544-1.088 1.084-1.632-1.086-2.72-2.17-1.088-1.085.544-2.17-1.632-1.086-2.176-2.714-2.72-3.257-4.352-.542-1.632-1.085-4.352-3.255-5.984-2.17-1.632-2.714-3.264-3.256-3.808l-3.256-3.264"/>
            <path d="M199.419 39.016c1.085 1.632 1.628 1.088 1.085 2.72-.543 1.632 0 1.088-.543 2.72-.542 1.632-.542 2.176-1.628 2.176-1.085 0-2.17-.544-2.17-.544s0 .544-2.17 2.176c-2.171 1.632-3.257 1.632-3.8 2.176-.542.544-.542.544-2.17 1.088s-1.628-.544-3.256.544c-1.627 1.088-2.17 1.088-3.798 1.632-1.628.544-1.085 0-3.256 1.088-2.17 1.088-.542.544-2.713.544h-3.798l-1.628.544"/>
            <path d="M242.83 50.984c-.543 1.088 0 .544-1.086 1.632-1.085 1.088-2.17.544-2.17.544l-2.17 2.176c-1.086 1.088-.544.544-2.714 1.088s-3.256 1.632-3.256 1.632-1.628 2.72-3.256 3.264c-1.628.544-1.628 0-3.256 1.088-1.627 1.088-1.085 1.632-3.798 1.632s-3.256-1.632-4.341-1.088c-1.085.544-1.628 1.088-2.17 1.632-.543.544-1.086 1.632-1.086 1.632s-1.085 1.088-.543-1.088c.543-2.176.543-2.72.543-3.264 0-.544 0-1.088-1.085-1.088s-3.799-1.088-3.799-1.088-1.627 0-2.713-1.632c-1.085-1.632-1.628-1.632-1.628-3.264s.543-2.176-1.085-3.264c-1.628-1.088-2.17-2.176-3.798-2.72-1.628-.544-3.256-2.72-3.256-2.72"/>
            <path d="M198.333 48.427c-1.085.381-2.17.925-2.17 2.557s-.543 1.088-.543 3.264c0 2.176 0 3.808-1.085 3.808s-3.799.544-2.713 2.72c1.085 2.176 2.17 7.616 2.17 7.616s.543.544 1.086 2.176c.542 1.632 1.085 2.72 1.085 4.896 0 2.176-1.085 1.632-1.085 5.44 0 3.808 1.627 7.616-1.086 7.072-2.713-.544-5.426-1.632-4.34 0 1.084 1.632.542 4.352 2.712 5.44s2.714 2.176 2.714 2.72.922 2.176.162 3.536M224.922 62.408c.543 1.088-.542 1.632.543 3.264s1.628 1.088 2.17 2.72c.543 1.632.543 2.176 2.171 3.808 1.628 1.632 2.17 1.088 2.713 2.72.543 1.632.543 2.176 1.628 2.72 1.086.544 0 .544 3.799 1.632 3.798 1.088.542.544 3.798 2.72C245 84.168 243.914 85.8 245 85.8c1.085 0 1.628 1.795 1.357 2.829M213.527 66.216c-.543 1.088 0 1.632-1.085 1.632s-1.628 0-1.628 1.088 0 1.088.543 2.176c.542 1.088 0 3.264 0 3.264s-1.086-.544-1.086 1.088v2.72c0 1.088-.542 2.176-1.085 3.264-.543 1.088-2.713 1.088-1.628 2.72 1.085 1.632 0 2.176.543 3.264.542 1.088.542 2.72 1.085 3.808.543 1.088 2.17 2.72 3.256 2.72 1.085 0 2.713 1.088 2.17 2.176-.542 1.088-.542 2.72-.542 3.808 0 1.088.542 2.176.542 3.808 0 1.632-.542 1.088-.542 1.088"/>
        </g>
    </g>
</svg>
