<svg xmlns="http://www.w3.org/2000/svg" width="272" height="271" viewBox="0 0 272 271">
    <g fill="none" fill-rule="evenodd">
        <path fill="#1F6CC6" d="M59.606 160.313H15.327s-1.46-1.946-3.406 0c-1.946 1.946-2.433 1.46-4.379 1.946-1.946.487-5.352.973-5.352.973s1.946-.973 0-1.946c-1.947-.973-2.433-1.946-1.46-2.432.973-.487 3.406-.487 3.406-.487s0-2.433.487-3.406c.486-.973 0-4.378 0-4.378s-1.46-.487-.974-1.46c.487-.973 1.947-1.46 1.947-1.46s.486-.973 1.46-1.946c.973-.973.973-1.946 2.919-2.432 1.946-.487 2.433-.974 2.433-.974s.973 0 1.946.974l1.947 1.946c.486.486.973.486.973.486l2.433-1.46s1.946-.486 1.946-.972c0-.487-.487-2.92.487-3.406.973-.487 1.946.486 1.946.486s.973.487 1.946-.486 3.893-.973 3.893-1.46c0-.486 1.46-.973 1.46-.973s0 1.46.486 1.946c.487.487.487.973-.486 1.46-.974.486-.487 0 0 1.46.486 1.46 0 1.946 0 2.432 0 .487-.487 1.946.486 1.46.973-.487 1.947-.487 2.433-.487.487 0 .487.487 1.946 0 1.46-.486 2.92-2.432 3.407-3.406.486-.973 1.46-1.46 2.432-2.432.974-.973.487-.973 1.947-1.46 1.46-.486 1.46-.973 1.46-.973s.973-.973 1.46-1.946c.486-.973 3.892-1.46 4.379-1.946.486-.487 1.946-.487 2.919-2.433.973-1.946 1.946-4.865 2.92-7.298.973-2.433-.974-3.406-.487-4.865.487-1.46.487-3.892.487-6.812 0-2.919-.974-5.352.486-5.838 1.46-.487 4.866-3.892 5.84-6.812.972-2.919.486-4.378 3.405-5.838 2.92-1.46 2.92-2.433 4.866-2.92 1.946-.486 6.812-6.324 6.812-6.324s.487-2.92 0-4.379c-.486-1.46.973-3.406 1.46-5.352.487-1.946 1.46-1.46 1.946-3.406.487-1.946.973-3.405 0-4.865-.973-1.46-1.46-3.892-.973-4.865.487-.973.487-2.92 1.946-5.352 1.46-2.433 1.46-3.406.974-4.866-.487-1.46 0-3.892.486-5.838.487-1.946.487-3.406 1.947-4.865 1.46-1.46 2.919-2.92 2.919-3.893 0-.973 1.46-4.865 1.946-5.351.487-.487 0-3.893 0-6.325 0-2.433-.973-2.92 0-4.38.974-1.459 0-2.432 0-3.405 0-.973-1.46-3.406 0-3.406s2.92-.973 3.893-2.919c.973-1.946 2.433-5.352 4.38-5.838 1.946-.487 2.432-1.947 4.379-1.947 1.946 0 2.919-1.46 4.379 0a21.566 21.566 0 0 0 2.92 2.433s2.919.973 3.892 1.946c.973.973 2.92 1.946 2.92 2.433 0 .487 0 2.433.973 2.92.973.486 3.892-.974 6.325 0 2.433.972 1.46 1.459 2.92 1.945 1.46.487 1.46-.486 2.433 0 .973.487.973.487 2.433.487s3.892-.973 4.865 0c.973.973.973-.487 2.433.486s4.38 1.947 4.38 1.947 3.406 0 3.406-1.46v-2.433c0-.973-.487-1.946.486-1.946s.973 0 1.46-.973c.486-.973.486-1.46 1.46-1.946.973-.487 1.46-1.46 1.46-1.46s1.46.973 2.432 1.46c.973.486.973-.487 1.947.486.973.974 3.406.974 4.865 0 1.46-.973 2.92-1.46 2.92-1.46s.973-1.459 2.92-1.459c1.946 0 2.432 0 3.892-.973s.487-1.946 1.946-1.946c1.46 0 2.433.973 3.407 1.46.973.486 0 1.46 1.946.973s.486-1.46 3.406-.973c2.92.486 2.92.486 3.893-.487.973-.973 1.46-.973.973-1.946s1.46-2.433 1.946-2.433c.487 0 .973.487 3.406.973l2.433.487c2.433.486 3.406 0 3.406 0s1.46-.487 1.947.486c.486.973 2.92 1.46 2.92 1.46s1.945.973 2.432.487c.487-.487.973-1.46 1.946-.487l.973.973s2.433-2.92 2.92-2.433c.487.487 1.46 0 2.433.487.973.486.486 0 1.946.973s1.947 1.46 2.92 2.433c.973.973 2.433 0 2.433 1.46 0 1.459.486 1.945.973 2.432.486.487 1.946 1.46 2.92 1.946.972.487 0 1.46 1.46 1.946 1.459.487 2.919.487 3.892.973.973.487 3.406-.973 3.892-1.946.487-.973.487-1.946 1.46-1.46.973.487 1.46.974 2.433.974.973 0 2.92 1.46 3.406 1.46.487 0 .487 1.459 1.946 0 1.46-1.46.487-1.947 1.46-2.433.973-.487-.486-1.947.973-1.46 1.46.487 2.92 0 3.406.973.487.973.974 2.433 1.46 2.92.487.486 1.46 0 2.433 1.945.973 1.947 1.946 2.92 2.92 3.406.973.487 1.946 1.946 3.406 1.946 1.46 0 1.946.487 1.946.973 0 .487-.487 1.946 0 2.433.487.487 1.946 0 2.433 0 .487 0 1.946.487 1.946.973 0 .487.973.973.487 1.946-.487.973-1.46 1.946-1.946 3.406-.487 1.46-.487 1.46 0 2.433.486.973 1.46.973.973 2.432-.487 1.46-1.46 1.946-1.46 3.406 0 1.46-.487 1.946.487 2.433.973.486.486 1.46 1.946.973s1.946 0 2.433.486c.486.487 1.46.973 1.946 1.46.487.486.973.973.487 1.946-.487.973-.973 1.46-1.947 2.92-.973 1.459-2.433 2.432-2.92 2.919-.486.486-1.459.486-2.432 1.946-.973 1.46-2.433 2.919-2.433 2.919s-.487 1.46-1.946 1.946c-1.46.487-2.433-.973-2.433.487s.486 1.46-.487 2.919c-.973 1.46 0 .973-1.946 1.46-1.946.486-2.92.486-2.433 1.945.487 1.46 0 .974 0 2.92s-1.46 1.946-1.46 3.892-.973 1.46-1.46 2.92c-.486 1.459-.973 3.891-.973 5.838 0 1.946-.973 3.892-.486 5.351.486 1.46-.487 3.406-.487 3.406s-.973 1.946-.486 3.406c.486 1.46.973 2.433.973 2.433s-1.947 1.46-2.92 1.946c-.973.486-1.46.486-1.946 1.46-.487.972-1.46 1.459-1.46 3.405 0 1.946.973 1.46 0 3.406-.973 1.946-2.92 2.92-3.406 3.406-.487.486-.973 1.946-.973 1.946s1.946 2.432 2.433 3.892c.486 1.46 1.46 1.946 1.946 2.92.487.972 1.946 1.945 1.46 2.432-.487.486-.973 2.92-.973 4.865 0 1.946 0 6.325 1.46 7.785s.486 1.46.973 3.406c.486 1.946.486 2.919.486 4.378 0 1.46-.973 1.947-.973 3.893 0 1.946.487 3.892.973 4.865.487.973.973 2.92 1.46 3.892.487.973 1.46.973 1.46 2.433s0 1.46-.487 2.92c-.486 1.459-1.46 5.838 0 7.784 1.46 1.946 1.46.973 1.946 2.919.487 1.946 1.947 2.92 3.893 3.892 1.946.973 4.866 3.893 5.353 5.352.486 1.46-.487 1.46.486 3.406.973 1.946 2.433 5.352 2.433 5.352s2.433 2.919 2.433 3.892c0 .973.487 1.946 0 1.946s-20.437 3.406-20.437 3.406-3.892.973-4.865.973c-.974 0-1.46 5.352-2.433 6.325-.973.973-4.38 3.406-4.866 3.892-.487.487-.973.973 0 1.946s3.406 3.893 3.406 5.839c0 1.946-.973.486-.973 2.919v5.838l.973 4.38s-2.433 1.945-1.946 2.918c.486.974 0 2.433-.487 3.893s-.487 2.919-1.46 3.892c-.973.973-.486 2.433-.486 2.433s.486 2.919 1.946 4.379c1.46 1.46 2.92 0 3.893 2.432.973 2.433 3.406 5.352 4.379 5.352.973 0 2.433-1.46 3.893 0s2.433.973 1.946 0c-.487-.973-.973-2.92.487-2.92s2.919-.972 3.406-.486c.486.487.486 18.975.486 18.975s-1.946.973-2.433 0c-.486-.973-.486-.973 0-1.946.487-.973-.973-2.433-1.46-1.946-.486.486-3.892 2.433-4.379 2.92-.486.486-1.946 0-2.92 0-.972 0-1.459-.974-1.946-2.434-.486-1.46 0-1.946-1.46-3.405-1.459-1.46-.972-2.433-1.946-1.946-.973.486-2.92.486-2.433-1.46.487-1.946-1.46-3.406-1.46-3.892 0-.487-2.919-.487-4.379-1.46-1.46-.973-2.432-.486-2.919-1.46-.487-.973-1.46.487-2.433 0-.973-.486-3.893-2.432-3.893-3.892s-1.946-2.919-2.433-3.406c-.486-.486 0-1.946-.486-2.432-.487-.487-2.92-.487-2.92-.487s0 .487-.486 2.433c-.487 1.946-.973 3.892-2.433 3.406-1.46-.487-3.893-.973-4.866-.973-.973 0-1.946-.487-3.406 0-1.46.486-3.893.486-4.38-.487-.486-.973-2.432-.973-2.919-1.46-.486-.486-1.46-.973-2.433-.486-.973.486-1.946-.487-2.433-1.46-.486-.973-1.946-1.946-1.46-3.405.487-1.46 0-1.947.487-2.433.487-.487-2.433-.973-2.92-.487-.486.487-1.946.487-3.405.973-1.46.487-1.947-.486-2.92.487-.973.973-1.946 2.433-2.92 1.946-.973-.486-2.432-.973-1.946-1.46.487-.486 1.46-.973.973-2.432-.486-1.46-.973-1.946-1.46-1.946-.486 0-2.432-.973-2.432-.973s0-1.947-1.46-1.46c-1.46.487-.487.973-1.946 1.46-1.46.486-4.38.486-5.353 0-.973-.487-3.406.973-5.352 1.46-1.946.486-4.38-1.46-4.866-.487-.487.973-2.433.486-3.406 0-.973-.487-1.46 1.46-2.92 1.946s-1.46-.973-1.46-.973 0-.973-.486-1.946-.973-2.433.487-2.92c1.46-.486.973-2.919.973-3.892v-2.92c0-.972-.487-2.918-1.946-4.864-1.46-1.947-1.947-1.947-2.92-3.406-.973-1.46-1.46-2.433-1.46-5.352 0-2.92-.486-3.892 0-5.838.487-1.947.487-4.866.973-6.325.487-1.46-.973-5.352-1.946-8.272-.973-2.919.973-4.378.973-5.351 0-.973-.973-4.38-.973-4.38H118.97l-.487-2.432s1.46-.486 1.46-1.46v-.973l-.487-.973h-3.406s0 1.946-.973 1.946h-10.218s-1.46 1.947-.973 2.92c.486.973 0 .973.486 2.432.487 1.46.487 1.46-.486 1.947-.974.486-2.92 0-1.947 1.46.973 1.459 0 1.945 0 2.918 0 .973-.486 1.946-.486 2.433 0 .487-7.3.487-7.3.487s-.486-.974-1.459-1.46c-.973-.487-1.946-.973-2.433 0l-.486.973h-3.893s-1.946 0-1.946.487c0 .486-.487 1.946-.974 1.46-.486-.487-1.46-1.947-2.432-1.46-.974.486-2.433.486-2.433.486l-1.947.487s-2.433-4.866-3.406-5.352c-.973-.487-1.46-2.92-2.433-3.893-.973-.973-3.406-2.432-2.92-2.919.487-.486.487-2.919.487-3.406 0-.486-1.946-4.378-2.433-4.378-.486 0-2.432-2.433-1.46-3.406.974-.973 0-2.92.487-3.406.487-.486-1.46-1.946-1.46-2.919 0-.973-.973-2.433-3.406-2.433z"/>
        <g stroke="#FFF" stroke-linejoin="round">
            <path d="M41.243 141.214c.974 1.462.487 0 1.948 1.462 1.46 1.462 1.46.975 1.947 0 .486-.975 1.947-.488 2.434-.488.486 0 .973-.974 1.46 0 .487.975 1.46 1.95 1.46 2.438 0 .487 0 .487-.973 1.95-.974 1.462-.974 1.462 0 1.95.973.487 2.434 1.461 2.434.487 0-.975-1.46-1.463 0-.975 1.46.487 2.434 1.462 2.92.975.487-.488 2.921-.488 2.921-.488s.487 1.462 0 2.925c-.487 1.462 0 2.924-.487 3.9-.487.974-.973 2.436-.487 2.924.487.487-1.46 2.924-1.46 2.924"/>
            <path d="M52.44 133.902c.973.487.486-.975 2.92 0s3.408.487 3.894 1.462c.487.975 3.408 1.95 2.921 3.412-.487 1.463-1.46 1.463-1.947 2.438-.487.974-2.434 3.412-2.434 3.412l-.487 1.462.487 2.437M109.88 177.771c.487-1.462.974-2.924 0-3.412-.974-.487-1.947-1.462-2.434-2.437-.487-.975.487-1.462 0-2.437-.487-.975-.974-1.95-.974-2.925 0-.975.974-2.437.974-2.437s.487-.975 1.947-1.462c1.46-.488 1.46.487 2.434-1.463.974-1.95 1.46-2.437 1.46-3.412 0-.974-.973-2.437 0-3.9.974-1.461.974-1.461.487-2.924-.487-1.462-1.947-1.462-1.947-4.874s-.973-2.437 0-3.412c.974-.975 0-2.437 0-3.412 0-.975.974-.488 2.434 0 1.46.487 1.947 0 2.434-.488.487-.487 1.46-.974 2.434-1.462.973-.487.973.488 1.46-1.95.487-2.437.487-3.9 0-5.361-.487-1.463-.973-1.95-.487-3.413.487-1.462.974-4.386 1.948-6.336.973-1.95.486-1.95 1.46-2.925.973-.975 0-2.437.973-2.924.974-.488.487-2.438 2.434-1.95 1.948.487 4.381.487 4.868 0 .487-.488-.487-3.412.974-1.95 1.46 1.462.973 1.95 2.92 2.437 1.948.488 3.408-1.462 3.408 0 0 1.463.487 3.412 1.947 4.387 1.46.975 1.947 1.462 1.46 2.437-.486.975-.973 3.412-1.46 3.9-.487.487-.973 2.437-1.46 2.924-.487.488-1.46 1.463 0 2.438 1.46.975 1.947.975 2.434 1.95.486.974 1.46 1.95.486 1.95-.973 0-3.407 0-2.433.487.973.487 2.92 2.924 2.92 1.95 0-.976.974-1.95 1.46-.976.487.975 1.948 2.925 1.948 2.925s0 .975-1.46 2.437c-1.46 1.463-2.921.488-2.921 2.437 0 1.95 0 1.95-.487 3.413-.487 1.462-.974.974-1.46 2.437-.487 1.462.486 1.95-.974 2.437-1.46.487-1.947 0-2.434 1.95-.487 1.95-2.434 7.799-.973 12.186 1.46 4.386 1.947 12.673.973 17.06"/>
            <path d="M60.715 104.168c1.46.488 2.434.975 2.434.975l2.92.488s.487 0 0-.975c-.486-.975-.486-1.95-.486-1.95h3.894s1.46-1.95 3.407-2.925c1.947-.974 2.921-.487 4.381-1.462 1.46-.975 3.408 0 4.868-1.95 1.46-1.95 2.434-2.924 2.434-2.924s1.947-.488 2.92 0c.974.487.488 1.462 2.435 1.462s2.92-.487 3.894-.487c.974 0 2.434.487 1.46-.975-.973-1.463-2.433-1.95-1.46-2.925.974-.975 1.46-.975 1.947-1.462.487-.488.974-1.463.974-1.463s.973 1.463 1.46 2.925c.487 1.462-.487.975 1.46 2.925 1.948 1.95 2.434 4.387 3.408 5.849.974 1.462.974 2.925 1.46 3.412.487.487 1.46.487 1.947-.487.487-.975 0-1.95 1.46-.488 1.461 1.462 0 1.462 1.461 2.437 1.46.975 1.46 1.463 3.408 1.463 1.947 0 2.434 1.462 3.407.975.974-.488 1.46.487 2.434 0 .974-.488.487-.975 1.947 0 1.46.974 3.408 1.462 3.894 2.924.487 1.462.78 3.656.78 3.656M137.627 186.545c1.46 1.95 2.434 1.463 4.38 2.437 1.948.975 2.435.488 4.382 0 1.947-.487 1.46-1.95 2.434-.487.973 1.462.486 0 1.947.975 1.46.975 1.46.975 2.92.487 1.46-.487 2.434-.487 2.434-.487s-.486-.975 0-2.925c.487-1.95.487-2.437.487-3.412 0-.975-.487-1.462 0-2.924.487-1.463-.487-1.95 0-2.925.487-.975.974-1.462-.487-1.95-1.46-.487-1.947-.975-2.433-1.95-.487-.974-.974-2.924 0-3.9.973-.974.973.488.973-.974s.487-.975 0-2.437c-.487-1.462-1.947-3.9-1.46-4.875.487-.974.487-2.437 2.434-1.95 1.947.488 1.947.488 3.407 0 1.46-.487 1.947.976 2.92 0 .974-.974 1.461-1.949 1.948-1.949.487 0 .487-1.462.487-1.462s-.487-2.438-1.46-2.438c-.974 0-1.948-.487-2.434-.974-.487-.488-.974.487-1.948 0-.973-.488-1.947-.975-2.434-1.463-.486-.487-2.433-1.462-2.433-2.437 0-.975-1.948-1.462.486-2.437 2.434-.975 2.434-2.437 1.947-2.925-.486-.487-.486-1.462-1.46-1.462-.973 0-1.46.487-2.92-.487-1.461-.975-.974-.975-2.435-2.438-1.46-1.462-2.92-1.462-2.92-1.462"/>
            <path d="M154.664 168.51c2.434.487 2.92.975 3.894 2.437.974 1.463 0 3.412 3.408 3.412 3.407 0 3.407-.487 5.354-1.462 1.948-.975 1.46 0 2.434-2.437.974-2.437 1.948-2.437 1.948-4.875 0-2.437.973-4.874-.974-6.336-1.947-1.463-1.947-1.95-4.381-1.95H164.4M247.153 197.756c-.973-.975-2.92-.975-3.894-2.437-.974-1.462-1.46-1.462-1.46-2.925 0-1.462 1.46-2.924-.487-1.95-1.947.976-2.434 1.463-3.895.976-1.46-.488-2.434-.975-2.434-1.463 0-.487-.973-2.437-1.947-1.95-.973.488-1.947-.487-1.947.975 0 1.463.487 2.925-.973 3.9-1.46.975-2.434 1.462-3.408.975-.973-.488-2.92-1.95-3.407-2.925-.487-.975-3.408-1.95-4.868-1.95-1.46 0-.974-.487-2.92-.974-1.948-.488-3.408-.488-3.408-.488s0-.975-1.46-1.95c-1.461-.975-2.435-.487-1.948-2.437.487-1.95.487-2.924-1.46-4.387-1.947-1.462-2.434-.487-3.408-1.95-.973-1.462-4.38-5.849-3.894-7.311.487-1.462.974-1.462 0-2.437-.974-.975-.974 0-.974 0s-1.46.487-2.433.487c-.974 0-.974-.487-1.948-.975-.973-.487-.973-.487-1.947 0-.973.488-.487 1.463-2.434 1.463s-1.947-.975-2.92 0c-.974.974-.974.487 0 1.462.973.975 1.947 1.462 2.434 1.462.486 0-.974-.487-.974.975s-1.46 2.437-1.46 2.437-1.46-2.437-2.921-1.95c-1.46.488-2.434-.974-2.92.488-.488 1.462-1.461 1.95-2.435 2.437-.973.488-1.46 0-1.947.975-.487.975-.973-.487-1.46.975s-.487 1.462-1.46.975c-.974-.488-1.948 0-2.434-.975-.487-.975 1.46-.488 0-.975s-1.46-.487-1.948.975c-.486 1.462 1.948-.488 0 1.462-1.947 1.95-2.434 1.95-1.947 3.412.487 1.463.487 1.463 0 2.925-.487 1.462 0 3.412 0 3.9 0 .487-1.46.974-2.434 1.462-.973.487.487 0-1.947 0s-1.46.975-3.407.487c-1.947-.487-2.921.488-3.408 0-.487-.487-.487-1.462-.487-1.462M244.72 148.525h-61.336s-.973-1.95-1.46-2.437c-.487-.487-1.46-1.95-1.46-1.95s-.487-.975.486-1.95c.974-.974.487-.974.974-2.437.487-1.462 1.46-1.462.487-2.437-.974-.975 1.46 0-.487-1.95s.487-.487-1.46-1.95c-1.947-1.462-2.921.975-1.947-1.462.973-2.437.973-2.924.973-2.924s-.487-.975 0-2.438c.487-1.462-.487-.974.487-1.462.973-.487 0-1.462.973-1.462.974 0 1.948-.975 1.948-2.437 0-1.463-.487-1.95 0-2.438.486-.487 0 1.95.486 0l.487-1.95s-.487-1.462-.487-2.436v-1.95h-5.354s-.974-4.875-2.434-5.362c-1.46-.487-1.46-1.95-1.46-1.95h5.354s1.46-.487 2.92 0c1.461.488-.973 2.437 1.948 1.95 2.92-.487 3.894 0 3.894-.975s-.973-2.925 1.46-2.437c2.434.487 2.921.487 3.408 0 .487-.488.487 0 .487 0l.973-6.337s.974 1.95 1.948.975c.973-.975.973-.487 1.46-1.95.487-1.462 1.46-1.95.973-3.412-.486-1.462.487-2.437.974-2.924.487-.488 1.46-1.95.974-3.412-.487-1.463.973-2.438.973-2.438s.487-1.462-.487-1.95c-.973-.487-2.92-2.437-2.92-2.437s0-1.462.486-1.462c.487 0 2.434 1.462 2.921 1.95.487.487-.487 2.437 1.46 1.95 1.948-.488 2.434-.975 2.921-.975.487 0 1.947-.975 2.434-.975.487 0 1.947-.488 2.434.487.487.975 1.947 1.463 2.434 1.95.487.488 1.947.488 2.434.975.487.487 1.46.487 1.46.487 1.947 0 3.408 0 3.895.488.486.487 1.46 1.95 1.46 1.95s.487 2.437-.974 2.924c-1.46.488-2.434 1.463-3.407.975-.974-.487 0-1.462-.974-.487-.973.975-1.947 0-2.434.975-.486.974.487 2.437.487 2.437l-1.46.487s1.947 3.412 3.407 4.875c1.46 1.462.974 2.924 2.434 3.412 1.46.487.974 2.437 1.46 2.924l.487.488s.487-.975 1.46 0c.974.975 2.921.487 3.895.487.974 0 2.434.488 2.434-.487s-.974-2.925.487-2.438c1.46.488 2.434 1.95 3.407 1.463.974-.488 0-.975.974-1.463.973-.487 1.947.488 2.434-.974.486-1.463 2.92-.488 2.92-.488l2.434.488"/>
            <path d="M236.93 148.525s-1.46-2.924-2.433-4.387c-.974-1.462-1.46-2.437-1.947-3.412-.487-.975-.974-1.462-1.948-2.437-.973-.975-1.46-2.437-2.92-1.95-1.46.488.487 2.437-1.46.975-1.948-1.462-2.921-1.462-3.408-1.95-.487-.487-3.894-1.462-4.868-1.462-.974 0-1.46.975-2.434 0-.973-.975-2.434-1.95-2.92-2.437-.487-.488.486-3.412 0-4.387-.487-.975.486.487 0-.975-.487-1.462.486.975 0-1.462-.487-2.437.486-1.463 0-2.437-.487-.975 0-1.463-.974-2.925-.974-1.462-2.434-1.462-2.434-2.925 0-1.462.973-2.437 0-3.412-.974-.975 0-5.362 0-5.362s.973.488 2.434.975c1.46.488 2.92 0 3.407 0 .487 0 1.46-.975 1.947-1.95.487-.974 4.868-.974 4.868-.974M146.876 17.892c1.947 1.95 1.46 1.462 2.92 1.95 1.46.487.974 1.95.974 1.95s3.407.487 4.38 0c.974-.488 1.948 0 1.948 0s1.46 0 2.92.487c1.461.487.488.975 0 1.95-.486.975-.486 1.462-1.46.975-.973-.488-.486-1.95-1.947-.975-1.46.975-1.46 2.437-2.92 2.437s0-.488-1.46 0c-1.461.487-.974.487-2.435.975-1.46.487-1.947.975-.487 1.95 1.46.974.974-.975 1.46.974.488 1.95-.973 4.387.488 3.412 1.46-.974 1.46-1.462 2.434-1.95.973-.487 1.46.488 1.46.488s-1.46 2.437-1.46 3.9c0 1.462-1.948 2.437 0 3.412 1.947.975 2.433 1.95 3.407 1.462.974-.487 1.46-.487 2.92.487 1.461.975 1.948.975 2.435 1.95.486.975.973 2.437.973 2.437s5.355 2.438 10.71 1.95c5.354-.487 12.17-.487 17.037 0 4.868.488 18.984 2.437 22.392 4.387 3.407 1.95 6.328 1.95 6.328 3.412s-.973 2.437.974 2.925c1.947.487.487 1.95 1.46 2.437.974.487 2.92 0 2.92 1.462s-1.946.975-1.46 2.437c.487 1.463.974 1.463.487 2.438-.487.974-4.38.487-2.92 1.462s1.46.975 2.92 1.462c1.46.488.974 1.95 1.947 2.437.974.488 1.46.975.974 2.925-.487 1.95 0 1.95-.487 3.412s-.487 1.462-1.947 2.925c-1.46 1.462-3.407 2.437-3.407 2.437"/>
            <path d="M203.343 4.244c.973 1.462 1.947.975 1.46 3.412-.487 2.437-.487 3.9 0 6.336.487 2.438.487 2.925 1.46 4.387.974 1.463 1.46 1.95 1.947 3.9.487 1.95-.973 1.95.487 3.412s2.434 3.412 1.46 6.337c-.973 2.924.974 2.924.487 7.311-.487 4.387 0 6.824.974 8.774.973 1.95 1.947 4.387 1.947 4.387M253.481 65.173c-1.46-.487-.973-.975-1.46-1.462s-.487-.975-1.46 0c-.974.975-.974-.487-1.948.487-.973.975.487.975-.973.975s-3.408-.975-2.92 0c.486.975.486.488.973 1.95s.487 1.95-.487 1.462c-.974-.487-.487-1.95-2.434-.974-1.947.974-.487 0-4.868.487-4.38.487-4.38 1.462-5.841 0-1.46-1.462 0-2.925-2.434-1.95-2.434.975-5.355 1.463-5.355 1.463M261.757 25.204c-.487.487-1.46-.488-2.434 2.924-.974 3.412-.974 4.875-1.947 7.312-.974 2.437-2.921 2.437-2.434 4.874.486 2.437-.487 5.85-1.46 7.312-.974 1.462-2.921 2.437-3.895 1.95-.974-.488-1.46-1.463-1.46-1.95 0-.488 0-2.438-1.46-1.95-1.461.487-.487 2.437-2.921 1.95-2.434-.488-4.381-2.438-4.868-.488-.487 1.95 0 3.412-1.947 2.437-1.948-.974-2.434 0-3.408.488-.973.487-.973.487-2.434.975-1.46.487-.973 1.462-2.434 2.924-1.46 1.463-1.46 2.437-2.92 1.463-1.46-.975-4.381-2.925-3.895-.975.487 1.95 2.921 1.462.974 2.924-1.947 1.463-3.164 0-3.164 0M163.426 46.163c-1.947-.487-2.434-1.462-4.38-.975-1.948.488-.488-.974-1.948.488s-1.947 1.95-2.434 1.462c-.487-.487-.487-1.95-1.46-.975-.974.975-1.947 1.95-2.434 1.95-.487 0-1.46-.487-1.947-.975-.487-.487.486-2.437-.487-.487-.974 1.95-.487 1.95-.974 2.437-.486.487 0 0-.486 1.95-.487 1.95.973 0-.487 1.462s-2.92 1.462-2.434 2.437c.487.975.973 0 2.434.975 1.46.975.973.487 1.947 1.95.973 1.462 3.407 2.924 2.92 4.387-.486 1.462 0 3.412.487 3.9.487.487 0 2.436.974 2.924.974.487.487 1.462 1.947 3.412s2.434 3.412 2.92 4.387c.488.975 2.435 1.462 1.948 2.924-.487 1.463.487 1.463-1.46 1.463-1.948 0-.487-.975-1.948 0a17.574 17.574 0 0 0-2.433 1.95s1.46-.975 2.92 0c1.46.974 1.46.487 2.92.487 1.461 0 2.435.487 2.922 1.462.486.975-.487 2.437-1.46 2.437-.974 0-1.948-.487-1.461.975.487 1.463 2.434 1.95 3.894 3.412 1.46 1.463 1.947 2.438 3.894 3.412 1.948.975 2.434 1.463 4.382 1.95 1.947.488 2.433 1.95 2.433 2.925v5.362"/>
            <path d="M174.135 102.365c-3.894-.098-7.788-1.56-8.762-.098-.973 1.463.487 3.412-.973 3.412s-.487.488-1.947.488-1.947-.975-3.408 0c-1.46.975-2.92.975-2.92.487 0-.487.486-3.412-.974-2.437-1.46.975-1.947.975-1.947.975s-1.947-1.462-3.408-1.95c-1.46-.487-2.434-.975-2.434.488 0 1.462.487 1.95-.973 1.462-1.46-.487-3.895-.975-3.895-.975s-1.46.488 0 2.925 1.948 4.387 1.46 4.874c-.486.488-1.46 3.412-1.46.975s-1.46-3.412-1.46-2.925c0 .488-.973 0-1.46 1.463l-.487 1.462"/>
        </g>
    </g>
</svg>
