<svg xmlns="http://www.w3.org/2000/svg" width="283" height="219" viewBox="0 0 283 219">
    <g fill="none" fill-rule="evenodd">
        <path fill="#1F6CC6" d="M282.759 131.93l-56.02 59.333s-14.489-.965-15.938-.965c-1.449 0-7.244.965-7.244.965s-6.278.965-7.244 1.93c-.966.964-7.244 4.341-7.244 4.341s-2.415 5.306-3.38 5.789c-.966.482-2.415 0-7.244.482-4.83.482-6.762.965-6.762.965l-2.897 4.341s-3.864-.482-7.244-.482-4.83 1.447-6.278.965c-1.45-.483-2.898-2.412-3.864-3.377-.966-.965-3.863-3.377-3.863-3.377l-17.869 7.236s-1.449 4.341-2.898 5.789c-1.448 1.447-3.38 2.894-3.38 2.894s-2.415-.965-4.83-1.447c-2.414-.483-.965-1.447-3.863-.965-2.898.482-4.83.482-5.795 0-.966-.482-4.347-1.93-4.347-1.93s-3.38.965-4.829.965c-1.449 0-5.795-2.412-5.795-2.412s-14.005-9.165-15.454-10.13c-1.449-.964-3.38-4.341-6.278-3.859-2.898.483-11.108.965-11.108.965l-4.83-2.412s0-1.447-.482-2.412c-.483-.965-2.898-3.376-2.898-4.824 0-1.447.483-4.341.483-5.788s-.483-1.447-2.897-2.412c-2.415-.965-4.83-.482-4.83-.482l-1.931-.483-2.415-3.859s-2.415-6.753-3.38-9.165c-.966-2.412-1.45-2.894-2.415-5.306-.966-2.412-.966-4.342-1.45-5.306-.482-.965-2.897-.965-3.38-1.447-.483-.483-1.448-3.377-1.448-3.377s-2.415-.482-3.864-1.447c-1.449-.965-2.898-4.342-2.898-4.342l-1.448-1.447-.483-1.93s-3.864-4.34-5.313-4.823c-1.448-.482-3.863-.482-3.863-.482s1.449-2.412-.966-1.448c-2.415.965-3.38.483-3.38.483s-.483-.965-2.898-1.447c-2.415-.483-4.346 0-3.38-1.93.965-1.93 2.414-3.377 2.897-3.859.483-.482 1.932 0 1.449-.965-.483-.964-.966-3.376-.483-4.341.483-.965 1.449-1.447 2.415-1.447h3.38c1.449 0 3.38.482 3.864.965.483.482.965.964 1.931.482.966-.482 3.38.482 3.864-.965.483-1.447 2.897-1.93 2.414-3.376-.482-1.448.483-10.613 0-13.025-.482-2.412-.965-5.788.483-8.683 1.45-2.894 2.415-4.823 2.898-6.753.483-1.93.966-3.859.483-5.306s-.966-6.27 1.932-7.718c2.897-1.447 3.38-3.377 4.83-.965 1.448 2.412.965 2.894 2.414 1.447l1.449-1.447 1.448-.482-1.448-2.412 1.448-2.894s.483-.965 0-2.412-.483-1.93.483-3.377c.966-1.447 1.45-1.447 1.45-2.894s-.967-4.342.482-5.306c1.449-.965 3.38-.965 3.864-1.93.482-.965 4.346-9.165 5.312-10.612.966-1.447 2.414-2.412 2.897-2.894.483-.483 4.347-.965 5.313-.965.966 0 1.931 0 1.931-.483 0-.482-.483-2.412 0-4.341.483-1.93 1.45-7.236 2.415-9.165.966-1.93 3.38-3.377 3.38-5.789v-4.341c0-.965.967-3.377 1.45-4.342.482-.964 2.414-2.411 2.414-2.411s3.864-.483 4.83 0c.965.482 2.897 1.447 3.38.482.483-.965.966-3.86 1.932-3.377.966.483 3.863 0 3.863.965s.483 2.412 1.932 3.859l1.449 1.447 5.312-12.542.966-1.447 1.449.965 2.414 1.447s3.381.482 3.381.965c0 .482 1.449 4.341 2.415 4.824.966.482 2.414 0 3.38 0 .966 0 3.864-.965 5.312-1.448 1.45-.482 1.932-.482 2.415-1.447.483-.964.483-2.894 1.449-1.447.966 1.447 1.932 2.894 2.415 3.377.483.482.966 0 2.897 0 1.932 0 3.38-2.412 4.83-1.447 1.448.964 3.863 1.447 3.863 1.447l2.898.965s2.414-1.448 4.83 0c2.414 1.447 4.828 3.859 4.828 3.859s3.38.482 5.313 1.447c1.931.965 3.38 3.376 4.829 5.306 1.449 1.93 2.415 3.377 3.38 4.824.966 1.447 2.898 2.412 5.796 4.341 2.897 1.93 3.863 2.894 5.312 4.824 1.449 1.93 1.449 5.788 3.38 6.27 1.932.483 3.864 2.413 4.347 2.895.483.483 3.38 4.824 3.38 4.824s-1.448 2.412-2.414 3.859c-.966 1.447-3.864 5.789-4.346 6.753-.483.965-3.381 1.447-3.864 3.377-.483 1.93-.483 6.753-.483 6.753v7.236s2.898 1.447 4.347.965c1.448-.483 3.863-1.447 5.795-1.447 1.931 0 .483.482 3.863-.483s3.864-.482 4.83 0c.965.483 1.931 1.447 1.931 1.447s-1.448 2.895-1.931 3.377c-.483.482-.966.482-.966 1.447 0 .965-.966 1.447-.966 1.447s-.483 1.447.966 3.377c1.449 1.93.483 2.894 1.931 4.341 1.45 1.447 2.898 1.93 3.864 4.342.966 2.412 3.863 2.412 3.863 3.859s.966 4.341 1.932 4.824c.966.482 2.415 3.376 2.415 3.376l4.346 1.93s4.83 6.27 10.625 7.718c5.795 1.447 51.19 16.883 51.19 16.883l17.87-.482z"/>
        <g stroke="#FFF" stroke-linejoin="round">
            <path d="M116.067 215.759c1.924-.965 2.887.965 4.33-1.93 1.444-2.896 2.887-3.861 2.887-5.792 0-1.93-.481-1.93.481-3.86.963-1.931 1.925-5.31 2.887-6.274.962-.966.481-2.896 1.444-4.826.962-1.93 1.924-7.24 2.887-8.687.962-1.448 2.887-2.896 2.887-2.896s1.924 1.448 4.33.483 4.33-.965 4.33-.965 2.406-1.448 3.85-2.896c1.443-1.448 3.368-1.93 3.368-1.93s-.481-2.896-.481-3.861v-6.757c0-2.413-.963-1.93 0-3.86.962-1.93 0-1.93 1.924-3.379 1.925-1.447 1.444-1.93 3.368-.965 1.925.965 2.887 1.93 4.812 2.413 1.925.483 2.406 2.413 3.368 2.413.962 0 2.887-1.448 3.85-2.413.962-.965 2.405.483 2.886-.482.482-.966 1.444-2.896 1.925-4.826.481-1.93 1.925-3.861 1.925-3.861s1.443-3.86.962-4.343c-.481-.483-1.925-.966-4.33-2.413-2.406-1.448-2.406-1.448-1.925-2.896.481-1.448.962-3.86.962-5.791 0-1.93-.481-4.826 0-5.791.481-.966.481-.966 1.444-3.861.962-2.896.962-3.378 2.887-4.344 1.924-.965 1.443-.482 3.368.483 1.924.965 2.406-.483 3.368 1.448.962 1.93 1.925 5.308 2.406 5.308.48 0 .48-.482 1.924-2.413 1.444-1.93 3.368-1.447 2.887-1.93-.48-.483.963-2.896 0-3.86-.962-.966-1.443-2.414-.962-3.379.481-.965-3.85-4.343-4.33-6.274-.482-1.93-2.406-5.308-3.369-7.239-.962-1.93-1.924-4.826-2.405-4.343l-3.85 3.86s-2.405.483-3.368.483c-.962 0-3.368.483-4.33.483-.963 0-1.925-1.448-2.887-.965-.963.482-1.925 1.447-3.368.965-1.444-.483-2.406-.965-3.368 0-.963.965-1.925 2.895-3.369 2.895-1.443 0-3.849.966-3.368 0l.482-.965c.48-.965-.482-1.448-1.444-1.448s-2.887.966-1.925-.965c.963-1.93.963-4.826 3.369-6.274 2.405-1.447 3.368-.965 2.886-2.413-.48-1.447 0-3.86 0-5.79 0-1.931 1.444-5.31 1.444-6.757 0-1.448.962-2.896 1.925-3.86.962-.966 1.443-2.896 1.443-2.896l9.623-.483M132.426 8.241c0 .965-.481 1.448-1.443 1.448-.963 0-1.925-.965-2.887-.483-.963.483-1.925 0-.963 1.448.963 1.448 0 .965.481 2.413.482 1.448.482.965.963 2.896l.962 3.86s.962 3.379 0 4.344c-.962.965-.481-1.93-.962.965-.481 2.896-1.444 1.93-.963 4.344.482 2.413.482 1.447.963 3.378.481 1.93-1.444 2.413-.481 3.86.962 1.448 1.443 1.931 1.924 2.896.481.965 0 1.93-.48 3.861-.482 1.93 0 2.896-.482 4.343-.481 1.448.962.966-.481 1.448-1.444.483-1.925-.482-2.406 0-.481.483-2.406.965-2.406.965s0-1.447-.962-1.447-1.925-.483-2.406 0c-.481.482-1.925 0-1.925 0l-1.443-4.344c-.481-1.448 0-1.93.481-2.895.481-.966 2.406-2.413 1.444-3.379-.963-.965-.963-2.413-.963-2.413h-3.368c-1.443 0-.962-1.447-.962-1.93 0-.483-.962-.965-2.406-2.896-1.443-1.93-3.368-1.447-3.368-2.895s1.443-1.448 0-1.448c-1.444 0-3.85.483-3.85.483l-.48-2.413-1.925 1.447s-1.444-.482-2.406-.482c-.962 0-1.925-.483-2.406.482-.48.966-1.443.483-1.443.483s-3.368-1.93-4.33-1.448c-.963.483-.963 1.448-2.406 2.413-1.444.965-2.406 1.448-3.85 1.448-1.443 0-2.887.483-3.368-.483-.481-.965-1.443-.965-2.887-.482-1.443.482-1.443 1.448-2.406.965-.962-.483-3.849-1.448-4.811-2.413-.962-.965-.962-1.93-1.925-1.93-.962 0-2.887-.966-2.887-2.413 0-1.448-.962-4.826-.962-4.826"/>
            <path d="M43.412 56.501c.48 1.93 1.924 4.826 4.811 2.896 2.887-1.93 3.85-1.93 3.85-2.896 0-.965-.482-2.413 1.443-1.93 1.925.482 2.406 0 3.368.965.962.965 2.406 2.896 2.406 2.896s.481 2.413.962 2.895c.481.483 1.925-.965 1.925-.965l1.443-1.448s0 2.413.963 3.378c.962.966.962 2.413.962 2.413s-.481 1.448 0 1.93l1.925 1.931s-.963.483-.963 1.93v1.448c0 1.93 0 2.896-.962 3.379-.962.482-1.925 1.447-1.925 2.412 0 .966-1.924.483 0 .966 1.925.482 1.444 0 .963 1.93-.482 1.93-.482 3.378.48 3.86.963.483 2.407-.964 2.407 0 0 .966 1.443 2.414 2.887 2.414 1.443 0 1.924-.965 2.886 0 .963.965 4.33 1.448 4.33 1.448l1.926.482s-.482 1.448.962 2.413c1.443.965 1.925 1.93 1.925 1.93s.962-1.447 1.924-.482c.962.965.962.965 2.406 1.93 1.443.966 2.406 3.861 4.812 2.413 2.405-1.447 3.849-1.447 4.811-2.895.962-1.448.481-.965 2.406-1.93 1.925-.966-.481-.966 1.925-.966 2.405 0 1.924-.482 2.405-1.448l.963-1.93 1.443-1.448 4.33.483h1.444l-.481 3.378-1.444 2.413s-1.924-.483-1.443 0c.481.483 2.406 1.448 2.406 2.413 0 .965-.963 3.378.962 3.86 1.925.483 4.812 1.449 5.293 1.449.481 0 1.443.482 2.406 1.93.962 1.448 2.887 2.413 2.887 2.413s1.924 0 .962.965-2.406 1.448-2.406 1.448-2.887-1.448-1.925 0c.963 1.448 1.444.483 1.925 2.413.481 1.93-.481 1.448-.962 3.86-.481 2.414-.481 5.792.962 4.344 1.444-1.448 2.887-.965 2.887-.965s2.887 1.448 3.85-.483c.962-1.93 1.924-.965 1.443-2.895-.481-1.93-.481-3.378 0-3.378s1.924.482 2.406.965c.48.482.962 0 1.924 1.448.963 1.447-.962 3.378.481 3.378 1.444 0 1.444-1.93 2.406-2.896.963-.965.963 0 1.925-1.93.962-1.93 1.924-2.896 2.406-3.378.48-.483.962-2.896 2.887-2.413 1.924.482 2.983-.87 2.983-.87"/>
            <path d="M128.577 49.262c0 1.448-1.925.965 0 3.378 1.924 2.413.962.966 1.443 3.379.481 2.413-.962 1.93.963 4.343 1.924 2.413.48-.483 1.924 2.413s-.48 4.343 1.444 5.791c1.924 1.448 2.406 2.896 1.924 3.86-.48.966-.962 2.414-.48 3.38.48.964 0 .964-.482 1.93-.481.965 0 2.412 0 2.412s-.481 1.93 0 3.861c.481 1.93.481 4.344 0 5.791-.481 1.448.962 1.448-.481 1.448-1.444 0-3.85.483-2.406 1.448s1.444.483 1.444 1.93c0 1.448-.963 1.448-.963 2.413 0 .966 1.925 2.413-.48 1.93-2.407-.482-2.407-1.447-2.407-.482 0 .965.963 1.448.963 2.413 0 .965 0 1.93-.482 2.896-.48.965-2.887 1.448-1.924 1.93.962.483 2.406.483 1.924 1.448-.48.965 0 1.448-1.924 2.896M22.722 109.104c1.443 0 2.887 1.448 3.849 0 .962-1.447 1.443-2.895 1.443-4.826 0-1.93-1.443-4.343.482-3.86 1.924.482 1.924 0 3.368.965 1.443.965 3.368-.965 3.368-1.93 0-.966 1.925-4.344 1.443-4.827-.48-.482-.48-.965.963-.965s1.443.483 2.405.965c.963.483-.48 0 2.406.483 2.887.483 3.85.965 4.812 2.896.962 1.93 1.925 1.93 3.368 3.86 1.443 1.93 2.406 0 2.887 1.93.481 1.931-.962 1.449.481 1.931 1.444.483 2.406 0 2.887 1.448.481 1.448 2.406 1.448 2.406 2.413 0 .965.962 0 1.924-1.93.963-1.93 1.925-2.413 1.444-4.344-.481-1.93-1.925-.482-2.406-2.895-.481-2.413-.481-1.448-.481-4.344 0-2.895-1.925-2.413 0-2.895 1.925-.483 5.774-3.379 6.736-4.826.963-1.448.963 1.447 2.887.482 1.925-.965 4.33 0 4.33 0s1.925 1.448 3.85-.482M176.212 98.97c-2.406-.965-.482-2.896-2.406-.965-1.925 1.93 0 2.413-1.925 1.93-1.924-.483-2.406 1.448-3.368.483-.962-.966-1.925-.966-2.406 0-.48.965-1.443 3.378-1.443 3.378M171.4 108.622c.962 0 .962.965 2.406.482 1.443-.482 1.443.483 1.443-.482v-1.93c0-1.448 0-1.931-1.443-1.448-1.444.482-1.444-.966-1.444.482s-.962 2.896-.962 2.896zM22.722 148.195c1.443 0-.963 1.448 2.406 1.448 3.368 0 3.368-.483 4.811 0 1.444.482.962 2.413 3.368.965 2.406-1.448.963-.483 4.33-.965 3.369-.483-.48 0 3.369-.483 3.85-.483 4.33-.965 4.33-3.378 0-2.413.481-2.896-.962-3.378-1.444-.483-.481-2.413-.962-3.378-.482-.966.962-.483 1.443-1.93.481-1.449-.481-3.38 1.925-2.896 2.406.482.48-.483 2.406.482 1.924.965 2.405.483 3.368 0 .962-.482 2.405 0 .962-1.93-1.444-1.93.481-2.413 1.443-1.93.963.482 1.444 1.93.963 2.895-.481.965 0 2.896.962 2.896s0 .965 1.444 2.413c1.443 1.447 3.368 1.447 5.292 2.895 1.925 1.448 3.85.965 6.255 1.93 2.406.966 2.406 3.861 4.33 3.379 1.925-.483 2.888-.483 4.812-.965 1.925-.483.963-.483 2.887-1.93 1.925-1.449 2.887-2.414 2.406-4.344-.481-1.93-.481-1.93-.481-3.378 0-1.448.962-2.413.481-3.379-.481-.965.962-2.413 1.444-1.447.48.965 2.887 1.93 2.405.482-.48-1.448-.962-3.378-.962-4.343 0-.965-2.406-.965-1.925-1.93.482-.966.963-2.896 1.925-1.931.962.965 1.925 1.93 5.293 1.448 3.368-.483 4.811-.483 6.255-.965 1.443-.483 1.925.965 1.925.965s2.405 2.895 2.887.965c.48-1.93-1.444-3.378.962-2.896 2.406.483 1.443-2.895 2.406.483.962 3.378.48 4.343.962 5.309.481.965-.962-1.93-1.925-1.93-.962 0 .963 1.447.963 2.895s0 2.413-1.444 3.86c-1.443 1.448-2.887 1.93-2.406 3.379.482 1.448 1.444 3.378 0 3.86-1.443.483-1.924.966-2.405 2.414-.482 1.447-3.85 3.378-3.85 3.378s-2.887 3.378.481 2.895c3.369-.482 1.444-.965 3.369-1.448 1.924-.482 3.849.483 4.33.483.481 0 2.406 0 2.406 2.413s-1.925 2.896.481 3.86c2.406.966 1.925 1.931 4.33 2.414 2.406.482 3.369 1.93 3.85 2.895.48.966 0 2.896 0 4.344 0 1.448.48.482 0 1.448-.481.965-1.925.482-2.887-.483-.963-.965-.481-3.378-2.887-3.378s-4.812-1.93-5.774-.965c-.962.965-1.444.482-1.444 2.895 0 2.413 0 2.413-.962 3.378-.962.966-.962 2.413-.962 2.413s1.924 1.93 0 1.448c-1.925-.482-4.33-.965-4.33-2.895 0-1.93.962-.966 1.443-2.413.48-1.448-2.406-2.413.48-2.413 2.888 0 1.444-3.861.482-3.379-.962.483-1.443.483-2.887-.965-1.443-1.448-3.85-2.895-4.33-.482-.481 2.413.962 1.93.48 4.343-.48 2.413-2.405 1.93-1.443 3.86.963 1.931.963 2.896 2.406 3.379 1.444.483 1.444.483 2.406 1.93.962 1.448 3.368 2.413.962 2.896-2.406.483-3.368 0-3.368 2.413s1.925 4.343.481 4.826c-1.443.483-.962 1.93-.962 1.93s-.481-3.378-3.368-1.93c-2.887 1.448 0 2.413-3.85 2.413-3.849 0-3.849 0-4.811-.483-.962-.482-3.368-1.447-4.33 0-.963 1.448-2.887.483-2.406 3.379.481 2.895.481 4.343.481 4.343l-4.33 6.274"/>
            <path d="M22.24 120.204c.963.965 1.925.965 2.406.483.482-.483.482-.965 2.406.965 1.925 1.93 2.887 2.413 4.33 3.378 1.444.965 2.406 1.448 2.888 2.413.48.965.962 1.93 2.405 1.448 1.444-.483 1.925-.965 2.887-.483.963.483 0 1.93-.962 1.93s-2.406.483-1.443.966c.962.483 1.443.483.48 1.448-.962.965-3.367.965-1.443 1.93 1.925.965.481 2.413 1.925 2.896 1.443.482 0 .965 1.443 1.93 1.444.965 1.444-.965 1.444.965s1.684 1.93 2.502 1.207M64.583 105.244c-.674-.676-.963-2.413.48-2.413 1.444 0 1.925-1.448 1.444 0-.48 1.447-.48 1.447-.48 2.413 0 .965-.482.965-1.444 0zM60.733 112.965c-.962-.965-.962-1.93-1.924-.965-.963.965-.481 1.93-.963 2.413-.48.483-.48 1.93.482 1.448.962-.483 1.443-.965 2.405 0 .963.965 2.021.434 1.444-.483-.963-1.448-.481-1.93.481-1.448.962.483.962-.965 0-.965s-.962.965-1.925 0zM108.368 114.413c.77 1.544 1.444 2.896 1.925 1.448.48-1.448 1.924-1.448 1.443-2.413-.48-.965.481-2.413-.962-1.93-1.444.482-3.368.965-2.406 2.895z"/>
        </g>
    </g>
</svg>
