<svg xmlns="http://www.w3.org/2000/svg" width="256" height="316" viewBox="0 0 256 316">
    <g fill="none" fill-rule="evenodd">
        <path fill="#1F6CC6" d="M.266 27.305c2.124 1.591 1.593 3.182 2.655 5.833 1.062 2.65 1.062 3.711 2.656 4.241l1.593.53s0 4.242 2.125 4.772c2.124.53 3.717 0 4.78 1.06 1.062 1.061 1.062 3.712.53 5.303-.53 1.59-2.124 3.711-1.061 5.302 1.062 1.59 1.062 3.18 2.124 6.362 1.062 3.181 3.718 2.651 3.718 2.651l1.062 4.242c.531 2.12 1.593 3.18 3.187 3.711 1.593.53 1.593 2.12 3.187 4.772 1.593 2.65 1.593 1.59 3.186 4.772 1.594 3.18-.53 6.362-.53 6.362s1.061.53 2.124 4.772c1.062 4.242-.531 4.772.53 7.953a11.543 11.543 0 0 1 0 7.423c-.53 1.59.532 4.772-.53 5.832-1.063 1.06-4.25 3.711-4.25 5.302v3.711s-.53 1.591-2.655 2.651c-2.124 1.06.531-.53-2.124 1.06-2.656 1.591-4.25-2.12-5.312 2.652-1.062 4.772-2.655 3.181-3.186 6.362-.531 3.181 2.124 2.121-.531 3.181-2.656 1.06-4.78 1.591-4.25 3.712.532 2.12.532 3.181-1.593 3.711-2.124.53-4.249 6.893-4.249 6.893s-1.593 1.59-2.124 4.241c-.531 2.652-1.062 5.303 0 6.893 1.062 1.59 2.655.53 3.187 2.12.53 1.592-2.125 1.061 1.593 3.182 3.718 2.12 4.249 5.832 4.249 5.832s2.124 0 2.655-1.59c.532-1.59-1.062-2.121 2.125-3.181 3.187-1.06 2.656-.53 5.311-1.591 2.656-1.06 3.187-.53 4.78.53 1.594 1.06 3.718 3.712 3.718 3.712s-2.656 2.12-4.78 2.12c-2.125 0-2.656-1.06-5.311 0-2.656 1.06-1.594 2.121-2.125 3.712-.53 1.59-.53 3.711-2.655 1.59-2.125-2.12-1.594.53-4.25-1.06l-2.655-1.59s-2.655 1.59-3.187 4.241c-.53 2.651-1.062 4.772 0 6.362 1.063 1.591 3.187 1.591 2.656 3.182-.531 1.59-3.187 6.362-3.187 6.362l99.85 55.14s4.781 4.773 9.561 6.363c4.78 1.591 6.905-1.06 7.436 5.302.53 6.363.53 7.423-1.062 8.484-1.594 1.06-3.718 4.241-.532 4.771 3.187.53 5.843 6.363 12.216 10.074 6.374 3.712 10.091 7.423 13.81 9.544 3.717 2.12 24.43 18.557 24.43 18.557s3.188-4.242 4.25-3.181c1.062 1.06 1.062 1.59 2.655 0 1.594-1.59 2.125-2.121 3.718-4.242 1.594-2.12 2.125-4.242 2.656-6.362.531-2.121.531-4.772 1.593-6.893 1.062-2.12 2.125-1.59 4.25-4.772 2.124-3.181 1.593-8.483 2.655-10.074 1.062-1.59 2.655-5.832 3.718-7.422 1.062-1.591 4.78-4.242 5.31-5.302.532-1.06 0-4.772 1.063-5.833 1.062-1.06 1.062-2.65.531-4.241-.531-1.59 1.062-6.893 2.656-9.014 1.593-2.12 6.373-2.12 8.498-3.18 2.124-1.061.53 2.12 4.78-1.061 4.249-3.181 3.718 0 4.249-3.181.53-3.182-.531-5.303 2.124-4.242 2.656 1.06 4.25 0 3.187-1.59-1.062-1.591 1.593-2.122 3.718-4.773 2.124-2.65 6.373-3.71 6.373-3.71s3.718-2.652 4.78-3.712c1.063-1.06 3.187-4.242 3.187-5.833 0-1.59-1.593-4.241-1.593-4.241l-14.34-19.618s-3.187-3.18-2.656-11.134c.53-7.953 0-107.1 0-107.1s1.062-6.363 3.187-6.893c2.124-.53 12.215-11.134 15.402-15.906l10.622-15.906s-4.249-3.181-6.373-2.121c-2.124 1.06-7.436 2.12-7.436 2.12s-5.842-1.06-9.029-1.06c-3.186 0-3.718-4.241-7.435-5.832-3.718-1.59-4.25-5.302-6.905-3.711-2.656 1.59-7.436 2.12-11.154 4.772-3.717 2.65-11.153 5.302-13.278 6.362-2.124 1.06-3.186 1.59-4.78 4.772-1.593 3.181-4.78 6.362-5.842 8.483-1.062 2.12-4.249 4.772-5.842 3.181-1.594-1.59-5.843.53-9.56-1.59-3.718-2.121-5.312-1.06-9.03-1.591-3.717-.53-6.373-2.12-7.435-2.651-1.062-.53-4.78-1.06-4.78-1.06s-2.656 1.06-4.78 1.06c-2.125 0-9.03-.53-10.623-2.12-1.593-1.591-15.933-12.195-19.12-14.316-3.187-2.121-14.871-10.604-17.527-11.134-2.656-.53-16.996 0-16.996 0s-5.311 1.06-6.904.53c-1.594-.53-7.436-4.772-7.436-4.772l-4.78-3.711s-2.125 3.18-3.187 3.18c-1.062 0-2.656-1.59-3.718-3.18-1.062-1.591 0-5.302 0-5.302s-1.593-3.182-2.655-2.651c-1.063.53-3.187 1.06-2.656-.53.531-1.591.531-3.712-1.593-2.652-2.125 1.06-4.25 4.242-11.154 5.302-6.904 1.06-14.34 4.772-20.182 8.484C7.7 18.29.266 27.305.266 27.305z"/>
        <g stroke="#FFF" stroke-linejoin="round">
            <path d="M26.284 209.578c0-2.656.53-4.25-1.061-5.312-1.592-1.063-2.653-2.125-2.653-2.125l2.122-5.313s3.184 1.594 5.836 0c2.653-1.594 3.714-.531 5.305-2.656 1.592-2.125 1.592-4.25 2.122-6.906.53-2.657 0-3.72-1.06-6.375-1.062-2.657-.531-6.907 1.59-7.97 2.123-1.062 6.367 1.595 6.367 1.595s3.183-4.25-2.122-5.313c-5.305-1.062-5.305-2.656-8.488-1.062-3.183 1.593-9.019.53-9.019.53s3.183-1.062 5.305-2.124c2.122-1.063 3.714-6.906 3.714-6.906l-2.653-10.094s5.305-1.063 9.019-3.719c3.714-2.656 1.592-3.719 0-5.312-1.592-1.594-3.183-1.594-6.366 0-3.183 1.593-5.305-1.594-5.305-1.594l-4.245-2.656s-5.305-5.844-7.427-6.907M65.542 17.266c1.061 3.718 1.061 13.28 1.061 13.28s-2.122 14.345-2.122 17.532c0 3.188-.53 5.844 3.183 11.156 3.714 5.313 3.183 7.97 5.836 11.688 2.653 3.719 4.775 5.312 7.958 9.031 3.183 3.719 3.713 13.813 6.366 10.625 2.653-3.187 4.775-1.062 4.775-1.062s2.652 6.375 4.774 10.093c2.122 3.72 3.183 3.188 7.427 5.313 4.245 2.125 3.714 4.781 6.897 8.5 3.183 3.719 5.305 3.187 5.305 5.844 0 2.656 5.306 4.25 6.367 2.656 1.06-1.594 4.774-1.063 4.774-1.063s1.061 4.782 2.653 6.907c1.591 2.125 2.652 2.656 2.122 6.906-.53 4.25 2.122 7.437-1.592 8.5-3.713 1.062-7.427 3.187-9.549 3.719-2.122.53-5.305 1.593-5.305 1.593s-3.183-1.593-7.958-3.718-10.08-1.594-10.08-1.594-2.122 1.594-1.06 4.25c1.06 2.656 2.652 1.594 6.896 2.125 4.244.531 4.775-2.656 7.427 2.656 2.653 5.313 1.061 7.438-.53 9.563-1.592 2.125-4.244 3.187-5.836 4.78-1.592 1.595-4.244-1.062-3.714 3.188.53 4.25-3.713 9.563-5.305 6.375-1.591-3.187-3.183-4.25-5.835-4.78-2.653-.532-1.592-4.782-4.245-5.313-2.652-.532-6.366-3.188-9.018.53-2.653 3.72-4.775 7.438-1.061 10.626 3.713 3.187 2.652 1.062 4.774 4.781 2.122 3.719 3.183 1.063 4.244 5.313s1.061 9.562.53 12.75c-.53 3.187-2.121 7.968 0 7.437 2.123-.531 6.898-1.062 9.02 1.594s8.488 8.5 10.08 12.75c1.591 4.25 3.183 7.969 6.896 9.031 3.714 1.063 6.366 3.719 9.019 4.25 2.653.531-3.183 1.063 0 6.375 3.183 5.313 7.958 10.625 7.958 10.625s2.122 3.188.53 5.313c-1.591 2.125-1.06 6.375-3.183 8.5l-5.836 5.843M172.707 51.797c.53 4.25 3.713 5.312 2.652 10.094-1.06 4.78-1.06 7.968-1.06 7.968s-.531 3.188-3.714 5.313c-3.184 2.125-5.836 2.125-6.897 7.437-1.061 5.313-4.775 6.907-2.653 11.157 2.122 4.25 4.775 14.875 6.366 15.406 1.592.531 10.08 7.437 10.61 8.5.531 1.062-1.59 3.187-3.182 3.719-1.592.53-1.061 3.187.53 6.375 1.592 3.187 4.244 4.25 2.653 6.906-1.592 2.656-4.244 5.312-6.897 7.437-2.653 2.125 1.592 3.72-5.305 5.313-6.897 1.594-10.08 0-10.61 2.125-.531 2.125-.531 2.656 0 6.375.53 3.719 0 13.812 0 13.812"/>
            <path d="M242.735 220.734c-7.958-.53-6.366 0-11.672 0-5.305 0-6.896 1.594-6.896 1.594l-12.202 5.313s-5.836 4.78-8.488 4.25c-2.653-.532-3.184-6.375-3.714-9.032-.53-2.656-4.775-15.406-4.775-15.406s-3.713-15.937-6.366-20.187c-2.653-4.25-4.244-9.032-7.958-11.688-3.713-2.656-7.957-2.656-10.61-4.25-2.653-1.594-17.507-2.125-19.63-2.125-2.121 0-4.774 1.594-4.243 2.656.53 1.063 4.244 5.844 6.366 9.563 2.122 3.719 2.653 4.25 7.427 10.625 4.775 6.375 5.836 7.969 5.305 15.406-.53 7.438 0 10.625-1.591 15.938-1.592 5.312 2.122 8.5-1.592 12.75-3.713 4.25-9.019 7.968-9.019 7.968s2.123 3.188 5.836 8.5c3.714 5.313 6.897 8.5 6.897 8.5s-5.305 3.188-9.55 2.125c-4.244-1.062-5.835-4.78-9.549-3.187-3.713 1.594-5.305-4.781-7.957-6.375-2.653-1.594-8.489 2.125-9.55 3.719M104.005 167.184c2.387 1.488 3.448 2.02 6.1 5.207 2.653 3.187 3.184 4.25 3.714 7.437.53 3.188 2.653 6.375 1.592 9.031-1.061 2.657-4.775 3.188-5.836 4.25-1.06 1.063.53 3.72 1.061 5.844.53 2.125-4.244 4.781-4.244 4.781s-1.061 4.782-3.714 3.188c-2.652-1.594-6.896-3.188-6.896-3.188l-4.138 3.825"/>
        </g>
    </g>
</svg>
