<svg xmlns="http://www.w3.org/2000/svg" width="286" height="232" viewBox="0 0 286 232">
    <g fill="none" fill-rule="evenodd">
        <path fill="#1F6CC6" d="M165.305 26.465c-1.537.297-1.983-.99-4.957-.495-2.974.495.496.99-4.956.495-5.453-.495-5.453-.495-8.427-1.484-2.974-.99-5.948-.495-6.443-2.474-.496-1.978-1.983-3.462-3.966-2.473-1.982.99-.991-4.947-6.443-5.441-5.453-.495-8.427 0-8.427 0s-.495-.99-2.974.99c-2.478 1.978-2.478 2.472-5.452 3.462-2.974.99-3.965-.495-5.452.494-1.487.99-1.983 2.474-3.47 2.968-1.487.495-5.452 0-6.94-2.968-1.486-2.968-3.965-10.388-6.443-11.377-2.478-.99-4.957-3.463-5.948-3.463-.991 0-1.983 2.968-3.965 1.484-1.983-1.484-2.974-2.473-5.453-2.968-2.478-.494-5.452-2.968-7.435-2.968-1.982 0-4.46-.494-5.452 1.484-.991 1.979-4.957 1.979-4.957 1.979s-2.478-.495-5.452-.495c-2.974 0-7.435.495-9.418 1.979-1.982 1.484-4.46 2.968-5.948 4.452-1.487 1.484-.495-1.979-1.487 1.484-.991 3.463-.991 4.947-1.487 7.42-.495 2.473-1.982 4.947-2.478 6.925-.496 1.98-8.426 8.41-8.426 8.41s.495 2.473 0 5.441c-.496 2.968-.992 5.442-.496 7.42.496 1.979.991 4.947.991 4.947s-.991 1.484-2.478 3.957c-1.487 2.474-.991 5.442-.991 5.442l3.47 6.43s2.478 2.474 2.478 4.947.99 3.463 1.487 5.441c.495 1.98-.496 4.452-.496 4.452s-.991 3.463-1.983 2.968c-.991-.494-2.974-1.484-2.974.495s-1.982 2.968 0 4.452c1.983 1.484 2.479 2.474 1.487 3.958-.991 1.484-3.47 2.968-4.956 3.957-1.487.99-2.479-1.979-2.974 1.979-.496 3.957 1.982 3.462-.496 3.957-2.478.495-2.478.495-3.47 2.968-.991 2.473.496 4.452-.495 6.43-.992 1.98-.992 4.947-2.974 4.453-1.983-.495-3.966-.495-4.957 0-.991.494-.991 6.43-1.487 8.904-.496 2.473 0 1.978-.496 5.441-.495 3.463-1.487 2.968-.495 5.936.99 2.968-.992 4.452-.496 5.936s-.496 1.979.496 3.463c.99 1.484 1.487 1.484.99 3.463-.495 1.978.497.989.992 3.462.496 2.474-1.487 2.474-.991 4.947.496 2.473 1.983 3.957.991 5.936-.991 1.979-1.982 1.484-1.487 3.957.496 2.474 1.983 2.474.992 4.947-.992 2.473-1.983 4.947-1.487 5.936.495.99 0 2.473 0 2.473l14.374-1.484s9.913-.494 13.879 0c3.965.495 11.896 0 15.86 2.474 3.966 2.473 9.419 7.914 11.401 10.388 1.983 2.473 1.983 4.946 3.47 6.43s2.974 3.958 4.957 8.905c1.982 4.946.495 4.946 1.982 7.42 1.487 2.473 1.487 3.957 2.974 5.44 1.487 1.485.496 2.474 3.47 4.453s1.983 3.463 4.957 3.957c2.974.495 3.965 0 6.939.495s4.957.495 6.444 0 .495.495 2.974 0c2.478-.495 2.974-1.979 6.443-1.979 3.47 0 1.983-.494 5.948-.494 3.966 0 3.47-.495 6.94-.99 3.47-.494 9.913-1.484 12.887-2.473 2.974-.99 7.93.99 8.426 0 .496-.99.496-.99.992-2.473.495-1.484 1.487.494 3.965-.99 2.478-1.484 1.983-5.441 2.974-6.43.991-.99 1.487-2.968 2.478-3.958.992-.99.496-1.484.992-4.452.495-2.968 0-3.462.991-4.947.991-1.484.496-1.484 0-2.968s-1.487-2.473 0-3.957 3.47-.99 5.452-3.957c1.983-2.968 3.966-4.452 5.948-6.43 1.983-1.98-2.478 1.483 1.983-1.98 4.461-3.462 4.461-1.978 6.444-4.946 1.982-2.968 0-5.442 2.974-5.936 2.974-.495 4.956-1.979 5.948-3.463.991-1.484.991-1.484 3.47.495 2.478 1.978 5.947 2.473 6.939.494.991-1.978 1.982-5.441 1.982-5.441s-2.478.99 2.479 2.473c4.956 1.484 3.47 1.979 4.46 3.958.992 1.978 0 .494 2.975 2.968 2.974 2.473 2.478 3.462 2.974 4.946.495 1.484 1.982 2.474 3.965 1.979 1.983-.495 2.478-1.484 3.965-2.968 1.487-1.484 3.966-3.463 2.479-4.947s-.992-3.462.991-4.452c1.983-.989 2.974-.989 4.461-1.978 1.487-.99 1.487-3.463.496-4.452l-.992-.99s5.948-5.936 5.948-7.42-1.487-1.978 0-3.462c1.487-1.484 2.974-1.98 3.966-5.442.991-3.463 0-.495.991-3.463s-.991-2.968 0-4.946c.991-1.979 1.487-1.979 2.974-2.968 1.487-.99-2.974-4.452.991-4.452 3.966 0 4.461-.99 5.948-1.484 1.487-.495 5.453-.495 4.957-3.463-.496-2.968-.991-5.936 0-8.41.991-2.473 0-2.473.991-3.957.992-1.484 0-4.946 3.47-4.452 3.47.495 4.461-1.484 4.957-2.968.495-1.484 1.982-4.452.495-5.441-1.487-.99-1.982-1.979-.99-3.463.99-1.484.99-2.473 2.973-2.968 1.983-.494 2.974-4.947 3.47-6.43.495-1.485-.496-.495.495-2.474.992-1.979 0-1.979 1.487-3.957 1.487-1.979 1.487-2.474 2.479-3.958.991-1.484 1.982-1.978 1.982-2.968 0-.989.496-.989.992-2.473.495-1.484 0 0 1.487-1.979 1.487-1.978 3.47-2.968 3.47-2.968s.99-.494 1.982 0c.991.495 2.974.99 3.965-.494.992-1.484.992-2.474 2.974-2.968 1.983-.495 2.479 0 3.47-.99l2.478-2.473s-1.487-2.968-1.487-3.957c0-.99.992-2.968.992-2.968s-.496-2.968 0-4.452l.991-2.968s-.991-1.484-1.487-2.474c-.496-.99-1.983-2.968-3.47-2.968s-4.46-.494-4.956-.494c-.496 0-1.983-1.484-1.487-1.98.495-.494-1.487-14.345-2.479-15.334-.99-.99-.99-1.484-2.478-3.463-1.487-1.978-3.47-5.44-3.47-5.44s-3.965-4.453-4.46-5.442c-.496-.99-2.479-1.484-2.479-1.484s-3.47.494-4.46.989c-.992.495-1.488.495-2.48 1.979-.99 1.484-1.982 1.484-2.478 1.484-.495 0 0-1.484-2.478 0s-2.478 0-4.46 2.473c-1.984 2.473-3.47 2.968-3.47 2.968s-1.488-.99-2.479.99l-1.487 2.967c-.991 1.98-.991 1.98-2.478 1.98s-3.47-.496-3.47-.496 0-.494-1.487 0c-1.487.495-1.983.99-3.47-.494s-4.956-2.968-6.939-3.958c-1.983-.989-1.487-.989-5.452-1.484-3.966-.494-13.879 0-15.862-.989-1.982-.99-2.478-.495-4.46 0-1.983.495-6.444 1.979-9.914 2.473-3.47.495-3.47 0-5.452 1.484-1.983 1.484-1.983 0-2.974 1.98-.992 1.978-2.974 1.978-3.47 3.462-.496 1.484-1.983 3.957-4.461 4.452z"/>
        <g stroke="#FFF" stroke-linejoin="round">
            <path d="M232.495 20.21c-.992 2.971-1.985 4.457-.992 5.447.992.99 1.985 1.486 2.481 2.972.496 1.485.993 2.971 0 3.466-.992.495-1.489 1.486-2.481 2.476-.993.99-1.489 1.981-1.489 1.981s.993 1.981.993 3.467 0 1.981-.497 3.467c-.496 1.485-1.488 4.457-.992 4.952.496.495.992.495.496 1.981-.496 1.486-2.977 1.981-1.489 3.467 1.489 1.485 1.489.99 2.482 1.98.992.991.496 1.486-.497 3.467-.992 1.981-1.985 3.467-2.481 4.457-.496.991 0 1.486-.496 3.467s.496 1.981-.993 2.972c-1.489.99-4.962 1.485-5.955 2.476-.992.99-2.481 1.98-2.481 3.466 0 1.486.496 2.972-.496 3.962-.993.99-1.49 1.981-1.985 1.486-.497-.495-3.474-.495-2.978-1.98.496-1.487.993-3.468.496-5.449-.496-1.98 0-2.476-.992-3.466-.993-.99-1.489-.99-2.481-2.476-.993-1.486-.993-1.486-2.978-3.467-1.985-1.981-3.474-2.476-4.962-1.981-1.49.495-4.467 2.476-3.97.495.496-1.98 0-8.419-.497-8.914-.496-.495-1.489-5.943-2.481-7.924-.993-1.98-.993-1.98-.993-3.467 0-1.485-.496-.99-.496-3.466s-2.481-4.953-3.474-5.448c-.992-.495-1.488-1.98-1.488-3.962 0-1.98.496-2.476-2.482-2.971-2.977-.495-.496-.495-2.977-.495s-1.489 0-3.474-3.467c-.496-1.486-3.474.495-4.962.99-1.49.496-1.49.496-1.985.99-.497.496 0 1.982-1.986 1.982-1.985 0-1.985 0-3.97-.99M264.752 71.714c-.993.496-.993.496-2.481.99-1.49.496-2.482.991-3.474.496-.993-.495-1.489-1.486-1.985.495-.496 1.981-.993 2.476-.993 3.962 0 1.486-.992 2.476-1.488 4.457-.497 1.981-.497 4.457-2.482 2.972-1.985-1.486-1.489-.99-3.474-2.476s-1.488-2.477-3.473-1.486c-1.985.99-1.985.495-3.474 1.98-1.489 1.486-1.985.496-2.481 1.486-.497.991-.497 1.486-1.49 1.981-.992.496-1.984 0-2.977.496-.992.495-2.48 0-2.977 1.485-.496 1.486 0 .99-1.489 2.477-1.489 1.485-3.97 4.457-5.955 3.466-1.985-.99-2.481 0-3.474 0-.992 0-.992-1.98-1.985-2.971-.992-.99-2.481-1.486-2.977-2.476-.497-.99-1.985-1.486-1.49-2.972.497-1.486 1.986-2.971 1.986-3.466v-.496"/>
            <path d="M189.817 34.076c-1.488.99-1.985 2.972-3.473 2.476-1.49-.495-1.49-1.485-2.482-.99-.992.495-2.48-.495-2.48.99 0 1.486-.993 2.972-.993 2.972s-1.985 2.971-1.49 3.962c.497.99-.495 2.971-.495 2.971s-2.482 1.981-3.97 1.981c-1.49 0-1.985.99-3.97 1.486-1.986.495-2.482.495-2.978.99-.496.496-1.489 1.981-.993 2.476.497.496 1.49.991 2.482.496.992-.496 1.488-.99 1.985.495.496 1.486 1.489 1.486.496 2.971-.993 1.486-.993 1.981-.496 2.477.496.495.992 0 1.985 1.485.992 1.486.992 3.467 3.474 3.962 2.48.495 1.985.99 4.466.99s3.474-.99 3.474.496-.497 2.476-1.985 2.476c-1.49 0-1.985.495-2.482 1.486-.496.99.497 2.971-.992 1.98-1.489-.99-.993-1.98-2.978-1.485-1.985.495-3.97 1.981-3.97 0 0-1.98.497-4.457 0-4.952-.496-.496 0-1.981-1.489-1.486-1.488.495-3.97.495-4.962 0-.993-.495-3.97-.495-4.466-.99-.497-.496-3.97-1.486-3.97-1.486s-1.985-.495-.497-1.486c1.49-.99 2.482-2.476 2.482-2.476s.496-1.486-.497-1.981c-.992-.495-1.488-1.486-1.985-1.981-.496-.495-2.977.495-1.985-.99.993-1.486.497-1.981.993-3.467s1.985-3.467 0-3.962c-1.985-.495-1.985 0-2.978 0-.992 0-2.481-.495-2.481-.495s-.496-1.486-.496-2.477c0-.99 1.489-2.476-.993-2.971-2.481-.495-2.481.495-2.977-.99-.497-1.486 0-1.486-.993-2.477-.992-.99-.496-.495-.992-2.476-.497-1.98-3.474-.99-4.467-.99-.992 0-1.488-1.486-1.985 0-.496 1.485-1.488 1.485-1.488 2.476 0 .99-1.985-2.972-1.985-2.972s-.497-1.485-1.49-1.485c-.992 0-1.984 0-1.984-.99v-3.467h3.474c1.985 0 2.48-.99 3.97-.496 1.488.496 2.48.496 2.977.99.496.496 0 1.487.993 1.982.992.495 3.97.99 3.97.99s1.985 0 2.977-.99c.993-.99 2.482-2.972 2.482-2.972M221.429 94.149c.1 2.377.1 1.881.1 3.862s-.993 3.467-.993 3.467-2.978.99-3.97 1.981c-.993.99-4.963 1.486-4.963 1.486s.496 2.476 1.489 3.962c.992 1.485-.993 1.98.992 1.485 1.985-.495 1.985-.495 2.978.99.992 1.487.496 1.487 1.489 2.972.992 1.486-.993.99.496 2.476 1.489 1.486 1.985.991 2.481 2.477.496 1.485.496 3.466-.496 4.952-.993 1.486-.496 1.981-.993 3.467-.496 1.485.497 1.485-1.488 2.971-1.985 1.486-3.474 2.972-4.467 4.457-.992 1.486-3.97 4.457-3.97 4.953 0 .495-1.489 1.485-1.489 2.971s1.49 2.476 2.978 3.467c1.489.99 1.985 0 1.985-.495 0-.496 0-2.477 1.489-.991 1.489 1.486 1.489 1.486 2.481 2.971.993 1.486 1.985 2.477 1.985 3.467 0 .99.993 5.448.993 5.448M135.726 223.752c-.993-.495-.497-.495-.993-1.98-.496-1.486-.496-.991-1.985-1.982-1.489-.99-1.985-1.98-2.977-3.466-.993-1.486-.993 0-.993-2.476 0-2.477 0-3.467-.496-3.962-.496-.496-2.481-.496-2.481-.496s-1.985-.99-1.49-1.485c.497-.495 0 .495.497-.495.496-.991-.496-.496-1.985-1.981-1.489-1.486-.992-2.477-2.481-1.981-1.489.495-.993-.496-1.489.99-.496 1.486.496.99 0 2.476s-2.481 1.486-2.481 1.486-.993-.99-.497.99c.497 1.981.993-.495.497 1.981-.497 2.477.496.496-.497 2.477-.992 1.98-1.488 2.476-1.488 3.466v1.981s-1.985-.99-3.474-.99h-3.474s-.496-1.486 0-1.981c.496-.495 1.489-1.486 1.985-2.476s-.496-2.972-.496-2.972h-6.451c-.993 0-2.978-.99-3.97-1.486-.993-.495-2.482-.99-1.985-1.98.496-.991.496-1.981 0-2.477-.497-.495-.993-1.485-1.49-1.485-.495 0-.992 2.476-.992 2.971 0 .495-.496 0-1.489 0-.992 0-1.985.495-1.985.495s-1.488-.495-2.977.99c-1.489 1.486 0 1.486-1.489 1.486s-1.489 1.486-1.489 1.486-.496.99-1.488.99c-.993 0 0 .991-1.49.991-1.488 0-1.984 0-2.48-.495-.497-.495-1.49-.495-1.49-.495s-1.488 1.485-1.984 1.485-1.985.496-2.978.99c-.992.496-1.985-.494-2.977-.494-.993 0-3.97-.99-3.97-.99"/>
            <path d="M124.808 207.41s1.985 0 1.489-.991c-.496-.99-.496-1.98-.993-2.971-.496-.99-.992-3.962-.992-3.962s.992 0 .992-1.981-1.488 0 0-1.981l1.49-1.981s.495-1.981.992-1.981c.496 0 0 0 .992.495.993.495.993.495 1.985-.495.993-.99 0-1.486.993-.99.992.495 1.985.495 1.985.495l.992-2.972 1.489-2.476s-.496-.495 0-1.98c.496-1.487 1.489-1.982 1.489-1.982s0-1.486-.497-1.98c-.496-.496.497-1.487-.992-1.982-1.489-.495-2.481-.99-1.985-1.485.496-.496-.496-.991.992-1.486 1.49-.495 1.49-1.486 2.482-1.486h2.977c1.489 0 1.489-1.486 1.985-1.98.496-.496.496-1.487 2.978-.991 2.481.495 3.97.99 4.466 1.98.496.991-.496 2.972.496 2.972.993 0 1.985 1.486 4.467.495 2.48-.99 4.962 1.486 5.458 1.981.497.495 2.482 3.962 2.482 3.962"/>
            <path d="M167.982 177.2c-.496-.495-.496-3.467-.496-4.952 0-1.486.496-3.467.496-4.458 0-.99.496-.99 1.489-2.476.992-1.485 1.985-1.98 1.985-1.98s.496 0 .993-1.486c.496-1.486.496-3.962.496-5.448 0-1.486-1.489-2.971-1.489-2.971s-1.985-.99-2.481-2.477c-.497-1.485-1.985-2.476-2.978-2.971-.992-.495-1.985-.99-3.474-.99h-2.977c-.496 0-2.978 0-3.474.495s-1.985 1.485-1.985.495c0-.99.993-2.971.993-2.971s-2.978-.496-3.474-1.486 0-1.981-1.985-1.486c-1.985.495-2.481.495-3.97 0-1.489-.495-3.474-.495-4.467-.99-.992-.496-1.488-1.486-2.977-.496-1.489.99-2.978 0-2.481 1.981.496 1.981.992 3.467 1.488 4.457.497.991-.496 1.981-.496 1.981s-10.421-4.457-11.414-4.952c-.992-.495-1.985-.99-2.977-.99h-2.978s-.496.495 0 1.98c.497 1.486.497 2.477 1.489 3.467.993.99.496.495.496 1.981v2.476l.993 3.467 1.985.99-.496 1.981s-.497 2.477-.993 2.972c-.496.495-.992.99-1.985 1.486-.992.495-.992 0-1.489 1.485-.496 1.486-.496 2.476-1.489 1.981-.992-.495-.992-1.98-2.977-1.98-1.985 0-2.481 0-3.474.99-.992.99-1.985 2.476-3.474 3.466-1.488.99-2.48 0-2.48 1.486s-.497 1.486-1.49 1.486c-.992 0-1.985-1.486-1.985-1.486l-.496 1.486s-.496.99-.992 1.486c-.497.495-1.49 0-1.49 1.485 0 1.486-.992 2.476-.992 2.476s-.496 0-1.488.496c-.993.495-1.49 1.485-1.49 1.485s-1.984-.99-2.977-.495c-.992.495-1.489 1.486-1.489 1.486s-2.48 0-3.97 1.486c-1.488 1.485-1.985 1.98-2.977 1.485-.993-.495-.496-.99-1.489-.99-.992 0-2.481 0-1.489 1.486.993 1.485.993.495.993 2.476 0 1.98-2.481.495 0 1.98 2.481 1.486 2.481-.495 2.481 1.486v3.467c0 .495-.496.99-1.985 1.981-1.489.99-2.481.99-2.977 1.486-.497.495-1.49.495-1.985 0-.497-.495-.497-3.467-.497-3.467s-.992-1.486-2.48-1.98c-1.49-.496 0 .494-1.49-.496-1.488-.99-1.488-1.486-2.481-.99-.992.495-.992 1.485-1.985 1.485-.992 0-1.489-.99-1.985-.99s-1.985-.99-2.481 0c-.497.99.496 2.476-.497 2.476-.992 0-1.985 1.98-1.985 0v-2.972s0-.495-.992-.99l-1.985-.99s-.993 4.457-2.481 5.447"/>
            <path d="M211.653 104.895c-.993.495-3.474 0-3.474 0l-4.466.495-3.474-.495s-2.482-.99-3.97 0c-1.489.99-.993.99-2.978 1.486-1.985.495-2.977-.495-3.97.495-.992.99-.496 1.486 0 2.972.496 1.485-1.985.99-.496 2.971s1.489.495 1.489 2.476c0 1.981.992 1.486.496 3.962s.496 2.476-.993 3.467c-1.488.99-.992.99-3.473 1.486-2.482.495-4.467.99-4.467.99l-2.977 1.981s-1.985 2.971-3.474 3.467c-1.489.495-2.977.99-3.97 2.476-.993 1.486-2.481 1.98-3.474 1.98-.992 0-1.489-.494-1.985 0-.496.496-1.489.991-1.489 1.486 0 .496-2.48.991-3.473 0-.993-.99-2.978-2.476-2.482-.495.497 1.981 1.985 1.981 1.49 3.962-.497 1.981-.497 1.486-.993 2.476-.497.99-1.985 1.486-1.985 1.486l-1.985.99"/>
            <path d="M198.601 64.137c-.397 1.09-1.39 1.585-1.39 1.585l-2.48 1.486-2.978 2.476-1.985 2.971s.496 1.981-.496 2.972c-.993.99-2.482.99-1.49 1.98.993.991 1.49 1.486 2.482 1.982.993.495.496 1.485 1.985 2.476 1.489.99 0 0 1.489 1.485 1.489 1.486 1.489.991 1.489 2.477 0 1.485.496 1.98 0 2.971-.497.99-1.49 1.486-1.985 2.476-.497.99-2.482.99 0 2.476 2.48 1.486 1.488 1.981 3.473 2.972 1.985.99 1.49.99 1.985 1.98.497.991.497 3.963.497 3.963l.992 1.98M115.727 165.562c.099 2.228.595 3.219.595 3.219s1.489 1.98 2.978 1.98h2.48c.993 0 1.49-.99 1.986.991.496 1.981.496 2.972 0 3.962-.496.99.496 1.486.992 2.476.497.991.993.496 1.49 0 .495-.495-.497-1.98.495-2.971.993-.99 0 0 1.49-.495 1.488-.495 0 .495 1.488-.495 1.489-.99 1.489-2.477 2.978-1.486 1.488.99 1.488 3.467 1.488 3.467"/>
            <path d="M100.492 174.229c.992 0 1.985.99 3.473.495 1.49-.495 1.49.495 1.49.495l-.993 3.962s-.497-1.981.992 1.98c1.489 3.963.993 2.477 1.489 3.963.496 1.486 2.481 1.486 1.985 2.476-.496.99.496 3.467 1.489 2.971.992-.495.496 1.486 1.985.99 1.488-.494 1.985-.99 2.481-.494.496.495.496.99 1.489.99.992 0 1.488-.99 1.985 0 .496.99 1.489 1.981 1.489.495 0-1.485-.497-1.485.496-2.971.992-1.486.496-2.476 0-3.467-.496-.99-.496-2.476 0-3.466.496-.99.992-1.981.496-3.467s-.496-2.476.496-2.476h2.482"/>
            <path d="M95.033 203.448c0-1.486 0-1.981.496-3.467s-1.489-.495.496-1.486c1.985-.99 2.482-1.98 3.474-1.485.993.495 1.985 1.485 2.481-.496.497-1.98-.992-.99.497-1.98 1.488-.991 3.97-1.486 4.466-.991s1.489 0 1.985 0 1.489-.495 1.985-.99c.496-.496 1.489-.991 1.489-.991M116.372 192.057c-.497 1.486-1.489 1.486 0 2.476 1.488.99-.497.496 1.488.99 1.986.496 2.978-1.485 3.97.496l.993 1.981 1.489 1.486"/>
            <path d="M109.573 212.213c-.1-1.386.397-.891.893-2.872.497-1.981-.496-2.971.993-3.962 1.489-.99 1.489-.99 1.489-2.476v-2.972-2.971c0-.99 1.488-1.486 0-1.981-1.49-.495-3.97-1.486-3.97-1.486M58.31 188.59c0-1.98-.993-1.98-.993-1.98l-1.985-1.981s.497-1.981 1.49-2.477c.992-.495-.497-.99.992-1.98 1.488-.991.496-2.477.496-2.477v-2.971s-.496-1.486 1.489-2.972c1.985-1.485 1.985-.99 2.977-.99.993 0 1.985-1.486 3.97-.495 1.985.99 2.482 0 1.985 1.485-.496 1.486 0 2.972.993 1.981.992-.99 0 .496 1.985 0 1.985-.495.992-1.485 1.985-2.971.992-1.486-.496-1.486.496-2.972.993-1.485 0-1.98.993-2.971.992-.99 0-.99 1.488-2.476 1.49-1.486.993-2.972 1.49-3.962.495-.99-.993-1.981-.497-2.476.496-.495.496-.495 1.489-.99.992-.496.496-1.982 1.985-.991 1.488.99-.497 2.971 1.488 2.971 1.985 0 .993.495 2.482 0 1.488-.495-.497 0 1.985.99 2.481.991 2.481-.495 3.473 1.486.993 1.981.993 1.981 1.985 1.981.993 0 2.482 0 2.978.496.496.495.993-.99.993 1.98 0 2.972-.993 2.477-.993 3.962 0 1.486.993 2.477 0 3.467-.992.99-.992.495-.496 2.476.496 1.981-.496 2.972 0 3.467.496.495.496 1.981.496 1.981"/>
            <path d="M23.572 92.019c2.481 0 2.978.495 4.963 0 1.985-.495 1.985-.99 3.473.495 1.49 1.486 2.978 1.981 3.474 3.467s1.489 3.467 2.978 4.457c1.489.99.992 1.486 1.985 1.981l.992.495v4.457s.497 1.486 1.985 1.486c1.489 0 3.97-.99 3.474.495-.496 1.486-.496 1.486.496 2.477.993.99 2.978.495 2.482 1.485-.497.99-.993 3.962 1.488 2.972 2.482-.99 3.474-2.476 5.955-.496 2.482 1.981 3.474 2.477 3.97 3.467.497.99 5.956.495 7.444 1.981 1.489 1.486.497 1.486 1.985 2.476 1.49.99.993 1.486 3.474 1.981 2.481.495 1.985.495 3.97 0s1.985-.495 3.97 0 2.978 0 2.978 0-.993.99-1.49 2.972c-.495 1.98.497 1.485-.992 3.466-1.488 1.981.497 1.981-1.488 1.981-1.985 0-2.482-.495-4.467-.495-1.985 0-2.48.495-3.97 0-1.488-.495-1.488-.99-2.481-1.486-.992-.495-1.985-1.485-2.977-.99-.993.495-1.986 1.486-2.482 2.971-.496 1.486-1.489 2.476-.496 2.972.992.495 2.978.99 3.474 1.98.496.991 1.489 1.486.992 2.477-.496.99-.496 1.486.497 1.486.992 0 2.977-.99 2.48 0-.495.99-1.984 1.98-1.488 2.476.496.495 1.489 2.971 2.978 3.466 1.488.496 1.985.99 2.977.496.993-.496.993 0 1.985.99.993.99.496 1.981 1.737 3.22"/>
            <path d="M24.068 68.248c1.49-.496 3.474 0 3.474 0s3.97 2.476 4.466 2.476c.497 0 4.467.99 5.955.495 1.49-.495 3.97-.495 5.46 0 1.488.495 3.473 1.486 3.473 1.486s1.985-.99 1.985 1.485c0 2.477-.496 4.458-.992 5.448-.497.99-.497 2.476-.497 2.972v5.447c0 1.486-.496 1.981-.992 2.972-.496.99 0 .99.992.495.993-.495.993-1.486 3.474-2.476 2.481-.99 2.978-.496 1.985-2.972l-1.985-4.952s-.496-1.486.496-1.981c.993-.495 4.467-.99 4.963-1.486.496-.495 1.489-1.486.992-2.476-.496-.99 0-2.971 0-2.971s.993-2.477-.992-2.972c-1.985-.495-2.481 0-3.97-.99-1.489-.99-3.474-1.981-.993-2.972 2.482-.99 2.482-1.486 5.46-1.98 2.977-.496 1.488-1.486 3.473-.991 1.985.495 2.977 0 3.474.99.496.99 1.985.99 1.985 2.972 0 1.98 1.985 3.466 1.489 4.457-.497.99-.497 1.486 1.488 1.486 1.985 0 4.467-1.486 5.955-1.981 1.49-.496 1.985-.99 2.978-1.486.992-.495.496-1.486 1.985-.495 1.489.99 3.474 2.476 3.474 3.466v2.972s-1.49 1.485-.993 2.971c.496 1.486.993 1.486.496 2.972-.496 1.485-1.985 2.476-.992 3.466.992.99.992 1.981 1.489 1.981.496 0 1.488.495 2.48-.495.993-.99 1.49-2.971 2.978-3.467 1.49-.495.993 0 2.482-.495 1.488-.495 1.985.99 2.977.495.993-.495 2.482-.495 2.482-.495s.992-1.98 1.985-1.486c.992.496.496 0 .992 1.486s1.985.495 2.481 1.486c.497.99-.992 2.476.497 3.466 1.488.99 2.48 0 2.48 1.486s-.992 2.476-.992 2.476-1.985.496-2.48 1.486c-.497.99-.497 2.476.992 2.476 1.488 0 1.985.99 3.97.495s2.48 0 2.48 0 .993 1.486 1.49 2.972c.496 1.486 0 2.971 0 2.971l-1.49.99 1.986 1.487.496 1.98-.992.991s-.993.99-.993 1.486c0 .495-.496.99-.496 1.485 0 .496.496 1.486.496 1.486l.993.99s-.993 3.467-1.49 3.962c-.495.496-.495 1.981-1.488 1.486-.992-.495-1.985-1.98-2.977-2.476-.993-.495-2.978-.99-2.978-.99h-3.97v18.323s0 .496.993.99c.992.496.496 1.487.496 1.487s-.993 1.485-1.489 1.98c-.496.496-.992 2.972-.496 3.467.496.495.992-.495 1.489 1.486.496 1.98 0 3.467 0 3.467s0 1.485-.497 2.476c-.496.99-1.488 2.476-.992 3.466.496.99 0 2.972 0 4.953v3.466l-1.489 2.477"/>
            <path d="M34.986 16.248c.496 0 1.489 1.485 3.474.99 1.985-.495 2.481.495 2.481.495s1.489.496 2.978 1.486c1.488.99 2.977.99 3.97 1.486.992.495 1.985 0 1.985 0s1.488-1.981.992 0c-.496 1.98-.496 4.457 0 5.447.496.99.993 1.486.993 1.486s-.497 1.981-.497 2.972c0 .99-.496-.496 0 1.98.497 2.477 1.49 2.972 0 3.962-1.488.99-1.985 1.981-2.977 1.486-.993-.495-1.985-.99-1.985.495 0 1.486.992 2.477.496 3.962-.496 1.486-.496 4.457-.496 4.457s-.496 5.448-.993 6.438c-.496.991-2.481 4.953 0 3.962 2.482-.99 3.97 0 4.963-1.485.992-1.486 3.474-2.477 4.466-1.981.993.495.496 0 2.481.495 1.985.495 2.482 1.486 3.474.495.993-.99 0-2.476 1.985-1.486 1.985.991 3.474 0 3.97.991.497.99 2.978 1.98 4.963 1.486 1.985-.496 1.489-1.486 3.97 0 2.481 1.485 2.481 1.485 1.985 2.971-.496 1.486-1.985 1.486 0 2.972 1.985 1.485 2.481 1.98 2.481 2.971 0 .99-.496 3.467-.496 3.467M104.462 22.686c0 1.485 0 3.962.496 5.943.496 1.98-.496.99 0 2.971s0 2.476.496 3.467c.496.99-.496.495.496 2.476.993 1.98.993 2.971.993 2.971l-.496 3.467s-.497 1.98.496 2.476c.992.495 2.481 0 1.985 1.486-.496 1.486-1.489 0-1.985 1.98-.496 1.982-1.489 1.982-1.489 1.982h-1.985l-2.481.99v3.962s-1.489 3.467-.993 4.457c.497.99.993-.495.497.99-.497 1.486-2.978.991-2.978 2.972 0 1.981-.496 2.972-.496 2.972l-2.978 1.98-3.97.991s-1.489-.99-2.481-.495c-.993.495-1.985 1.486-1.985 1.486l-1.489 1.98-.992.496"/>
            <path d="M133.74 32.59c-.992.496-.992 0-1.984 1.981-.993 1.981 1.488.99-.993 1.981-2.481.99-1.985.99-3.97 1.981-1.985.99-1.985-.99-2.481 1.981-.496 2.972-1.489 1.981-.993 4.457.497 2.477 0 .99.497 3.962.496 2.972 0 2.972.496 4.457.496 1.486-.993 1.981-.993 1.981s-2.977 0-2.977 2.477c0 2.476 0 2.971.992 3.466.993.496 1.985.496.993 1.486-.993.99-1.985 2.971-3.474 1.981s-1.489-1.486-3.97-1.486-1.985.99-2.978 1.486c-.992.495-1.488-1.486-2.48-.495-.993.99.992 2.476-.497 2.971-1.489.495-2.978-.495-2.978-.495l-2.977-.99s.992-2.972.496-2.972-2.977-.495-2.977-.495M110.417 111.829c1.985.99 2.48 1.485 3.97.495 1.488-.99.992-2.476 2.481-.99 1.489 1.485-.496-.496 1.985.495 2.481.99 1.985.495 2.978.99.992.495 1.488.99 1.985 0 .496-.99 1.488-2.476 2.48-1.486.993.99 1.49 2.477 1.49 2.477s2.48.495 1.985 2.476c-.497 1.98-1.49 2.971.496 2.476 1.985-.495 1.489 0 2.481-1.486.993-1.486-.992-3.962 1.489-1.486 2.481 2.477 2.481 0 3.474 1.981.992 1.981 2.977 2.972 3.473.99.497-1.98.497-2.475 1.49-3.466.992-.99.992.495.495-1.98-.496-2.477 0-2.477-.992-3.963-.993-1.485-2.481-3.466-2.481-3.466s.992-.99 1.488-2.476c.497-1.486.993.99.993-2.477 0-3.466 0-3.466.496-4.457.496-.99.496-.495.496-1.98v-2.477c0-.495 0-.99.993-1.98.992-.991 1.489-1.487 1.985-2.477.496-.99 0-2.476 1.985-.495 1.985 1.98 3.97 1.98 2.978 3.962-.993 1.98-2.482 3.961-.497 3.961 1.985 0 .993-1.98 3.474 0 2.481 1.981 3.474 2.477 2.481 3.962-.992 1.486-2.48 2.972-.496 3.962 1.985.99 0 2.476 3.474 2.972 3.474.495 4.466.99 6.451.495 1.985-.495 2.481-.495 3.474-1.486.992-.99 2.978-.99 2.481-2.476-.496-1.486-.992-2.971 0-2.971.993 0 4.963 1.98 8.933 3.962 3.97 1.98 8.04 4.704 8.04 4.704"/>
            <path d="M157.065 62.305c-2.482.99-1.49.99-3.474.99-1.985 0-.993 0-2.481 1.486-1.49 1.486-.993 2.971-2.482 3.467-1.488.495-2.977-.99-2.977.495 0 1.486-.993 1.486-.497 3.962.497 2.476.497 2.971.993 3.962.496.99 0 3.466 0 3.466s-.496 1.486-.993 2.477c-.496.99-.992 1.485-.496 2.476.496.99 1.489 2.476 1.489 2.476"/>
            <path d="M122.327 62.8c1.489-.99 3.474-1.486 3.474-1.486s1.488-1.98 2.977-1.98c1.489 0 1.985 0 1.489 1.485-.496 1.486.992 3.962 2.481 3.962 1.489 0 2.481 0 3.97.99 1.489.99 3.474.99 2.978 1.981-.497.99 0-.495.496 1.981.496 2.477.496 1.981.496 3.467s.993 1.981 0 2.971c-.992.99-.496 1.981-.496 1.981s-2.978.496-1.489.99c1.489.496 1.985.991 2.978.991.992 0 1.488 1.486 1.985 1.486.496 0 1.488.99 1.488.99M97.018 18.724c-1.489.99.496.99-1.489.99s-2.481.496-3.97 0c-1.489-.495-2.481-.495-2.978-.99-.496-.495-1.488-1.981-1.985-.495-.496 1.485 0 2.476-.992 2.476-.993 0-.993-.495-2.481 0-1.49.495-2.978 0-2.482 2.476.497 2.476.497 1.98-.496 3.962-.992 1.98-.496 1.98-2.481 1.98-1.985 0-1.489-1.485-3.97 0-2.481 1.487-1.489.991-2.978 2.972-1.488 1.981-2.481.99-2.481 2.476s2.481 2.477.993 4.458c-1.49 1.98-2.482 2.476-4.467 1.98-1.985-.495-2.481.496-4.466 0-1.985-.495-.496-1.485-1.985-.495-1.489.99-1.985 3.467-1.985 3.962 0 .495.1 9.806.1 9.806M1.687 130.945c.596-1.238 2.382-.892 3.722-1.288.893-.247 1.638-.94 2.382-1.535a20.457 20.457 0 0 1 6.055-3.467c.248.198.496.396.694.595a975.585 975.585 0 0 1 7.196-3.566c1.687-.842 3.523-1.783 4.218-3.516.248-.595.347-1.238.645-1.833.298-.594.844-1.09 1.489-1.04.546.05.993.495 1.39.892 2.58 2.624 6.054 4.358 9.726 4.754-.149 1.189-.794 2.328-1.737 3.12-.298.248-.645.495-.744.842-.1.297 0 .594.1.891.992 2.922 2.034 5.844 3.026 8.766.546 1.634 1.142 3.318 2.432 4.457.595.545 1.39.99 1.935 1.585.546.594.894 1.585.447 2.278 2.878-.297 5.756-.594 8.635-.842.794-.05 1.687-.099 2.332.347.348.247.596.594.943.842.893.594 2.134.05 3.226.148.943.05 1.836.644 2.779.595 2.084 0 4.268-2.576 6.203-1.882M45.16 184.084c.446-.297.595-.99.347-1.436-.844.148-1.787-.149-2.333-.793 1.985-.346 3.176-2.922 2.184-4.655-.943.693-2.233 1.04-3.424.842-.497-.05-1.043-.248-1.39-.644-.744-.792-.397-2.13.347-2.971.745-.842 1.737-1.337 2.531-2.03 1.042-.991 1.737-2.378 1.787-3.864 0-.198 0-.396.1-.544.148-.248.495-.347.793-.496 1.39-.693 1.687-3.12 3.275-3.07.546 0 .993.347 1.49.545.495.198 1.14.247 1.488-.149.149-.149.149-.396.198-.594.199-1.486-.05-3.22.943-4.358.447-.496 1.092-.793 1.539-1.337.397-.496.595-1.189 1.141-1.486.298-.149.596-.149.893-.149 1.737-.05 3.474-.099 5.26-.148.298 0 .546 0 .795.148.248.149.347.396.496.644.446.842.843 1.733 1.29 2.575a.77.77 0 0 0 .298.396c.298.199.695.05.992-.148 1.936-1.189 3.375-3.12 4.02-5.3.347-1.188.496-2.525 1.44-3.317 1.041-.892 2.877-.941 3.324-2.229M44.762 142.979c.546.198.695.941.348 1.436a2.196 2.196 0 0 1-.745.595c-1.141.693-2.233 1.337-3.374 2.03a4.457 4.457 0 0 1-2.382-2.179c-.794.545-1.34 1.387-2.035 2.03-.695.644-1.787 1.14-2.63.694a8.03 8.03 0 0 0-1.24 4.506c0 .298.049.595.198.892.248.446.694.693 1.042.99 1.24 1.14 1.042 3.12.744 4.755-.347 2.08-.695 4.11-1.092 6.19M.844 180.865c.149-.595 1.042-.644 1.637-.495.596.198 1.34.445 1.836.049.199-.149.348-.446.546-.594.298-.248.645-.248.993-.297l4.615-.446c.794-.1 1.638-.198 2.084-.842.447-.644.596-1.882 1.39-1.733-.15-.297-.348-.644-.298-.99.05-.347.347-.694.695-.595.149.05.298.198.446.297 1.043.842 2.531.347 3.822.05 1.439-.298 2.977-.298 4.466-.248 3.623.099 7.245.297 10.868.644-.248.545-.496 1.139-.546 1.733-.05.594.298 1.288.893 1.436.348-.198.645-.346.993-.544.595.148 1.141.297 1.737.445.099.297-.348.446-.596.644-.496.396-.198 1.238.347 1.535.546.297 1.191.297 1.837.396.595.1 1.29.496 1.34 1.09"/>
            <path d="M.347 145.208c.844-.149 1.588-.595 2.432-.793.844-.198 1.886.05 2.233.793.149.297.149.693.199 1.04.099 1.287.496 2.575 1.091 3.714.497-.545.794-1.238.894-1.981.496-.297 1.042.446.943 1.04-.15.594-.596.99-.844 1.535-.645 1.436.496 2.972 1.588 4.16l2.829 2.972c.545.544 1.091 1.139 1.836 1.436.744.297 1.687.148 2.084-.495.248-.347.248-.793.447-1.14.397-.792 1.439-1.188 2.233-.841.595.247 1.042.842 1.687.891.347 0 .645-.099.993-.198.992-.248 2.084.099 3.076.396-.149 1.288-.099 2.972 1.142 3.467 1.042 1.09 1.29 2.872.595 4.259-.099.148-.198.347-.198.545-.05.643.794.891 1.439.842 2.283-.1 4.516-1.288 6.7-2.031.595-.198 1.14.1 1.736-.05.199.496.397.991.645 1.486.794-.842 2.283-.891 3.127-.099.595.545.893 1.337 1.538 1.783 1.34.792 3.226-.495 4.615.248M57.268 143.573c.248.248 0 .694-.298.941-.447.396-.893.793-1.34 1.238-.446.397-.843.793-1.19 1.288-.745 1.04-.844 2.427-.795 3.714a14.044 14.044 0 0 0 2.035 6.438"/>
        </g>
    </g>
</svg>
