<svg xmlns="http://www.w3.org/2000/svg" width="292" height="216" viewBox="0 0 292 216">
    <g fill="none" fill-rule="evenodd">
        <path fill="#1F6CC6" d="M.25 95.25s2.49-.5 4.484-1.5l3.986-2c1.993-1 1.993-.5 4.983-2 2.99-1.5 4.983-4 5.98-4.5l.996-.5s6.478-6.5 8.97-10.5c2.49-4 2.99-7.5 4.982-9.5 1.994-2 4.983-8.5 6.977-11 1.993-2.5 4.484-8 4.982-9.5.499-1.5 1.495-2 1.495-3s-.996-3-.498-4.5.997-5.5 1.993-8.5c.997-3-.996-.5.997-3 1.993-2.5 2.491-.5 3.488-3.5.996-3 1.495-6 1.993-7.5s.498-6 2.491-6.5c1.994-.5 4.485.5 5.98-.5s0-2 2.99 0 2.99 2.5 8.47 1.5c5.482-1 5.482.5 9.468.5 3.987 0 4.485-.5 5.98-1s.498 2.5 2.99 0c2.491-2.5 1.495-4.5 3.986-3s3.986 2 6.976 1c2.99-1 7.973 0 8.97-1 .996-1-2.99-4 .498-4 3.488 0 1.495 1.5 3.488 0 1.993-1.5 2.491-.5 4.484.5 1.994 1 4.485 1 9.966.5 5.481-.5 3.488 1 9.966 0s8.471-2.5 8.97 0c.498 2.5 1.494 3 4.484 4.5s2.99 2 5.98 5 4.484 5.5 5.98 6c1.494.5 0 1 1.494 3.5 1.495 2.5 2.99.5 3.986 3.5.997 3 .499 4 3.987 2s.996-3 3.488 0c2.491 3 9.966 0 9.966 0s-1.994 1.5 1.494 2 3.488 3 4.485 4.5c.997 1.5 2.492 2.5 2.99 5 .498 2.5-.498 4.5 1.495 6.5s4.484 1.5 2.99 3.5c-1.495 2-.997 6 1.494 5.5 2.492-.5 4.485-1.5 4.485 2s-4.485 4 0 3.5 3.986-4.5 5.98-.5c1.993 4 2.491 5.5 4.484 7.5 1.993 2 3.987 4.5 1.495 4-2.491-.5-3.488 2-.997 2.5 2.492.5 2.99-2 3.987 1 .996 3 1.495 4.5 3.986 5 2.492.5 1.993-2.5 4.485 0 2.491 2.5 3.986 3.5 5.98 5 1.993 1.5-1.496 2.5 1.993 5 3.488 2.5 4.484 4.5 6.976 5.5 2.491 1 1.494 2.5 3.488 4 1.993 1.5 3.488 2 1.993 4.5-1.495 2.5-3.987 3-2.99 5.5.997 2.5.997 5.5.997 5.5s3.488 0 4.484 2c.997 2 0 2.5 2.99 4s2.492 0 2.492 4-2.99 6.5-1.495 9.5 2.491-1 2.99 4.5c.498 5.5-.499 5.5-2.492 7.5l-1.993 2s-.499 4.5 2.491 7.5 3.987 3.5 5.481 5c1.495 1.5-.498 2.5.997 4s3.986 4 4.485 2c.498-2 .996-5.5 3.488-3.5 2.491 2 2.99-.5 4.983 2.5 1.993 3 2.491 3 2.491 5.5s-1.495 2 1.495 5 3.986 5.5 4.485 7.5c.996 4 2.491 0 .996 4s1.495 4 .499 7c-.997 3-1.994.5-2.492 3s1.495.5.498 4c-.996 3.5-.498 2 .997 4.5s1.993 4.5.997 5.5c-.997 1-4.485-.5-4.485-.5s-4.983-1.5-8.97.5c-3.986 2-9.965 2-11.958 1-1.994-1-2.492.5-5.482-.5s-3.986 0-7.474 1.5-5.98 3.5-7.973 2.5c-1.993-1-6.478-6-8.47-4-1.994 2-.997 2.5-3.987.5s-3.986-1-7.474-2.5c-3.489-1.5-1.495-2.5-4.485-4s-1.993 2-4.983 2c-2.99 0-4.485-1-4.485-3v-5s-6.976 0-8.969-.5c-1.993-.5-.997 2.5-4.485 1-3.488-1.5-7.474-2-7.474-2h-78.232s-.997-1-4.485 1c-3.488 2-8.969 6-13.454 8-4.484 2-1.993 3.5-7.972 3.5-5.98 0-7.475-1-10.465-1s-.996-1-6.477-1c-5.482 0-.997-2.5-5.482 0-4.484 2.5-2.491 1-7.474 3-4.983 2-5.481 3.5-7.973 3-2.491-.5-4.983 0-7.474-.5-2.492-.5-7.474-1.5-6.976-3.5.498-2-3.987-2.5.996-4.5 4.983-2 7.475 1 4.983-2-2.491-3-4.983-3.5-4.484-4.5.498-1 0-2.5.996-3.5.997-1-.996-3.5-.996-3.5s-1.495-1.5-.499-3c.997-1.5 1.495-5 1.994-6.5.498-1.5-.997-5.5.498-6.5s1.993-3.5 3.986-3 24.915.5 24.915.5h13.952s.498-3.5.997-6c.498-2.5-1.495-2.5 2.491-3 3.987-.5 1.993-1 6.976-1s.997.5 4.983 0c3.987-.5 4.485.5 8.471 0 3.987-.5 3.488 1 4.983-2 1.495-3 0-6.5 1.993-7.5s3.987-.5 6.478 2c2.492 2.5 5.481 2 7.973 3 2.491 1 2.491-.5 4.983 2.5 2.491 3 .996 3 3.986 3.5s2.492-.5 5.98.5c3.488 1 4.484 3 8.969 4.5 4.485 1.5 3.488 0 6.976.5s3.986.5 5.481-1.5c1.495-2 .499-3 3.987-2.5s5.48 1 7.972-.5 4.485-3.5 2.492-6c-1.993-2.5 0-4.5-3.987-5.5-3.986-1-5.48-2-7.972-.5s-1.993 2-5.98 2.5c-3.986.5-4.983 2.5-6.976 2.5-1.993 0-6.478-1-6.976-3.5-.498-2.5-1.495-6.5-3.986-6.5-2.492 0-3.987-.5-5.482.5-1.494 1-3.488 2-4.484.5-.997-1.5-1.993-5.5-4.485-6.5-2.491-1-2.491-.5-5.481-1-2.99-.5-3.488-3-6.478-1-2.99 2-5.98 3-5.98 3s-.996-2.5-3.986-1.5-6.976 1.5-6.976 5.5-2.99 4-2.99 4l-48.334.5s-.498-2.5.498-4c.997-1.5-3.986 2-3.488-.5.498-2.5-2.491-3.5 0-5 2.492-1.5-.996-1 2.492-1.5s3.986 0 2.99-2.5c-.997-2.5-1.496-2-4.485 0-2.99 2-3.987 3.5-3.987 3.5s-2.491-1.5-2.491-3-.997-3 0-4.5c.996-1.5 2.491-3 3.986-2.5s2.99 1.5 3.488 0c0 0 1.495-4 0-3.5s.499 0-1.495.5c-1.993.5-4.484 1.5-4.484 1.5l-3.488 4.5s.498-6 0-7c-.499-1 .498-3-1.993-3.5-2.492-.5-3.489-3-3.489-3s.499-2-.996-3-1.993-1-1.993-3 1.495-3 0-4-4.983-2-5.98-4c-.996-2-2.491-5-4.983-7.5-2.491-2.5-3.986-3.5-5.98-4.5L.25 95.25z"/>
        <g stroke="#FFF" stroke-linejoin="round">
            <path d="M16.25 87.43c.499 3.009.998 3.51 1.497 5.516.499 2.006 1.497 2.507.998 4.513-.5 2.005-.998 6.518-.998 6.518M37.707 59.852c1.996 1.003 2.495.501 1.996 2.507-.499 2.006-2.994 1.504-1.497 4.513 1.497 3.008.998 4.011 2.994 5.515 1.996 1.505.5 4.513 2.495 4.012 1.996-.502 3.992-3.51 3.992-3.51s.5-4.012 3.493-5.014c2.995-1.003 3.993-3.51 4.99-.502.999 3.009-2.993 1.504.999 3.009 3.992 1.504 2.994 1.504 2.994 3.51 0 2.005 0 5.014 1.996 7.02 1.996 2.005 2.495 3.008 3.493 4.011.998 1.003-.5 3.51-3.493 2.006-2.994-1.504-2.495-2.006-4.99-3.009-2.495-1.003-2.994-1.003-5.989-.501-2.994.501-5.489 1.504-6.986 2.006-1.497.5-3.992-1.003-3.493 1.504.5 2.507 0 .501.998 4.011.998 3.51-.499.502.998 3.51 1.497 3.009 1.996 4.012.998 5.516-.998 1.504.5 4.011 1.996 4.011 1.497 0 1.996 1.504.998 3.009-.998 1.504-2.495 3.008-4.49 4.011-1.997 1.003-2.995-1.003-3.494 1.504-.499 2.508-1.996 3.009-1.996 6.018 0 3.008.5 1.002 0 3.008-.499 2.006.5-.501-.499 2.006l-.998 2.507M100.084 144.091c.499-1.003.499-1.504-1.497-1.504s0 .501-1.996 0c-1.996-.502-2.994-2.006-3.493-1.504-.5.501-1.497 2.005-1.996 2.507-.5.501-.5.501-1.996-1.003-1.498-1.504-2.496-1.504-1.997-3.009.5-1.504 1.997-.501.5-2.507-1.498-2.005-2.496-2.005-2.995-3.008-.499-1.003-.998-1.505-.998-2.006 0-.501-.998-1.504-1.996-2.006-.998-.501-2.495-2.507-2.495-3.008 0-.502-.499-1.505-1.497-.502-.998 1.003-1.996 1.003-1.996 1.003s-1.996 0-2.994-.501c-.998-.502-2.495-1.003-2.495-1.505 0-.501-.499-1.504-1.497-2.005-.998-.502-2.994-.502-2.495-1.505.499-1.002-.998-2.507-.5-3.51.5-1.002.5-2.005.999-2.507.499-.501 1.996-2.005-2.994-1.002-4.99 1.002-2.994 1.002-3.992 1.504-.998.501-1.497.501-2.495 2.507-.998 2.006-.998 2.507-1.497 3.51l-.5 1.003 2.496 1.504s1.996-.501 2.994 1.003c.998 1.504 1.497 1.504.998 2.507-.5 1.003 0 1.003-.5 2.006-.498 1.003-2.494-1.003-.498 1.003 1.996 2.005 1.497 2.005 1.996 3.008.499 1.003.998 3.51.499 4.011l-1.996 2.006c-.5.502.499 2.006.499 2.006s.499 2.006 1.996 2.507c1.497.501.499 2.006 1.497 3.009.998 1.002 3.493 4.512 3.493 4.512"/>
            <path d="M65.652 84.923c2.495-1.003 1.996-1.504 2.994-2.006.998-.501 1.996-.501 3.493 0 1.497.502 3.493 0 4.99 0 1.497 0 2.495-.501 3.493 0 .998.502.5 1.003 1.497 2.006.998 1.003-.499.502 1.497 2.006 1.996 1.504.998 0 1.996 1.504s.998 2.507.998 2.507-.499 1.504-1.497 2.507c-.998 1.003-1.497-.501-1.996 1.505-.499 2.005-.499 1.504-.998 3.008s-.499 3.51-.998 4.513c-.499 1.003-2.495 2.507-2.495 2.507s-1.996 2.006-3.992 2.006-2.495-1.003-4.491-.502c-1.996.502-3.493.502-4.491-.501-.998-1.003-.5-.502-2.495-1.504-1.996-1.003-2.495-1.505-3.992-1.003-1.497.501-3.493.501-3.992 0-.5-.502-1.996-1.003-1.996-1.003h-4.99l-1.597 1.604"/>
            <path d="M79.874 127.895c.25-.902-.749-2.908-.25-3.911.5-1.003.5-2.006 1.497-3.51.998-1.504 0-1.504.5-2.507.498-1.003 1.496-2.006.498-3.009-.998-1.002-1.497-2.005 0-3.51 1.497-1.504 2.495-3.008 2.994-3.008.5 0 1.497-1.504 2.495-2.006.999-.501 0-1.003 1.997-2.006 1.996-1.002 1.996-1.002 3.493-1.002 1.497 0 2.495 1.002 3.992 0 1.497-1.003.998.501 1.497-1.003.499-1.504.998-3.51 1.497-4.513.499-1.003-.998-1.003-.998-2.507 0-1.504-1.497-3.51-.998-4.012.499-.501-.998-.501-1.996-.501s-2.994.501-3.493 0c-.5-.501-2.994-1.003-2.994-1.003s-2.496 0-2.995 1.003"/>
            <path d="M126.532 143.59c.499-1.003 1.497-2.006 1.497-2.006l2.994-1.504s.499-1.003 2.994-1.505c2.495-.5 2.495-.5 2.994-2.005.499-1.504 0 .501.499-1.504.499-2.006.499-3.51 1.996-3.009 1.497.501 0-1.504.499-2.507.499-1.003-.5-3.51-.5-5.014 0-1.505.5-2.508 0-3.51-.498-1.003-1.995-3.009-1.995-4.012V104.98s-6.986-1.504-8.483-2.507c-1.497-1.003-3.493-2.006-3.493-2.507 0-.502 0-1.003-.998-.502-.999.502-1.498 1.003-2.496 1.505-.998.501-1.996 2.005-5.489 2.005s-9.481-2.005-11.976-3.008c-2.495-1.003-4.99-3.41-4.99-3.41M268.251 162.644c-.499 1.003 1.498.501-.499 1.003-1.996.501-2.495-1.505-2.994.501-.499 2.006-2.495 2.006-2.495 2.006s-.998.501-1.497-.502c-.499-1.002-1.497-.501-2.495-1.504-.998-1.003-1.497-1.003-2.994-2.006l-1.497-1.002c-1.497-1.003-1.996-2.508-2.495-1.003-.499 1.504-1.497.501-.499 2.507.998 2.006 1.497 2.006 1.497 3.008 0 1.003-1.497 2.006-2.495 1.505-.998-.502-.499-.502-1.497 1.003-.998 1.504-.5 2.005-1.996 1.002-1.497-1.002-.5-1.504-2.495-.501-1.996 1.003-1.497 0-2.495 2.006-.998 2.005-1.497 2.507-1.996 2.005-.5-.501-1.497 0-1.497 0s-1.497 1.003-1.996 0c-.5-1.002-1.996-2.005-2.995-.501-.998 1.504-1.497 2.507-2.495 3.51-.998 1.003-.499 3.008-2.994 2.507-2.495-.501-2.495 1.003-2.994 2.006-.499 1.003.5 3.008-1.497 1.504-1.996-1.504-2.994-2.507-3.992-3.009-.998-.501-1.497-1.504-2.495-1.002-.998.501-1.996.501-3.992 1.504-1.996 1.003-2.994.501-2.994.501s-3.493-1.504-3.992-1.003c-.5.502-2.994 1.003-1.497 2.508 1.497 1.504 3.493 0 3.493 2.005 0 2.006-.998 3.009-.998 3.009l1.497 2.507s-.998 1.003.499 1.504c1.497.502 1.996-.501 1.996 1.504 0 2.006 0 2.508.499 3.51.499 1.003.499 2.508 0 2.508-.5 0-1.497 1.504-1.497 1.504M174.936 156.125c.499-.501 1.996-3.008 2.495-1.002.499 2.005-1.497 2.507-.499 3.008.998.501 2.994-.501 3.493.501.5 1.003-.499 1.003-.998 2.006s-.998 2.006.499 2.507c1.497.502 1.996-2.005 2.495 0 .5 2.006-.499 3.009 0 3.51.5.502-.998-1.504.5.502 1.496 2.005 2.993 2.507 3.492 3.008.5.502.5.502 0 2.006-.499 1.504-.499 1.003 0 2.507.5 1.504.998 1.003 1.497 2.507.5 1.504-.998.502.5 1.504 1.496 1.003 1.995 1.003 1.995 2.006s1.497.502.998 2.507c-.499 2.006-.499 2.006.5 3.009a8.656 8.656 0 0 1 1.496 2.006s-1.497 0-.998 1.504c.5 1.504 0 1.504 0 2.507 0 1.003-.499 2.507.5 3.51.997 1.003 0 1.504 2.494 1.504 2.496 0 2.995.502 2.995.502l1.497 2.005"/>
            <path d="M230.326 78.906c.998 2.006 1.497 2.507 2.995 4.011 1.497 1.505 1.497 2.508 1.497 2.508s.998 2.005.499 3.51c-.5 1.504-.5 2.005-1.497 4.512-.999 2.507-.5 1.003-1.997 4.012-1.497 3.008-2.495 3.51-3.493 5.515-.998 2.006-1.497 3.009-3.493 2.507-1.996-.5-1.996.502-5.489 0-3.493-.5-4.491-.5-6.986-1.002s-5.988-1.003-7.485-1.003c-1.497 0-2.495-.502-4.491 1.504-1.996 2.006-3.993 2.006-5.989 4.513s-3.992 3.51-3.992 3.51l-14.471.501s-19.462-7.521-20.46-8.023c-.998-.5-1.996-1.002-2.994-2.507-.998-1.504-2.495-2.005-2.495-2.005s-.998 0-2.495 2.005c-1.497 2.006-1.996 2.507-3.992 3.009-1.996.501-5.888 1.404-5.888 1.404"/>
            <path d="M180.924 26.256c0 1.003-.998 0-.998 2.006s1.497 2.507-.499 3.009c-1.996.501-4.491 1.504-4.491 1.504s-1.497 2.006-1.996 3.008c-.5 1.003-5.988 8.023-8.982 10.53-2.994 2.508-4.492 5.516-5.989 6.519-1.497 1.003-1.497 2.507-1.497 2.507l-2.994-4.011-7.984-4.012s1.497 3.009 1.996 3.51c.5.502 1.497 1.504 1.497 2.507 0 1.003-1.497 2.006-1.497 3.009 0 1.003.5 0 .5 2.006 0 2.005-1.498 2.005-.5 3.008.998 1.003 1.996 2.006.998 3.009-.998 1.003-.499 1.504-1.497 1.504-.998 0-1.996-1.003-2.495.501-.499 1.505-.499 3.009-.998 5.015-.499 2.005-.998 3.008-.998 4.512 0 1.505-.998 3.51.998 4.513 1.996 1.003 1.497.502 3.493 2.006 1.996 1.504 2.994 3.51 3.493 6.017.5 2.507.998 3.51 1.996 5.516.998 2.005 1.497 3.008.5 4.011l-2.995 3.009M46.69 42.803c.498.502 5.489.502 6.986.502 1.497 0 4.49-1.504 5.988-2.006l1.497-.501 2.495-4.012 1.996-2.005s.998-2.507 3.493-3.009c2.495-.501 3.493-1.003 4.99-2.006 1.497-1.002 3.493-1.002 3.493-2.005s-1.497.501 0-1.003 1.996-3.51 2.994-2.006c.998 1.504 1.497 1.003 3.493 3.51 1.996 2.507 2.994 4.012 3.992 5.014.999 1.003 3.494 4.012 3.494 4.012s-.998-1.003.499-2.507c1.497-1.505 4.49-1.505 4.49-1.505l30.94.502s4.99 3.51 5.988 3.51c.998 0 4.49-.502 5.489 0 .998.501 2.994 1.003 6.487 10.028"/>
        </g>
    </g>
</svg>
