<svg xmlns="http://www.w3.org/2000/svg" width="289" height="256" viewBox="0 0 289 256">
    <g fill="none" fill-rule="evenodd">
        <path fill="#1F6CC6" d="M288.29 91.434s-3.108-.518-5.699 0c-2.59.518-6.216 0-6.216 0h-2.59s-1.036 2.072-1.036 3.627v5.698s-4.663 2.072-6.217 1.036c-1.554-1.036-7.252-2.59-7.252-3.108 0-.518-3.109-1.554-3.627-3.108-.518-1.555-1.554-3.627-1.554-4.145 0-.518-2.072.518-2.072-2.072s0-5.698.518-6.734c.518-1.037 2.072-2.59 2.59-3.627l2.072-4.144c1.036-2.072 1.036-3.108 2.59-4.144 1.555-1.036 3.627-.518 4.663 0 1.036.518 6.216 4.144 6.734 4.144.518 0 1.555-1.036 1.555-1.036s-2.073-2.072-1.037-3.626c1.037-1.555 1.555-2.073 1.555-2.59V47.4c0-.518.518-4.145-.518-5.18-1.037-1.037-1.555-3.109-1.555-4.145v-3.108l-2.072-2.072s0-1.555-1.036-3.109-4.144-5.18-3.626-6.216c.518-1.036 0-3.626 0-5.18 0-1.555-3.108-10.88-3.108-10.88l-1.036-3.108s-.518-.518-2.073 0c-1.554.518-1.554-.518-3.626-1.036s-2.072 0-4.144.518-3.108-.518-4.145.518c-1.036 1.036-2.59 1.036-3.108.518l-1.554-1.554c-.518-.518-3.108 1.036-3.108 0s-2.59-2.072-2.59-2.072-4.145-1.554-4.663-1.036c-.518.518 0 0-2.59.518s-2.072 0-3.626.518c-1.554.518-3.626-.518-4.145 1.554-.518 2.072-.518 3.108-2.59 4.145-2.072 1.036-3.108 1.036-4.144 1.554s-2.59.518-3.626.518-4.663 1.554-5.18 3.108c-.519 1.554 1.035 1.036-1.037 2.59-2.072 1.554-4.144.518-3.626 2.072.518 1.554 0 2.072-1.036 3.109-1.036 1.036-3.108.518-3.626 2.072-.519 1.554.518 2.59-1.555 2.59-2.072 0-3.626 1.036-5.18 2.072-1.554 1.036-1.554 1.554-3.108 3.108s-1.554 3.109-1.554 4.145c0 1.036-1.555 2.072-1.555 3.626 0 1.554-1.036 2.59-1.036 3.626s-.518 1.554-2.072 2.072-1.554.518-2.072 2.073c-.518 1.554-1.554 2.072-2.59 2.59-1.036.518-1.554.518-3.626 1.036-2.073.518-4.145.518-4.663 1.036-.518.518-2.072.518-1.554 1.554s0 3.108-.518 4.662c-.518 1.555-2.59 8.29-4.144 10.361-1.554 2.072-2.072 4.145-5.18 3.627-3.109-.518-5.181-.518-5.181-.518s-1.036 1.554-2.59 2.072c-1.554.518-2.59-.518-3.627-.518-1.036 0-2.59-2.073-3.626-1.554-1.036.518-2.072.518-2.59 0-.518-.519-1.554-2.59-2.59-2.073-1.036.518-3.627 0-4.145 0-.518 0-4.144-3.108-6.216-4.662-2.072-1.554-4.662-4.144-6.735-2.59-2.072 1.554-3.626.518-4.662 2.59s-2.072 3.108-2.072 4.662c0 1.554-1.554 1.554-1.036 3.109.518 1.554.518 1.036 0 2.59-.518 1.554 1.036 2.072-1.036 3.108s-2.59 2.072-3.109 2.59c-.518.518-2.072.518-2.59 1.554-.518 1.036 0 .518-1.554 1.554-1.554 1.037-.518.519-1.554 2.59-1.036 2.073-2.072 4.145-4.144 3.627-2.073-.518-3.109-.518-3.109.518s-.518 3.626-2.59 3.108c-2.072-.518-3.626-1.554-4.662-1.036s-2.072 1.554-3.108 1.036c-1.037-.518-1.555-.518-3.109-1.036s-1.036-1.036-2.59 0c-1.554 1.036-2.59 3.626-3.108 1.554-.518-2.072-1.554-5.18-1.036-6.734.518-1.554.518-2.59 1.554-4.145 1.036-1.554 2.59-2.072 2.59-3.626 0-1.554-.518-5.18-1.036-6.216-.518-1.036-2.072-3.627-2.59-5.699-.518-2.072-2.072-6.216-3.108-7.252-1.036-1.036-2.073-2.59-3.109-3.627-1.036-1.036-4.662-2.59-4.662-2.59V122s-5.18 3.108-6.217 2.59c-1.036-.518-1.554-1.036-2.072.518a21.781 21.781 0 0 1-1.036 2.59s0 1.554-2.072 1.036-2.59-.518-2.072 1.036c.518 1.554.518 2.072 0 2.59-.518.519-1.036 1.037-2.59 1.037-1.554 0-3.109-1.037-3.627-1.555-.518-.518-1.036-.518-2.59-.518-1.554 0-3.626 0-4.662.518s-3.626-1.036-4.663 0c-1.036 1.037-3.108 0-3.108 0s0-1.036-2.59-1.554-3.108-1.036-4.144-.518-2.59-1.554-2.59-1.554-2.073 0-1.555-.518-.518-2.59-1.036-3.108c-.518-.518 1.554-2.59.518-3.626-1.036-1.037-.518-3.109-1.554-2.59-1.036.517-1.036 1.553-1.554.517s-.518-2.59-1.554-3.108c-1.036-.518-1.036-2.072-2.072-1.036s-2.072 0-2.072 1.036-2.073 1.554-1.554 3.108c.518 1.555-.519 1.555-.519 1.555s.519.518 0 2.072l-.518 1.554H2.85l-2.59 2.59s1.036.518 1.554 1.554.518 3.626 1.036 3.626 1.036 1.037 2.072 2.073 2.59 5.698 3.109 6.734c.518 1.036 1.554 3.108 2.072 5.18.518 2.073 1.554 6.217 2.072 7.771.518 1.554 2.072 7.253 3.108 8.807 1.036 1.554 2.072 4.662 3.108 6.216 1.037 1.554 1.037 1.554 1.555 3.109.518 1.554 1.036 3.626 2.59 5.18 1.554 1.554 3.108 4.662 3.626 5.698.518 1.037 3.626 2.59 3.626 4.145 0 1.554.518 2.072 1.036 3.108s1.555 2.072 1.555 3.626c0 1.554-1.037 2.59 0 4.145 1.036 1.554 1.036 4.144 1.036 5.18 0 1.036.518 2.59 0 3.626s-1.554 3.109-2.073 3.627c-.518.518-1.554 1.554-2.59 1.554-1.036 0-2.072-1.554-2.072-1.554s-.518-.518-1.036 1.554-.518 2.59 0 3.626 1.554 1.554 1.554 1.554.518 0 .518 1.554 1.036 1.554 1.554 3.109c.518 1.554 1.036 2.072 2.072 3.108 1.037 1.036 2.59 0 2.073 2.072-.518 2.072.518 3.108 1.036 3.626.518.518.518 1.554 1.036 2.59.518 1.036.518 2.073 0 2.59-.518.519.518-1.035-.518 0-1.036 1.037-2.072.519-1.554 2.073.518 1.554-.518 1.036-.518 1.036l1.036 1.036c-1.036 1.554-.518 1.036 0 2.072s2.072 3.626 2.072 3.626-1.036-3.108-1.036-4.144.518-2.59 2.072-2.072c1.554.518 2.072 0 2.59 0 .518 0 1.554 0 2.072.518s-.518 1.036 0 2.072 1.554 1.554 1.036 2.072-1.036 1.554-1.036 1.554h1.036s2.073.518 2.59 0c.519-.518 2.073-1.036 2.073-1.036s-1.036 2.072 0 2.072h2.59c1.036 0 1.554 0 1.554 1.037 0 1.036.518 0 0 1.036l-1.036 2.072h1.036s2.072-.518 2.072.518 1.554 1.554 2.072 2.072 1.036 0 2.073.518c1.036.518 1.554-1.036 2.59 0 1.036 1.036 2.59 1.554 2.59 1.554l1.036-2.072s1.036-1.036 2.59-1.554c1.554-.518 2.072-1.036 2.59-2.072.519-1.036 2.073-2.072 2.073-2.072s2.072-1.037 3.108-.518c1.036.518 2.59 2.175 2.59.518 0-1.555 1.554-2.073 2.072-2.073s2.59-1.036 3.627 0c1.036 1.036 2.59 2.073 3.626 1.555 1.036-.519 2.072-2.073 2.59-2.073.518 0 1.554 0 3.108.518s3.109 1.036 3.627 0c.518-1.036 1.036-2.59 1.554-3.108.518-.518.518 0 2.59-2.072s3.108-2.072 4.144-1.554 1.554 0 3.108-.518c1.555-.518 3.109-.518 3.109-.518s2.072-1.036 2.072 0 .518 1.554 2.072 1.554 2.072-.518 3.108 0 2.59 0 3.627.518l1.036.518s-1.036-2.072 0-2.072 2.072-1.554 2.59-1.036c.518.518 2.072-.518 4.144.518s4.663.518 5.699 1.036c1.036.518 3.626 0 4.662 1.036s2.59 1.036 2.59 1.036 3.108 0 3.626.518c.519.518 2.59.518 2.59.518s-.517-1.036 0-1.554c.519-.518 1.037-1.036 1.037-1.554s.518-2.59 1.554-2.072c1.036.518 2.59 0 4.144.518 1.554.518 2.072 1.036 3.627 1.036h1.554l2.072.518s2.072 0 0-1.554-.518-4.145 1.554-4.663c2.072-.518 5.18-1.554 6.734-1.036 1.555.518 3.109 2.59 5.18 1.554l3.11-1.554c2.071-1.036.517-1.036 2.071-1.036 1.554 0 3.109-1.036 4.145-1.554 1.036-.518 1.036 0 2.072-1.036s2.59-1.554 3.108-2.072c.518-.518.518 0 1.554-1.036l2.072-2.072c1.036-1.036 2.072-1.555 3.109-2.073 1.036-.518 1.036-2.072 3.108-2.59 2.072-.518 3.626-2.59 4.144-3.108.518-.518.518 0 1.036-1.036s0-1.554 1.554-2.072 2.59-1.036 3.627-2.072c1.036-1.037 2.072-2.59 3.626-3.627 1.554-1.036 1.036-2.072 2.59-2.59 1.554-.518 2.072-2.59 2.59-3.108l4.145-4.144s.518-1.037 1.554-2.073 1.036-2.59 2.072-3.108c1.036-.518 1.036-1.554 2.072-2.072s2.072-1.036 2.59-1.554c.518-.518 1.554-2.59 2.59-3.108 1.037-.518 2.59-1.037 2.59-1.037s6.217-7.252 7.253-8.806c1.036-1.554 4.145-5.699 4.663-7.77.518-2.073 2.072-4.145 2.59-5.181.518-1.036 2.072-5.18 3.108-5.699 1.036-.518 2.59-2.072 2.59-3.108s-.518-3.626.518-4.144c1.036-.518 3.627-5.18 4.663-6.735 1.036-1.554 3.108-2.072 3.626-3.626.518-1.554 2.072-1.554 3.108-3.108s3.108-2.59 3.108-2.59 2.59-.519 3.627-2.073c1.036-1.554 1.554-1.554 2.59-2.59l2.072-2.072c.518-.518 1.036-2.072 1.036-3.108s1.036-3.627 1.554-4.663c.518-1.036 1.554-4.662 1.554-5.698 0-1.036 1.037-7.253 1.555-7.77.518-.519 1.036-4.663 2.072-6.735s.518-4.145 1.036-4.663c.518-.518-.518-1.554-.518-1.554zm-61.647 52.322c-.518 1.036.518 1.554-1.036 2.59-1.554 1.037-2.072 1.555-2.59 3.109-.518 1.554 0 3.108 0 3.108s-3.109 1.036-4.145 2.59c-1.036 1.554-2.072 1.554-4.144 2.072s-4.144-.518-5.18.518l-2.073 2.073c-1.036 1.036-.518 2.072-.518 2.072s-1.554.518-1.554 2.072.518 2.59-.518 3.108c-1.036.518-2.072.518-3.626 0-1.554-.518-3.108 0-4.144-1.554s-4.145-4.662-4.145-4.662-1.554 1.036-1.554 0 1.036-1.554 0-4.145c-1.036-2.59-2.072-3.108-2.59-4.144-.518-1.036-3.626-5.18-3.626-5.18s2.59-1.036 3.108-1.554c.518-.519 2.59-.519 3.108-1.037.518-.518 2.59-3.108 2.59-4.144s1.036-1.554 1.036-1.554 1.037-2.072 1.555-2.59c.518-.518 1.036 0 1.036-1.554s0-2.59 1.036-2.59h2.59l1.554-.519s1.036-.518 1.554-1.554 0-2.59 1.554-2.072c1.554.518 3.627.518 3.627 0s.518-3.108 1.554-2.59c1.036.518 3.626 0 3.626 0s2.072 4.144 3.626 5.18c1.554 1.036 2.59 2.073 4.145 3.109 1.554 1.036 1.036 1.554 3.108 2.59 2.072 1.036 2.59 2.59 2.59 3.626s-1.036 2.59-1.554 3.626z"/>
        <g stroke="#FFF" stroke-linejoin="round">
            <path d="M175.357 47.919c-.518 1.554-.518 3.108.518 3.626 1.036.518 3.626.518 4.144 1.036.518.518 1.554.518 2.59 0l4.145-2.072s-1.036 2.072.518 3.108 1.554 1.554 2.59 2.072c1.036.518 3.626.518 4.144 1.036.518.519 2.59 1.037 2.073 0-.519-1.036 0-2.59 1.036-2.072 1.036.518 3.626 1.554 4.662 1.036s2.59-2.072 3.626-.518l1.036 1.554s-2.072-.518-1.554.519c.518 1.036.518 1.554 1.554 2.59 1.036 1.036 2.59.518 1.554 2.072-1.036 1.554-1.036 2.59-2.072 2.072-1.036-.518-1.554-1.554-1.554 0s1.036 1.554 0 2.59c-1.036 1.036-3.108 1.036-2.072 1.036s-1.036 1.554-.518 2.59c.518 1.037-1.036 2.073-2.072 2.073s-2.59-2.072-3.626-1.036c-1.037 1.036-3.627 1.554-3.109 2.59.518 1.036 0 2.072-.518 3.108s-1.554 1.036-1.554 1.036.518 1.554 0 2.59c-.518 1.036-1.036 1.036-1.554 2.073-.518 1.036.518 2.072.518 2.072s1.554-2.59 3.108-1.554c1.554 1.036 3.109.518 3.109.518l-.519 5.18s0 2.59-1.036 3.108c-1.036.518-2.59 0-2.59 0s-2.59.518-2.59 1.036-1.036 1.036-2.072.518-2.59-1.554-2.59-1.554v1.554s.518-1.036-1.036-.518c-1.555.518-2.59-.518-3.109.518-.518 1.036-1.554 0-2.072 1.036-.518 1.037 0 2.073-1.554 2.59-1.554.519-.518.519-.518 2.073 0 1.554-.518 2.072 0 2.59.518.518-1.036 1.036-1.554.518s-1.036-.518-1.554 0-.518 0-1.036 1.554-3.627 1.036-3.109 2.59l.518 1.555-.518 1.036s-1.554-1.036-1.554-1.554c0-.519 0 0-1.554-1.037-1.554-1.036-3.108 0-3.108 0s-.518.518-1.554 1.037c-1.036.518-2.59-.519-3.108.518-.519 1.036-1.037 2.072-2.073 2.072s-1.036 0-1.554 1.036-1.036.518-1.554 1.554-1.554 1.554-1.554 2.072-1.036 1.554-1.036 1.554 1.036.518-.518 2.072-1.554 1.036-1.554 2.59c0 1.555-1.036 3.627-1.036 4.663v2.072s1.036 1.036 0 2.59c-1.036 1.554-8.289 16.06-8.289 16.06s-1.554 1.036 0 2.59c1.554 1.554 2.072.518 3.626 2.072l2.59 2.59c1.037 1.036 2.59-.518 2.59 1.554s1.037 3.627 1.037 3.627 2.072 3.626 4.662 5.18c2.59 1.554 3.108 2.072 4.144 2.59 1.037.518 0-.518 2.073 0 2.072.518 1.554 2.072 3.108 1.554s1.554-.518 3.108-1.554 2.072-.518 3.626-1.036c1.555-.518 1.555-.518 2.59 0 1.037.518 1.037 1.036 2.59.518 1.555-.518 1.037-.518 1.555.518s2.072.518 2.59 1.036c.518.518.518 1.036 1.554.518s1.554-1.036 2.072-.518 1.037.518 1.555 0 1.554-1.036 1.554-1.554 1.036-1.554 1.554-1.036 1.036.518 1.554 0 .518-2.072 1.554-1.036.518 1.036 1.036 0 .518-1.554.518-1.554l1.036-1.554M220.582 153.703c1.399.932 1.399 1.968 1.917 2.486.518.518-.518 1.036-.518 1.036s-1.555 0-1.555 1.037v1.036s-1.036.518-1.554 1.036-1.036.518-1.554 0-1.554.518-1.036 1.554 0 1.036.518 2.072 1.036.518 1.554 1.554.518 1.554 1.554.518 0-1.554 1.036-1.036c1.037.518 2.073 2.59 3.109 2.59h2.59c.518 0 1.554-1.036 2.59 0 1.036 1.036 1.554-.518 2.59.518 1.036 1.036 2.072.518 2.59 1.036.519.518 2.59.518 2.59 1.036 0 .519 1.037 1.037 1.555 1.555s1.554.518 2.072 1.554a5.162 5.162 0 0 1 .518 2.072l.984 1.036M260.005 99.153c-.725 1.088.31 1.606-1.244 1.606s.519-1.036-1.554 0c-2.072 1.036-2.59 1.036-3.108.518-.518-.518-.518.518-1.554 0s0-.518-1.554-1.036-1.036-.518-2.59 0c-1.554.518-3.109.518-3.109 0s-.518-1.554-1.554-.518 0 0-1.554 1.036-2.072 1.036-2.072 1.036h-3.108c-1.554 0-1.036 0-1.554 1.036s-2.59.518-2.073 1.036c.519.518 0 0 .519 1.554.518 1.554 0 0-.519 1.554-.518 1.555 0 1.037 0 2.59 0 1.555 1.037 3.109 0 3.627-1.036.518-2.59.518-2.072 1.554.518 1.036 1.554 2.072 1.036 3.108s0 1.554-1.036 1.554-.518-.518-1.554.518c-1.036 1.037-2.59 1.037-3.108 2.073-.518 1.036-1.036 0-1.554 1.036s-.518 1.554-1.036 2.072-2.072 0-2.59.518c-.519.518-2.073 0-2.073 1.036s0 2.072-.518 2.59c-.518.518-.518 1.554-.518 1.554"/>
            <path d="M233.377 103.867c-1.554-.518-.518.518-1.554.518s-1.036-1.036-2.072-2.59c-1.036-1.554 0-1.036-1.554-2.072s-.518-.518-1.554-1.036-1.036-2.072-2.072-1.554-1.036 1.554-1.554.518-1.554-2.59-1.554-2.59-.519-1.555-1.037-1.037c-.518.518-1.036 1.037-1.554 1.037s-1.554.518-2.072 0c-.518-.519-1.554-1.037-1.554-1.037-1.036 1.037-1.554 1.555-2.072 1.037-.518-.519-1.554-1.037-1.554-1.037l-1.554-.518-1.555-1.036h-1.554c-.518 0-1.554.518-2.59-1.036-1.036-1.554-1.554-2.59-1.554-3.108 0-.518-1.554 0-1.554 0l-1.036 1.036c-.518.518-1.554.518-2.072.518s-2.59-1.036-2.59-1.036"/>
            <path d="M208.511 92.47c0-1.554.519-1.036 1.037-2.59.518-1.554 0-.518 1.036-1.554s.518-1.036 1.554-1.554 1.554-.518 2.59-1.036c1.036-.518 1.554-.518 2.072-1.036s1.036-1.036 1.036-1.554 1.554-1.555-.518-1.555-2.59.518-3.108 0c-.518-.518-2.072-2.072-2.072-2.59 0-.518-.518-1.036-.518-1.554s0-1.554 1.036-1.554.518-2.072 1.554-1.554 2.072 1.036 2.59 1.036c.518 0 1.036.518 1.554-.518s.518-2.072 1.036-2.59c.518-.518.518-1.554.518-2.072s-.518-1.555.518-2.073c1.037-.518 1.555-1.036 1.555-1.554s-.518-2.072.518-2.072.518-1.036 1.554-1.036 1.036-1.036 1.036-1.036.518-.518-1.554-.518-1.554-1.036-2.59 0c-1.037 1.036-2.59.518-2.59.518s-.519 0-.519-.518 0-1.554.518-2.072 1.036-1.554.518-1.554-1.036-1.555-2.072-1.036c-1.036.518-1.036 1.036-2.072 1.036s-1.036 1.036-.518 1.036 1.554 1.554.518 1.554h-2.072c-.518 0-.518 0-1.554.518s-3.109.518-3.109.518"/>
            <path d="M271.194 34.968c-1.554 0-1.554.518-1.554.518s0 2.59-1.036 1.554c-1.036-1.036-1.554-1.036-1.554-1.036s-.518.518-1.036.518h-1.554c-1.036 0-1.554 1.036-2.59 1.036-1.036 0-.518 0 0 1.036s0 1.036.518 1.554 1.554 1.036 1.554 1.036 0 1.554-.518 2.59c-.518 1.037 0 1.555 0 1.555s1.036 2.072 1.554 2.072.518.518 1.036 1.036-.518 0-1.036 1.036 0 1.036-1.036 1.036-2.072 1.036-1.554 1.554 1.554 1.036 1.554 1.036.518 1.554 0 1.554h-2.072s-1.036 1.554-2.072 1.554c-1.037 0-2.073-.518-2.073-.518s.518-1.036 1.036-1.554c.519-.518.519 1.036.519-.518s-.519-2.072-1.037-2.59c-.518-.518-1.036-1.036-.518-1.036s1.036.518 1.036-.518-.518 0-1.036-1.036 0-1.554-1.554-1.554-1.036.518-2.59-.518c-1.554-1.036-.518-2.59-1.554-2.072-1.036.518-1.036 1.036-1.554 1.554l-1.554 1.554c-1.036 1.036-1.036.518-3.109 0-2.072-.518-3.626-.518-3.626 0s-.518 0-1.036.518-1.036 0-1.036 1.554-.518 1.554-1.036 2.59c-.518 1.036-1.036 1.554-1.554 2.072s-2.072.518-2.59 1.554c-.518 1.036 0 1.036 0 2.073 0 1.036 0 1.036-1.555 1.036-1.554 0-2.072.518-3.108-.518s0-1.036-1.554-2.073c-1.554-1.036-2.072-1.554-1.554-2.59.518-1.036 1.036-.518 1.036-1.554s0-2.072-1.036-1.036-2.072.518-2.072.518-.518-.518-1.036 1.036-1.554 3.626-2.072 2.59-.518-1.554-1.037-1.554c-.518 0-.518 0-1.554.518s-2.072-.518-3.108 0 0 1.036-1.554 1.554 0 0-1.554 1.036c-1.554 1.037-2.59 1.037-3.108 1.555-.518.518-2.073 2.59 0 1.554 2.072-1.036.518-1.036 2.072-1.036s2.072-.518 2.072-.518M109.566 76.411s1.554 1.554 1.036 2.59c-.518 1.036-.518 2.072-.518 3.108 0 1.037-1.036 2.59 0 3.109 1.036.518 2.59 1.036 2.59 1.036s1.554.518 2.59 1.036c1.036.518.518.518.518 1.554v2.59s-1.036 2.072 0 2.59c1.036.518.518 1.037 0 1.555s-.518 2.072-.518 2.072.518.518 2.072 1.554 1.554 1.554 2.59 2.072c1.037.518 1.555 0 2.59 1.036 1.037 1.036 1.555.518 2.073 1.036s0 0 1.554 1.036 2.072 1.036 2.59.518c.518-.518 0-.518 0-.518h2.072v-1.554l1.554-.518v-1.036s.519-.518 1.037 1.554c.518 2.072.518 2.072.518 3.108s-.518 2.59.518 3.109c1.036.518 2.59 0 2.59 0s1.036-1.036 2.072-.518 1.554-.518 1.036 1.036-1.036 2.59-.518 3.108c.518.518 1.036 1.036 1.554 2.072s-1.554.518 0 1.036 1.554 0 2.072-1.554 1.036-1.036 1.554-2.59c.518-1.554 0-2.072 0-3.626 0-1.555 1.037-2.59 2.073-.518 1.036 1.036 1.036 0 2.59.518 1.554.518 2.072 1.036-.518 3.108s0 3.626 0 3.626-1.036 0 1.554 1.036M23.985 178.776c.622-1.865.622-2.383 1.14-3.937.518-1.554.518-1.554 1.554-2.59 1.036-1.036.518-3.109 1.554-2.073 1.036 1.037 1.554.519 3.108 0 1.555-.518 1.555-1.554 2.073-2.59.518-1.036 0-2.072 1.554-2.59 1.554-.518 1.554-1.036 3.108 0s2.072 1.554 3.108 2.59c1.036 1.036 2.072 1.036 2.59 2.072.519 1.037.519 1.555 0 2.59-.518 1.037-1.036 3.109-.518 3.627.518.518 1.555 3.108 1.037 3.626-.519.518 1.554.518 1.036 2.072s-1.036 2.59 0 4.145c1.036 1.554 1.554 1.036 1.036 3.626s-2.072 4.144-1.036 4.144 2.59.518 2.59.518 1.554-2.072 1.554-1.036.518 2.59.518 2.59l2.072 1.037c1.036.518 2.072 1.554 1.554 3.626s-.518-1.036-.518 2.072.518 2.072.518 3.626c0 1.554 0 3.109 1.036 2.59 1.036-.518.518 0 1.036-1.554s0-2.59 2.073-2.59c2.072 0 1.554-.518 3.108-1.036s1.554-1.554 2.59-2.59c1.036-1.036 1.554-2.59 2.072-1.036.518 1.554 1.554 2.072 0 3.108s-2.072 2.072-1.554 3.626c.518 1.554 2.072 3.627 2.59 4.663.518 1.036 1.554 2.59 2.59 3.108 1.037.518 1.037-.518 3.109 0s3.108 1.554 4.144 0 0-4.144 2.072-4.662c2.072-.518 2.59 1.036 3.626-1.037 1.037-2.072 0-2.072 2.073-3.626 2.072-1.554 2.072-1.554 3.108-2.072s1.036-1.554 3.108-2.072 3.108-1.036 4.663-.518c1.554.518 2.072 0 3.108-1.554s1.036-.518 1.036-2.59c0-2.073-1.036-1.555.518-3.627s.518-3.108 1.554-4.144 1.554-2.59 3.108-1.036c1.554 1.554 2.59 1.036 3.627 2.59 1.036 1.554 1.554 1.036 3.108 1.554s2.59 0 3.626 1.036l2.59 2.59 2.072-2.59s0-2.59 1.555-2.072c1.554.518 2.59-1.554 2.59-1.554s4.144.518 4.144 0 1.036.518 1.554 1.036l1.554 1.554 2.073-1.554 1.554.518s1.036.518 1.036 1.554-1.036 1.554 0 2.072 1.036.518 0 2.073c-1.036 1.554-1.036 2.59-2.59 3.108-1.555.518-2.59 1.036-3.627.518-1.036-.518-1.554 0-2.59 1.554-1.036 1.554 0 .518-2.072 1.036s-3.626 1.036-4.144 1.554c-.519.518-2.073.518-1.037 2.072 1.037 1.554 0 2.59 1.037 3.627 1.036 1.036 2.072 2.072 0 2.59-2.073.518-3.627 1.036-4.145.518-.518-.518.518.518-.518 1.554s-1.554 2.59-1.554 2.59.518 1.554 0 2.072-2.072 2.59-2.59 3.109c-.518.518-1.036 2.59-1.036 2.59h9.843c1.554 0 2.072 1.036 3.626 1.554 1.554.518.518 1.036 1.554 2.072s2.59 1.554.518 2.072-3.108 1.554-3.108 1.554 0 .518 1.036 1.036 2.072.518 2.59 1.036l1.036 1.037-1.036 2.072"/>
            <path d="M159.816 166.55c-1.036 1.554-.518 1.554-.518 3.108 0 1.555 1.036 4.663 0 5.699-1.036 1.036-.518 3.108-1.555 3.626-1.036.518-1.036 1.036-2.59.518-1.554-.518-3.626 0-3.626 0s-2.59 2.59-3.626 3.108c-1.036.518-5.18.518-5.18.518s1.035 1.037 0 2.073c-1.037 1.036-1.037 3.108-1.037 3.108s.518 1.036-1.036 1.036-2.59-1.554-3.108 0c-.518 1.554-1.554 1.036-1.554 1.036l-.518 1.036"/>
        </g>
    </g>
</svg>
