<svg xmlns="http://www.w3.org/2000/svg" width="275" height="275" viewBox="0 0 275 275">
    <g fill="none" fill-rule="evenodd">
        <path fill="#1F6CC6" d="M55.252 1.766l2.019-1.01s-.505 1.515 0 3.028c.504 1.514 0 3.028 0 4.037 0 1.01-1.01 3.532-2.523 4.541-1.514 1.01-.505 2.523-.505 3.532 0 1.01-.504 4.037-1.514 6.056-1.009 2.018-1.009 1.513-1.513 4.036-.505 2.523 2.018.505 2.523 3.028.504 2.523-1.514 2.523-2.019 5.046-.504 2.523 2.019.504 3.028 0 1.009-.505.504 3.027 0 4.54-.505 1.515 0 0 1.009 2.524 1.01 2.523 0 0-1.01.504-1.008.505 1.01 4.037 1.01 4.037s.504-1.514 1.01-2.018c.504-.505 1.513-2.019 2.522-1.01a8.712 8.712 0 0 1 1.514 2.019s0-2.018-.505-4.037c-.504-2.018.505-1.009 1.01-2.523.504-1.513 3.027 1.01 2.522 0-.504-1.009-1.513-1.513 0-3.027 1.514-1.514 1.01-.505 2.523-2.523 1.514-2.018 0 0 2.019 0 2.018 0 1.009 1.009.504 2.523-.504 1.514 2.018 1.514 3.028 1.514 1.009 0-.505-1.514-.505-3.028s1.514-2.018 2.523 0c1.01 2.018-.505 1.01 0 3.532.505 2.523 0 0 .505 2.019.504 2.018 0 0 1.009-1.01 1.009-1.009 1.009-1.009 2.523-1.513 1.513-.505 2.018 1.513 2.018 1.513l1.01 3.532 1.513 3.028s2.018-1.01 1.514-1.514c-.505-.504-.505-4.036-.505-4.036s0-2.019 1.01-3.028c1.009-1.01 4.036 0 5.045 1.01 1.01 1.008 3.532 2.522 3.532 2.522s3.028 0 3.532-1.514c.505-1.513 2.019-2.018 2.019-2.018s1.514 0 2.523-1.514c1.009-1.514 2.018-1.009 4.036-2.018 2.019-1.01 1.01-1.01 2.019-2.018 1.009-1.01 0-2.019-2.019-2.019-2.018 0-5.045 1.514-5.045 1.514l-7.57-2.018s-.504-1.01 1.01-2.019c1.514-1.009 2.018 0 3.027 0 1.01 0 1.514 0 3.533-.504 2.018-.505-1.514-2.019-1.514-2.019s-3.028 0-4.541-1.009c-1.514-1.009 1.513-1.009 3.027-1.514 1.514-.504 2.018.505 4.037-.504 2.018-1.01 0 0 .504-1.01.505-1.009 0 0-1.009-2.018s1.514 0 3.028-1.009c1.513-1.01-.505-1.514-.505-1.514l1.01-3.027s2.018.504 4.036 1.514c2.018 1.009.505-1.01.505-1.01s-1.514-2.018-1.514-3.532c0-1.513 1.009.505 3.532.505s-1.514-2.523-1.514-2.523l1.514-2.523s1.514-2.018 2.018-2.523c.505-.505 2.019.505 2.019.505l89.312 50.458s.504 5.046 0 7.065c-.505 2.018-2.019 1.009-2.019 2.523 0 1.513 1.514 1.513 2.523 1.513 1.01 0 1.01 2.523 3.532 4.542 2.523 2.018 7.569 5.045 8.074 5.55.504.505 25.734 19.174 25.734 19.174s1.513 1.01 1.513 1.514v2.523c0 .505-1.009 1.514-1.009 2.523 0 1.01-1.009 3.027-1.514 4.037-.504 1.009-.504 2.523-.504 4.54 0 2.02-2.523 2.524-2.523 2.524v3.027c0 1.01-1.01 3.533-1.514 4.542-.505 1.009-1.514 2.523-2.523 4.541-1.009 2.018-1.514 2.523-1.514 5.046s2.019 3.532 2.019 6.055c0 2.523 1.009 3.532 3.532 5.046 2.523 1.514 3.532 2.018 5.046 4.036 1.513 2.019 2.523 4.037 2.523 4.037s2.018 1.514 3.532 2.523c1.514 1.01 3.027 4.037 3.027 5.046 0 1.01-1.009 2.018-2.018 2.523-1.01.504-1.01 1.514-3.028 3.027-2.018 1.514 0 2.019-.504 3.533-.505 1.513-1.01 4.54-1.01 5.55 0 1.01 2.019 3.028 2.019 3.028l2.018 4.54-2.523 6.56s-1.009 2.019-1.513 4.037c-.505 2.018 1.009 2.018 1.513 5.55.505 3.533.505 2.524 1.514 4.037 1.01 1.514 2.523 4.037 2.523 4.542 0 .504-1.514-1.01-1.514-.505s1.01 3.028 1.01 4.541c0 1.514 2.018 1.01 2.522 1.01.505 0 1.514 4.54 1.514 4.54s-.504 2.02-1.514 3.533c-1.009 1.514 1.514 1.009 1.514 1.009s2.019 4.541 2.019 5.55c0 1.01.504 1.514 1.009 2.523.504 1.01 0 2.523-1.01 4.542-1.009 2.018 1.01 1.513 4.037 2.018 3.028.505 2.523 3.028 2.523 3.028s2.523.504 3.532 1.513c1.01 1.01 3.028 1.01 3.532 2.019.505 1.009 4.037 2.018 4.542 3.027.504 1.01 0 2.523-1.514 3.532-1.514 1.01-5.046 4.542-7.064 6.055-2.019 1.514-5.046 2.523-7.064 4.037-2.019 1.514-5.046 1.01-7.57 1.01-2.522 0-2.522 2.522-4.036 4.036-1.514 1.514-3.028 1.514-3.532 1.01-.505-.505-4.037 0-7.064.504-3.028.504-2.523 2.523-5.55 2.018-3.028-.505-2.02 1.514-6.056 3.028-4.037 1.513-4.541-.505-6.055-2.523-1.514-2.019-4.037-.505-6.055 0-2.018.504-4.541 3.532-4.541 4.54 0 1.01-1.01 2.524-3.028 4.038-2.018 1.513-4.036 1.009-5.046 2.018-1.009 1.01-2.523 1.01-3.532 1.01s-3.027-1.01-5.55-2.02c-2.523-1.008-3.028-1.513-4.037-1.513s-4.541-.505-5.55 1.514c-1.01 2.018-3.532 3.027-6.055 2.523-2.523-.505-5.046-1.01-6.56-1.01-1.514 0-2.523-.504-2.523-3.027s-2.523-1.01-4.037-2.018c-1.513-1.01-1.513 0-4.036-2.523-2.523-2.523-1.514 1.513-3.532 2.523-2.019 1.009-4.542 2.018-4.542 2.018h-14.633s.505-1.01 0-3.028c-.504-2.018-3.027-2.522-4.541-3.027-1.514-.505-1.01-3.028-3.028-5.046-2.018-2.018-1.513-3.027-1.513-4.037 0-1.009 1.009-2.523 1.513-4.54.505-2.02-.504-3.533-1.009-6.056-.504-2.523-1.514-3.532-1.514-7.064s-.504-6.055-.504-6.055-3.028-4.037-4.541-7.569c-1.514-3.532-7.065-6.56-7.57-7.569-.504-1.009-3.027.505-3.531 1.514-.505 1.01 1.009 3.027.504 4.037-.504 1.009-4.541-2.523-4.541-2.523l-4.037-1.01c-2.018-.504-4.541 1.514-4.541 1.514s-.505-2.018-2.523-2.523c-2.018-.504-4.037-1.009-5.046-1.513-1.009-.505-1.514-1.01-4.036-2.019-2.523-1.009-1.01.505-3.028-1.009-2.018-1.514-4.037-1.514-6.56-1.514-2.523 0-1.513-1.513-3.532-3.532-2.018-2.018-6.055-2.018-8.578-1.514-2.523.505 0 0-4.541-2.018s.505-2.018.505-2.018-3.028-1.01-4.037-1.01c-1.01 0-3.532-.504-5.046-1.513-1.514-1.01-1.514-3.532-3.028-4.037-1.513-.504-2.522-2.523-4.54-2.523h-3.028s-1.01-2.018-.505-4.037c.505-2.018-1.01-2.018-3.027-3.027-2.019-1.01-2.019-4.541-2.019-4.541s-1.009-2.019-2.523-4.542c-1.513-2.523-2.523-5.55-3.532-7.064-1.009-1.514-3.027-5.55-3.027-5.55v-4.542s-2.019-2.018-2.019-4.036c0-2.019.505-1.514 1.514-4.037 1.01-2.523-1.514-1.01-3.532-3.027-2.018-2.019 0-2.019-2.018-3.028-2.019-1.01-2.019-2.523-4.037-5.55-2.018-3.028-5.55-.505-5.55-.505s-4.542-3.028-6.056-5.046c-1.513-2.018-.504-2.523 0-4.037.505-1.513 1.01-3.027 2.019-3.027 1.009 0 2.523-3.028 3.027-4.541.505-1.514-1.513-4.037-2.018-5.55-.505-1.515-3.028-4.542-3.028-5.551 0-1.01 1.01-3.028 2.019-5.046 1.009-2.019-.505-2.523-.505-4.542 0-2.018-3.027-1.513-4.541-3.532-1.514-2.018 0-6.055 0-6.055l2.018-6.055s2.019-.504 4.037-1.513c2.018-1.01 4.541-3.028 4.541-3.028l3.028-4.541c1.009-1.514 2.018-3.028 2.523-5.046.504-2.019 2.523-4.037 2.523-4.037l2.018-4.037 3.532-2.018 1.514-1.514-.505-1.009 2.019-1.009c1.009-.505 2.018-2.018 2.018-2.018l.505-3.532s-.505-1.01.504-2.019c1.01-1.009-2.018-2.018-3.532-1.514-1.514.505-2.018-.504-2.018-.504s-2.523-1.01-3.532-3.532c-1.01-2.523.504-3.532.504-3.532l-2.018.504 1.514-3.532 2.522-3.532 2.523-1.514 2.523 1.01 1.514-1.514c.505-.505 1.514-3.028 1.514-3.028l-.505-3.027s-.504-1.514-1.009-2.523c-.504-1.01 0-2.019 0-2.019v-5.046c0-2.523-.504-2.018-1.01-4.54-.504-2.524-1.513-2.02-3.027-2.524-1.513-.504-2.523-3.027-3.532-5.55C22.454 3.28 20.94 2.27 20.94 2.27s4.542 0 6.055-.505L31.537.252h22.706l1.01 1.514zM82.5 25.482l1.514 1.513 3.532 1.514s1.009 1.514 3.027 1.514c2.019 0 0-2.018-.504-2.523-.505-.505-.505-2.018-2.019-2.018-1.513 0-2.018-.505-2.522-1.514-.505-1.01-2.019-.505-2.523 0l-.505 1.514zm174.083 75.183c0 1.514 0 2.018.504 4.037.505 2.018 0 1.514-.504 2.523-.505 1.009-.505 3.027-.505 3.027v2.523l2.523-2.018s1.514-1.01 1.01-4.037c-.505-3.027-.505-3.027 0-5.046.504-2.018 1.008-2.018-1.01-2.018s-2.018 1.01-2.018 1.01zm-13.624 24.725c-1.514 1.514 0 2.523 0 4.541 0 2.019.504 2.523 2.018 4.541 1.514 2.019 0-1.513 2.018-.504 2.019 1.01 1.01 1.01 2.523 3.532 1.514 2.523 3.028-1.01 3.028-1.01l-2.018-5.55s-1.01-1.513-2.523-4.036c-1.514-2.523-.505-2.019-.505-4.542 0-1.513-3.028 1.514-4.541 3.028zm17.66 45.413c-.252.303-.504.605-.757.858-2.523 2.825-3.784 3.683-3.784 3.683l-1.514 2.523s.505 4.541 2.019 1.514c1.513-3.028 1.513-2.019 2.523-3.532 1.009-1.514 1.513-5.046 1.513-5.046zM59.794 32.546c0 2.018.504 4.037 2.018 2.018 1.514-2.018-2.018-2.018-2.018-2.018zM87.04 20.94c-1.009-.504 1.01 2.523 1.514 1.514.505-1.009-.505-1.009-1.514-1.514z"/>
        <g stroke="#FFF" stroke-linejoin="round">
            <path d="M263.748 232.575c0 1.509.504 2.012-1.515 2.515-2.02.503-1.515 0-3.535 1.51-2.02 1.509-3.03 2.515-3.03 2.515s1.515 3.019.505 4.025c-1.01 1.006-3.535-1.006-3.535-1.006l-1.515-3.522s-2.525-1.006-4.04 0c-1.514 1.006-.504 0-1.514 1.006s-2.02-.503-2.525-.503c-.505 0-4.04 1.51-4.04 1.51s-1.515 1.509-3.03 2.012c-1.515.503-3.535 0-3.535 0l-3.03-.503-4.544 2.012s-3.03.503-4.545 2.515c-1.515 2.013-.505 2.516-3.03 3.02-2.525.502-4.04 0-4.04 0s1.515 2.012 1.515 4.527c0 2.516.505 5.031.505 5.031l.505 1.51M245.569 185.786c-.505-.503-2.525-.503-2.525-.503l-3.535 1.006-5.555 1.006s-2.02-2.515-3.03-.503c-1.01 2.012-1.514 3.522-2.524 3.522s-2.525-2.013-2.525-2.013.505-2.515-2.02-3.521c-2.525-1.007-2.02-2.013-5.05-3.02-3.03-1.005-2.525-.502-5.05-2.012-2.524-1.509-4.544-2.515-5.05-2.515-.504 0-3.03 3.019-3.03 3.019s-5.049 6.037-6.059 7.546c-1.01 1.51-3.534 1.51-3.03 3.522.505 2.012-.504 5.534-.504 5.534s0 2.516.504 5.031c.505 2.516 1.01 3.522 1.01 3.522l-1.514 2.515-2.02 2.013s.505 3.522-1.01 5.534c-1.515 2.012-.505 2.515-2.02 5.031-1.515 2.516-4.04 4.025-5.05 6.037-1.01 2.013-5.05 8.05 7.07 10.565l12.119 2.516s4.545 2.516 5.05 4.528c.505 2.012 3.03 5.534 3.03 5.534M113.771 215.972c-1.01-1.51-1.515 0-2.524-2.515-1.01-2.516-1.515-3.522-2.02-4.025-.505-.503-1.01-3.019-1.01-3.019l-1.01-2.515s1.01-6.038 2.525-4.528c1.515 1.509 2.524.503 4.04 0 1.514-.504 2.524-.504 4.04-.504 1.514 0 5.554 0 6.564-.503 1.01-.503 3.03-.503 3.535-2.012.505-1.51 3.03-1.006 3.03-3.019 0-2.012-2.02-3.018-.506-4.528 1.515-1.509.505-2.515 2.02-3.521 1.515-1.007 2.02-2.013 3.535-3.522 1.515-1.51 3.535 0 2.525-2.516-1.01-2.515-3.03-3.018-3.03-3.018s-1.515-1.51-5.555-1.51-4.04-.503-6.564-1.006c-2.525-.503-1.01-.503-5.05-.503h-10.1l.506-3.019 2.525-3.521s-4.04-2.013-4.04-4.025c0-2.013-3.03-3.019-3.535-4.025-.505-1.006-3.03-2.516-3.03-4.025 0-1.51-1.01-2.012-1.01-2.515 0-.503-2.525-1.51-2.525-1.51h-6.06s-1.01-3.521-4.039-2.012c-3.03 1.51-2.525 1.006-4.545 2.012-2.02 1.007-1.515 2.013-3.535 3.522-2.02 1.51-2.524 0-4.544.503-2.02.503.505.503-3.535 2.013-4.04 1.509-2.02 1.509-3.03 3.521-1.01 2.013-1.01 5.031-2.525 5.534-1.515.504-2.02-.503-3.03 2.516-1.01 3.019-3.03 3.019-.505 4.528 2.525 1.51 7.07 1.51 10.1 5.031 3.03 3.522 7.574 6.54 8.08 9.559.504 3.019-1.516 4.025-2.525 2.012-1.01-2.012-4.04-3.018-3.535-4.527.505-1.51 0-3.02-2.02-1.007s-1.01-1.509-2.02 2.013c-1.01 3.521-1.01 4.025-1.515 6.037-.505 2.012-1.01 4.025-3.535 4.528-2.525.503-5.05.503-3.03 2.515 2.02 2.013 2.02 1.51 3.03 3.02 1.01 1.508-2.02 4.527-2.02 4.527"/>
            <path d="M191.94 218.085c-1.918-.1-2.423-.604-3.938.906-1.515 1.509 0 .503-2.525 2.515-2.525 2.013-4.545 4.528-4.545 4.528l-4.544 2.013s-1.01-2.013-.505-3.019c.505-1.006 0-3.522 0-4.528 0-1.006 0-4.025-1.01-2.516-1.01 1.51-3.03 1.51-3.03 3.02 0 1.508.505 2.012-2.02 1.508-2.525-.503-4.545 0-5.05-.503-.505-.503-1.01 0-2.524 1.007-1.515 1.006-1.01 2.515-3.535 1.509-2.525-1.006-5.555-3.019-3.03-3.522 2.525-.503 3.535-1.51 3.535-3.019 0-1.509-2.525-2.012 0-3.018 2.525-1.006 1.01-3.019 1.01-4.528 0-1.51.505-3.019-2.525 0s0 2.012-3.03 3.019c-3.03 1.006-3.03.503-5.555 3.018-2.525 2.516-1.01 1.51-3.535 3.019-2.524 1.51-3.534 3.522-3.534 3.522s-2.02-1.51-1.515.503c.505 2.012 1.515 3.521 1.515 3.521s1.01 2.013 0 4.025c-1.01 2.013-1.515 2.516-2.02 3.019-.505.503-3.03-.503-3.03 1.51 0 2.012.505 2.012-1.515 2.515-2.02.503-1.515.503-2.525 2.012-1.01 1.51-.505 1.006-2.02 2.013-1.515 1.006-4.04.503-4.04.503M242.034 141.01c-1.515 1.509-1.515 3.018-1.515 3.018s-.505 0 0 2.515c.505 2.516 1.515 2.013.505 4.025-1.01 2.013 1.515 2.516 1.515 2.516s.505-1.51 3.03-2.013c2.524-.503 3.03 1.007 3.03 1.007l1.514 5.03M232.44 125.916c-1.516 0-3.03.503-3.03.503s-1.01 3.019-3.03 1.51c-2.02-1.51-5.05-2.013-5.05-2.013s0-1.006-2.02-1.51c-2.02-.502-5.05-2.515-6.564-1.508-1.515 1.006-4.545 1.509-4.545 1.509s1.01 2.012 2.525 3.522c1.515 1.509 0 3.018 2.02 4.024 2.02 1.007 2.524 3.019 2.524 3.019s-.505 4.528-1.515 6.037c-1.01 1.51 1.515 2.013 3.03 3.019 1.515 1.006 3.535 1.51 4.04.503.505-1.006 0 2.516 0 2.516s-2.02 3.521 2.02 4.024c4.04.504 4.545 0 3.535 2.013-1.01 2.012-1.01 1.51-2.525 3.522-1.515 2.012-1.01-.504-1.515 2.012-.505 2.516-.505 3.019 0 4.528.505 1.51 1.515 2.515 0 3.019-1.515.503-5.05.503-5.05.503s-2.525-.503-3.535 0c-1.01.503-3.534 1.509-3.534 1.509s.505-.503 0 2.516c-.505 3.018-1.515 4.527-1.515 4.527v2.013"/>
            <path d="M153.563 213.356c.606-1.409 2.626-.906.606-3.421-2.02-2.516-1.515-1.006-3.535-3.019-2.02-2.012-3.03-3.522-3.03-3.522l-1.515-1.006s.505-1.006 0-3.018c-.505-2.013-4.04-4.528-.505-4.025 3.535.503 3.535 0 5.555.503 2.02.503 1.515-2.013 2.02.503.505 2.515 1.515 3.522 1.515 3.522s1.01-5.031 2.02-6.038c1.01-1.006.505-2.515 2.525-3.018 2.02-.503 2.525-2.516 2.525-2.516s1.514-3.018 3.03-4.025c1.514-1.006 2.524-1.006 4.04-1.509 1.514-.503 2.524-1.006 2.524-2.012 0-1.007-1.515-2.516 1.01-3.019 2.525-.503 2.02-1.51 4.04-1.006 2.02.503.505 1.006 4.04.503 3.534-.503 2.02-2.013 3.534-4.025 1.515-2.012 2.525-3.019 2.525-3.019s0-3.018-1.515-2.012c-1.515 1.006-2.525 1.006-2.525-.503 0-1.51-2.525-2.516-4.544-2.516-2.02 0-2.525-1.006-2.525-2.012s0-4.025-2.02-3.019c-2.02 1.007-4.545 0-4.545-1.509 0-1.51 0-2.516-2.02-2.516s-4.544-.503-8.584-1.509c-4.04-1.006-5.05-1.006-6.06-1.51-1.01-.502-1.01-1.508-2.525-2.012-1.515-.503-2.02-2.012-4.04-.503-2.02 1.51-3.03 1.51-5.554 0-2.525-1.509-4.545-1.509-6.565 0-2.02 1.51-1.515 1.51-2.525 3.522-1.01 2.012 0 1.51-3.03 3.019-3.03 1.509-3.534-.503-5.05 1.006-1.514 1.51-.504 2.515-1.514 2.515s-3.03-2.515-4.545-.503c-1.515 2.013-7.322 5.434-7.322 5.434"/>
            <path d="M223.35 79.63l-2.525 5.031s-2.525 2.516-3.535 4.528c-1.01 2.013-2.02 3.02-3.03 3.522-1.01.503-2.02 2.013-2.02 2.013s.506 1.509 1.515 3.521c1.01 2.013 2.02 3.522 0 3.019-2.02-.503.505-2.012-2.02-.503-2.524 1.51-4.04 2.012-6.06 1.006-2.019-1.006-2.524-.503-3.534.503-1.01 1.006-2.525 2.516-3.535 4.025-1.01 1.51-1.01.503-1.01 3.019 0 2.515-2.02 3.018-2.524 6.037-.505 3.019.505 3.522-1.515 5.031-2.02 1.51-1.515 1.006-3.03 3.019-1.515 2.012-4.04 3.018-4.04 3.018s-3.03-1.006-3.03 1.006c0 2.013.505 5.032.505 6.54 0 1.51-.505 2.013-1.515 4.026l-2.525 5.03-.505 4.026s1.515 3.521 0 5.534c-1.514 2.012-3.03 3.018-3.03 3.018l-1.01 3.522v4.025"/>
            <path d="M208.2 124.407s-.504 3.018-2.02 2.012c-1.514-1.006-2.524 1.006-3.534-1.006-1.01-2.012 1.01-1.006-1.01-2.012-2.02-1.007-2.02-4.528-3.535-2.013-1.515 2.516-2.524 4.528-2.524 4.528s-2.02 3.019-3.03 2.516l-1.01-.503s-.859-.856-1.414-2.415l-.606-1.61M214.26 92.711l-2.02-2.515s-3.534 1.509-6.06 0c-2.524-1.51-6.564-4.025-6.059-7.044.505-3.018 2.02-3.522 1.01-5.534s-2.02-1.006-1.515-3.522c.505-2.515 1.01-3.018-.505-5.03-1.515-2.013-4.544-5.535-4.544-5.535s-1.515-.503-2.525-.503-1.01 1.006-2.02.503.505-3.019-.505-5.031c-1.01-2.012-3.03-.503-4.04-3.522-1.01-3.018 0-4.025.505-4.528.505-.503 1.515-1.006 4.545-2.515 3.03-1.51 4.545-1.006 4.545-1.006M183.457 127.425c-1.515-2.515-2.525-.503-3.535-2.515-1.01-2.012-.505-1.51-2.02-3.522-1.514-2.012-2.524 1.006-4.04-2.012-1.514-3.019-2.524-3.522-4.039-5.534-1.515-2.013-1.01-3.019-1.01-3.019s.505-1.51 1.515-5.031c1.01-3.522-.505-3.522.505-6.54 1.01-3.02 2.525-4.528 1.01-7.547s-1.01-4.025-1.01-4.025l-.505-5.534s-1.01-1.006-4.04 0c-3.03 1.006-3.535 1.51-4.04 2.012-.504.503-1.514 0-4.04 1.51-2.524 1.509-2.524 2.012-3.534 2.515-1.01.503-1.01 3.522-1.01 3.522s0 2.515-2.02 4.528c-2.02 2.012-3.535 3.019-4.545 2.515-1.01-.503-1.515 1.007-1.515 1.007s-4.04 2.012-5.05 3.521c-1.01 1.51-2.524.504-1.514 2.516s1.01 6.54 2.525 8.05c1.515 1.509 3.03 3.018 3.535 4.024.504 1.007-.505 3.522-1.01 5.535-.505 2.012-1.01 3.018-1.515 4.528-.505 1.509-1.515 4.024-.505 5.03 1.01 1.007 1.515 0 1.01 2.516-.505 2.516-1.01 3.522-.505 5.031.505 1.51-.505 4.025-.505 4.528 0 .503-3.03.503-3.03.503l1.01 5.031"/>
            <path d="M190.022 63.531c-1.01 0-2.02 0-2.525 1.006-.505 1.006-1.515 1.51-1.515 1.51s-2.525-.504-2.525.503c0 1.006-1.515-.503-1.515-.503s-1.515-.504-2.02 0c-.505.503-.505 0-1.514 1.509-1.01 1.51-2.525 3.522-2.525 3.522s1.515 2.012.505 4.528c-1.01 2.515.505 3.018-2.525 3.018s-3.03 3.019-4.545 1.006c-1.515-2.012-3.535-3.521-4.545-6.037-1.01-2.515-1.515-3.018-2.524-4.528-1.01-1.51-2.02-.503-3.03-.503-1.01 0-1.515 2.013-2.02 2.516-.505.503-1.515-.503-1.515-.503s-1.01-1.007 0-3.02c1.01-2.012 0-3.018 0-3.018s-.505 3.522-2.02 3.522c-1.515 0-1.01 1.51-1.515 2.012-.505.504-2.02 0-2.02 0s1.01-3.018-.505-3.018c-1.515 0-1.515-1.006-3.03 0-1.514 1.006-2.524 3.018-4.04 3.018-1.514 0-1.514-.503-3.03 1.007-1.514 1.509.506.503-1.514 1.509-2.02 1.006-3.535 1.51-3.535 1.51s1.01 4.024 2.02 4.024 2.02.503 1.01 2.013c-1.01 1.509-3.03 2.515-3.03 4.527 0 2.013.505 2.516 2.02 3.522 1.515 1.006 1.01 2.516 2.525 3.019 1.515.503 1.515 0 2.02 2.012.505 2.013.505 1.51 2.02 2.013 1.515.503 1.515 1.509 2.02 2.012.504.503 2.02 1.51 2.02 1.51"/>
            <path d="M144.07 18.252c-.505 1.006 0 4.528-.505 5.534l-.505 1.006s-.505 4.025.505 4.528c1.01.503 2.524-1.006 2.02 1.51-.505 2.515-.505 4.024-.505 4.024l-2.02 2.516s-1.01 2.515-1.01 5.534c0 3.018 0 3.521-1.01 5.03-1.01 1.51-2.02 4.026-3.03 2.516-1.01-1.509-3.535-2.515-3.535-2.515v18.112s.505.503-1.515 1.509c-2.02 1.006-2.02 2.515-2.02 2.515l2.02 2.516 1.515 1.51M16.312 141.512c1.01-1.509-.505.504 1.01-1.509 1.515-2.012 1.515-1.51 2.525-3.019 1.01-1.509.505-2.515.505-2.515s-1.01-.503-2.02-2.516c-1.01-2.012-1.515-2.515-2.02-3.521-.505-1.007-1.515-2.013-1.515-4.528 0-2.516.505-4.528-.505-6.54-1.01-2.013-1.01-3.02-1.515-4.025-.505-1.007-4.544-4.025-1.01-3.522 3.535.503 4.04 1.006 6.06-.503 2.02-1.51 2.525-2.516 2.525-2.516l8.584-.503 3.535 2.012s1.01-2.515 2.02-.503c1.01 2.013-2.525-.503 1.01 2.013 3.535 2.515 2.525 2.515 2.02 4.025-.505 1.509-1.515.503-.505 1.509 1.01 1.006 2.525.503 2.525 2.515 0 2.013 1.01 3.02 1.01 3.02s1.01 0 2.525.502c1.514.503 1.01 0 4.544.503 3.535.503 5.555 2.013 6.06.503.505-1.509 2.02-3.018 3.535-2.515 1.515.503 3.03.503 4.04 1.006 1.01.503 1.01-1.006 2.02 2.013 1.01 3.018.504 4.024 2.02 5.534 1.514 1.509 2.524 3.521 5.049 4.528 2.525 1.006 4.545 3.521 7.07 4.024 2.524.504 2.524-.503 1.514 2.013-1.01 2.515-3.534 3.019-3.03 6.037.506 3.019.506 5.031.506 5.031s0 3.522-2.02 4.528M98.37 151.323c2.272-1.76 1.262-2.264 1.262-4.276v-4.025s0-2.516 3.03-3.019c3.03-.503 2.02-1.006 3.535-2.515l1.515-1.51c1.515-1.51 4.544 0 4.544-3.018v-5.535s.505-3.018 1.515-5.03c1.01-2.013 1.515 1.006 1.01-2.013-.505-3.019 0-1.006-.505-3.019-.505-2.012 1.515-3.521 2.02-4.024.505-.504 2.02-.504 1.01-2.013-1.01-1.51 0-2.012-3.03-3.522-3.03-1.509-4.04-1.006-4.04-3.018 0-2.013.506-4.025 0-5.534-.504-1.51-.504-1.51 0-3.522.506-2.013.506 0 .506-3.522s2.02-4.025 2.02-5.534c0-1.51 1.01-1.006 2.02-3.522 1.01-2.515 1.01-3.018 2.524-3.522 1.515-.503 2.02-1.006 2.02-2.012s-2.525-1.006.505-2.012c3.03-1.007 4.04-1.007 5.05-1.51 1.01-.503 1.515-2.012 2.525-2.012h2.524l1.01-2.013"/>
            <path d="M37.52 113.842h2.526l1.01-2.516v-5.031l.505-4.528s-.505-2.012.505-2.515c1.01-.504 1.515-.504 2.524-1.51 1.01-1.006-.505-2.012 1.01-3.522 1.515-1.509 2.525-1.006 2.525-2.012s-1.01-4.528-1.01-4.528-1.01-1.51-1.01-3.019c0-1.509-.505-1.509-1.01-2.515-.505-1.006-1.01-3.522-.505-5.031.505-1.51 1.01-2.516-.505-5.031-1.514-2.516-2.524-5.031-2.524-5.031s-1.01-4.025-1.01-5.534c0-1.51-1.515-2.516-1.515-3.522 0-1.006-1.515-3.522-2.525-3.019-1.01.503-.505-2.012-.505-2.012s3.535-4.528 1.01-5.534c-2.525-1.007-5.555 3.018-5.555 3.018"/>
            <path d="M56.205 45.42s.505 2.012 2.02 2.515c1.515.503 1.01 2.515 1.01 2.515s.505 3.522.505 4.025c0 .503-.505 1.51-1.01 1.51s-2.02 1.006-2.02 1.006h-2.525s-.505-1.51-2.02-1.007c-1.515.504 0 1.51-1.515.504-1.515-1.007-2.525 1.509-3.03 1.006-.505-.503-2.525-1.51-2.525-1.51l-2.524 1.51-2.02 4.025M46.105 84.661c1.515-1.006 1.515 1.007 1.515-1.006 0-2.012 2.02-.503 3.03-1.006 1.01-.503 3.535 1.51 2.525-1.006-1.01-2.516-2.02-3.522.505-3.522s2.525 0 4.04.503c1.515.503 2.525-1.006 2.525 2.013 0 3.018.505 4.024 1.01 5.03.504 1.007 3.03.504 3.534-.502.505-1.007-.505-4.025 3.03-1.51 3.535 2.516 2.02 5.534 3.535 2.516 1.515-3.019 0-3.522 1.515-4.528 1.515-1.006 3.03.503 3.03.503s3.03 1.51 3.03.503c0-1.006 0-2.012-.506-2.515-.505-.504.505-2.013.505-2.013l1.01-3.522 3.535-.503h2.525c1.01 0 1.01-2.012 2.02-.503 1.01 1.51 2.525 1.51 3.535 1.006 1.01-.503 4.04 0 7.07-1.006 3.03-1.006 3.534-2.012 5.049-.503 1.515 1.51 3.03 0 4.04 1.006 1.01 1.006-.505 0 2.02 1.51 2.524 1.509 2.524 2.012 4.544 2.012 2.02 0 3.535 1.006 5.05 0M107.712 29.823l4.544.503c.505-1.006 2.525-1.51 3.03-.503.505 1.006 2.02 1.51 3.535 2.012 1.515.504 2.525 1.007 3.535 2.013 1.01 1.006 2.525 2.012 2.525 2.012s1.01 1.006 3.535 1.51c2.524.503 5.554.503 5.554.503h4.04l5.05-.503"/>
            <path d="M58.73 55.984c1.01-.503 3.534.504 4.544 0 1.01-.503 1.01.504 2.02 1.007 1.01.503 3.03-.503 3.03-.503s.505 4.024 1.515 2.515c1.01-1.51 1.515-3.522 3.03-3.019l1.515.504 2.02 4.528 2.02.503 1.514-3.522s2.02-1.006 3.535 0c1.515 1.006 1.515 1.51 3.535 2.515 2.02 1.007 4.04 2.013 4.545 1.007.505-1.007-1.01-2.516 2.525-2.516 3.534 0 1.01 2.013 3.03-1.006 2.02-3.019 2.02-1.51 2.02-4.528 0-3.019-.506-3.522 0-4.528.504-1.006.504-2.012 1.514-2.516 1.01-.503 0 0 2.525-.503s6.565 0 4.04-2.515c-2.525-2.516-6.06-.503-4.545-3.522 1.515-3.019 1.01-4.025 3.03-3.019 2.02 1.007 3.03 4.025 3.535 1.51.505-2.516 1.515-4.025 1.515-4.025l1.514-4.025M257.688 105.289l2.02 2.012 1.01-.503M243.044 127.425c1.515.504 4.04 1.007 6.06-.503"/>
            <path d="M246.579 133.463c0-.503-.505-1.006-.505-2.013 0-1.006.05-3.572.05-3.572"/>
        </g>
    </g>
</svg>
