<svg xmlns="http://www.w3.org/2000/svg" width="284" height="295" viewBox="0 0 284 295">
    <g fill="none" fill-rule="evenodd">
        <path fill="#1F6CC6" d="M229.426.272l-22.263 23.36s-7.603 0-8.689.544c-1.086.543-8.145 0-8.145 0s-4.887-1.63-5.973-2.717c-1.086-1.086-2.715-4.889-4.345-4.346-1.629.544-8.145 3.803-9.774 4.89-1.629 1.086-5.43 1.63-8.688 2.173-3.258.543-6.516-.543-10.318.543-3.8 1.087-4.344.543-7.602 2.717-3.258 2.173-5.43 1.63-6.516 4.346-1.086 2.716 1.629 2.716-1.086 4.89-2.715 2.172-3.258 0-5.43-1.63-2.173-1.63-5.43-1.63-5.974-2.717-.543-1.087 0-4.89-2.172-6.52s-5.973-4.889-5.973-4.889.543 2.173-3.258 4.346c-3.801 2.174-9.774 3.26-9.774 3.26s-4.888-1.63-8.689-3.803-8.145-2.716-12.49-.543c-4.343 2.173-5.973 1.086-7.602 2.716l-3.258 3.26-3.8 6.52s3.257-1.63 3.8.543c.543 2.173 1.086 3.802 0 5.432-1.086 1.63-5.973 6.52-6.516 8.693-.543 2.173-.543 2.716-.543 5.433 0 2.716-.543 1.63 0 4.89.543 3.259 2.172 3.259 3.258 6.518 1.086 3.26-1.629 6.52-2.172 9.236-.543 2.717-3.258 7.063-3.258 9.78 0 2.716-1.086 5.975-1.086 5.975s5.43-1.63 5.43 0 1.086 5.976 3.801 4.346 0-7.062 3.801-3.803c3.802 3.26 2.715 5.977 5.974 6.52 3.258.543 5.43-.543 5.973.543.543 1.087 2.715 5.433 4.344 4.89 1.14-.38 2.552-3.64 3.801-5.596.543-.87 1.14-1.467 1.63-1.467 1.628 0 4.343-2.716 4.343-2.716s-5.973 4.89-4.887 8.692c1.086 3.803 0 3.26 1.63 7.063 1.628 3.803-.544 3.26-.544 6.519 0 3.26 3.258 3.803 0 4.89-3.258 1.086-2.172.543-3.258 3.802-1.086 3.26-1.629 4.347-4.887 6.52-3.258 2.173-2.172 3.803-6.516 4.346l-4.345.543s-3.8 2.173-6.516 6.52c-2.715 4.346-1.086 2.716-4.887 6.519-3.801 3.803-2.172 3.803-4.344 6.52-2.172 2.716-4.344 2.716-5.973 5.432-1.63 2.716 2.715 3.803-1.63 2.716-4.344-1.086-5.43.544-4.887-2.716l.543-3.26c.543-3.26 0-4.89 0-4.89s.543-.542-2.172 1.087l-2.715 1.63c-2.715 1.63-1.629-1.086-4.887.544-3.258 1.63-2.172 1.086-3.258 4.89-1.086 3.802.543 5.432-2.715 7.062s-13.576 1.086-13.033 7.062c.543 5.976-1.629 5.433-.543 9.78l1.086 4.346s-4.887 4.889-5.43 8.149c-.543 3.26-1.086 5.432-1.086 7.606 0 2.173-2.172 3.26-3.801 4.89-1.63 1.629-2.715 3.802-2.172 6.518.543 2.717 1.629 0 .543 2.717-1.086 2.716 1.086 1.086 2.715 2.716 1.629 1.63 1.629 2.717 4.344 3.26 2.715.543 3.258-2.173 2.715.543-.543 2.717-1.086 4.346-2.715 7.606-1.629 3.26-2.715 3.26-5.973 5.433l-3.258 2.173s-.543 3.26-1.63 5.976c-1.085 2.716-1.628 1.63-1.085 4.89.543 3.26-.543 4.346-1.086 7.062-.543 2.717 2.715 0 0 4.346-2.715 4.347-4.345.544-2.715 4.347 1.629 3.803 0 5.976.543 9.779s1.086 5.432 1.086 5.432-1.086 4.89.543 5.976c1.629 1.087 4.344 0 7.059-1.086 2.715-1.087 4.344-4.89 5.973-1.087 1.63 3.803 1.086 6.52 4.887 5.976 3.801-.543 4.344-1.63 7.603-3.803 3.258-2.173 3.258-1.63 4.344-3.803 1.086-2.173 2.172-2.716 3.8-4.346 1.63-1.63 3.259-5.433 4.888-7.062 1.63-1.63 6.516-1.63 6.516-1.63s5.974.543 8.146.543c2.172 0 5.43-5.976 8.688-4.346 3.258 1.63 7.06 1.086 7.06 1.086l45.07.544s-1.086-3.803-1.086-5.976-2.172-3.803-2.172-3.803.543-5.976 2.172-7.063c1.63-1.086.543-6.52 2.172-7.606 1.63-1.086 1.086-2.716 4.344-5.433 3.258-2.716.543 1.63 3.258-2.716s3.258-.543 2.715-4.346c-.543-3.803-1.086-3.803-2.715-6.52-1.629-2.716-1.086-5.432 2.715-5.432 3.802 0-1.629 1.086 3.802 0 5.43-1.087 4.344.543 6.516-3.26 2.172-3.803 2.172-3.26 5.973-2.173 3.801 1.086 2.172-3.803 4.887-3.803 2.715 0 1.086 4.346 3.801 3.26 2.716-1.087 3.802 2.173 4.345-2.174.543-4.346-.543-2.173.543-4.346s2.172-10.322 4.344-5.976c2.172 4.346-1.086 5.976 0 8.15 1.086 2.172 1.086 3.259 3.8 1.086 2.716-2.173 3.802-1.63 5.974-3.26s-1.629-1.086 1.63 1.63c3.257 2.716 3.257 3.26 7.602 0 4.344-3.26 1.629-4.346 3.8-5.976 2.173-1.63 0-1.087 3.259-3.26 3.258-2.173 5.43-2.173 5.43-3.26 0-1.086-3.801-4.346-1.086-3.802 2.715.543 2.172-1.087 4.344-.544 2.172.544 4.344-.543 1.63 2.717-2.716 3.26 3.257 4.346 0 5.433-3.259 1.086-9.232 0-7.06 2.716 2.172 2.716-2.715 3.803 0 4.89 2.715 1.086 4.344 3.26 4.344 3.26s-.543-3.26 1.63-5.434c2.171-2.173 2.171-7.605 3.8-8.149 1.63-.543 4.344 2.717 4.344 2.717s-7.059-.544-3.258 2.173c3.802 2.716 2.715 6.52 5.43 4.346 2.716-2.173 4.345-2.173 4.888-4.89.543-2.716 2.715-4.889 4.887-2.716 2.172 2.173-1.63 1.087 0 3.803 1.629 2.716 2.715 4.89 4.344 3.26 1.63-1.63 1.63 0 3.801-1.087 2.172-1.086 5.43-3.26 5.43-3.26s4.345-2.716 4.888-5.432c.543-2.717 0-2.173 1.086-4.89 1.086-2.716 0-5.976 3.258-8.149 3.258-2.173 5.43-2.716 7.602-5.976 2.172-3.26 6.516-8.15 7.06-11.952.542-3.803-.544-5.976 3.258-7.063 3.8-1.086 2.172-2.716 8.145-4.346 5.973-1.63 7.06-3.26 6.516-6.52-.543-3.259-.543-4.889 1.63-8.149 2.171-3.26 0-1.63 3.8-4.889 3.801-3.26 4.887-2.716 4.887-8.692 0-5.977-.543-7.606 0-9.78.544-2.173-3.258-7.062-2.715-8.692.543-1.63-2.715-8.15-3.8-12.495-1.087-4.347 0-1.63 1.085-5.433 1.086-3.803-1.086-6.52-1.629-8.15-.543-1.63-3.258.544-4.344-5.432-1.086-5.976-.543-7.606-3.801-8.692-3.258-1.087-5.973.543-7.06-2.717-1.085-3.26 1.087-5.976-1.628-8.692-2.716-2.717-6.517-3.803-5.974-6.52.543-2.716 0-5.432-1.086-9.235-1.086-3.803-3.8-.544-1.086-3.803 2.715-3.26 3.258-5.433 3.258-7.606s0-6.52-3.258-5.976c-3.258.543-5.973-2.173-7.602-2.717-1.63-.543-4.887 3.26-4.344-.543.543-3.803 1.086-3.803-2.172-4.346-3.258-.543-1.63-2.717-1.63-5.433 0-2.716-2.171-3.26-1.628-7.606.543-4.346-4.888-4.89-4.888-4.89z"/>
        <g stroke="#FFF" stroke-linejoin="round">
            <path d="M207.52 23.271c1.085 2.714 1.085 4.342 3.798 7.598 2.714 3.256 3.8 4.341 4.342 6.512.542 2.17 4.341 3.798 3.256 7.054-1.085 3.256 2.17 4.342-2.714 4.884l-4.884.543-2.17 3.256v6.512s1.085 7.598 1.627 9.226c.543 1.628 2.714 1.085.543 4.884-2.17 3.798-2.713 5.426-3.256 7.054-.543 1.628 1.628 4.884 2.713 6.512 1.086 1.628 2.171.543 2.714 4.342l.543 3.798s1.628-2.713 3.799-1.628c2.17 1.086 10.854 7.055 13.024 8.14 2.171 1.086 10.854 5.97 10.854 5.97s.543-.543 1.086 3.256c.542 3.798-.543 17.908 0 19.536.542 1.628.542 3.799.542 3.799s-.542 3.798 2.171 3.798c2.714 0 5.427.543 7.598 0 2.17-.542 2.714-1.628 6.512-1.085 3.8.543 7.598 2.17 8.684 3.799 1.085 1.628 5.427 9.768 5.427 9.768"/>
            <path d="M90.296 270.729c.543-.543-2.713-3.799-3.256-5.97-.543-2.17 1.085-2.713-.543-4.884-1.628-2.17-2.713-5.97-3.256-5.97-.543 0-3.256 1.086-1.628-2.712 1.628-3.8 5.427-3.256 3.256-6.512-2.17-3.256-3.799-4.342-4.341-8.683-.543-4.342-2.171-3.799-1.086-7.598 1.086-3.798.543-7.054.543-7.054l-2.171-4.884s0-3.256.543-4.342c.542-1.085-1.628-4.884-1.086-5.426.543-.543 4.885-3.256 5.97-5.97 1.085-2.713-1.085-5.97.543-7.054 1.628-1.086 2.713-2.171 4.341-2.714 1.628-.542 1.628-2.713 1.086-4.341-.543-1.628-1.086-7.055 2.713-5.97 3.8 1.086 4.342 3.8 5.427 0 1.086-3.798 1.086-6.512 2.171-9.225 1.085-2.713.543-1.085 2.714-3.256 2.17-2.17 1.628-3.799 0-5.427-1.629-1.628-3.8-3.256-5.427-4.34-1.629-1.086-4.885-2.714-4.885-2.714s8.683-3.799 10.312-6.512c1.628-2.714.542-1.086 4.884-.543 4.341.543 5.427 2.713 9.226.543 3.799-2.171 2.17.542 5.97-3.799 3.798-4.341 2.17-3.256 5.426-5.427 3.257-2.17 4.885-3.256 5.97-5.97 1.086-2.712-1.628-.542 1.086-2.712 2.713-2.171 5.97-1.628 7.597.542 1.628 2.17 3.257 4.342 7.598 5.427 4.342 1.085 9.226 4.884 11.94 3.799 2.713-1.086 4.341-7.055 8.14-4.884 3.799 2.17 3.799.542 7.055 1.085 3.256.543 3.256 2.713 5.427 0 2.17-2.713 2.714-4.341 3.799-7.055 1.085-2.713-2.17-4.341 1.085-6.512 3.257-2.17.543-1.085 4.342-4.341 3.799-3.256 2.17-4.342 4.342-5.97 2.17-1.628 3.256 2.171 3.798 0 .543-2.17-.542-4.34 2.171-4.884 2.714-.542 4.342-.542 3.256-3.798-1.085-3.256.543-4.342 1.629-4.342 1.085 0 2.17-1.628 2.713-3.256.543-1.628 1.628 2.714 4.342-1.628"/>
            <path d="M95.18 103.586c3.8.543 8.14-4.884 10.854-3.798 2.714 1.085 3.8 3.256 8.14.542 4.343-2.713 3.257-4.884 7.056-4.34 3.799.542 8.683 3.255 8.683 3.255s0 1.628 4.342 2.713c4.341 1.086 8.14-4.34 9.226-.542a190.937 190.937 0 0 0 2.17 7.054s-2.17 3.8-.542 6.512l1.628 2.714-6.512 8.14s-7.056.543-6.513 3.256c.543 2.713 0 4.884 0 4.884"/>
        </g>
    </g>
</svg>
