<svg xmlns="http://www.w3.org/2000/svg" width="281" height="243" viewBox="0 0 281 243">
    <g fill="none" fill-rule="evenodd">
        <path fill="#1F6CC6" d="M1.241 116.438v78.589l1.449 2.893v2.41s1.448.965 1.448 2.893c0 1.929 1.448 2.41 2.414 3.375.965.964 3.862 1.929 3.862 1.929s.965 1.446 3.862 4.821c2.896 3.375 5.31 1.929 5.793 4.34.483 2.41 2.897 4.82 2.897 4.82s3.379.965 4.344 3.376c.966 2.41 2.897 3.375 2.897 3.375s3.862 1.446 4.345 2.41c.482.965 19.793-4.339 21.724-3.374 1.93.964 1.93-.482 4.827.964 2.897 1.446.483.482 4.345 0 3.862-.482 3.38 0 6.759 1.446 3.38 1.447 3.38 1.929 4.827 3.857 1.449 1.93 3.38 3.375 4.345 3.375.966 0 6.276-2.41 8.69-.964 2.414 1.447 4.828.482 4.345 2.41-.483 1.93.483 3.376 1.448 2.412.966-.965.966-1.447 3.862-2.411 2.897-.964 7.242.482 9.173 1.446 1.93.965 4.827 1.929 4.827 1.929s5.793-.964 8.207-2.41c2.414-1.447 2.897-3.858 2.897-3.858s3.379-4.821 4.827-7.232c1.448-2.41 1.448-4.34 2.414-5.304.965-.964 0-1.446 1.931-3.857 1.931-2.41.966-2.41 3.862-4.821 2.897-2.41.483-.964 2.897-2.41 2.413-1.447 2.896-1.447 3.862-.965.965.482.965 1.446 3.862-1.929 2.896-3.375 3.862-4.34 5.793-4.821 1.93-.482 7.724-1.447 7.724-1.447s2.414 2.411 2.897.482c.482-1.928 1.448-11.089 1.93-12.053.483-.964-.482-1.446 1.932-2.41 2.413-.965 3.862-2.894 6.275-3.858 2.414-.964 9.656-3.857 13.518-3.857s6.758-.482 9.655-.482h4.345s.482-7.232-.966-8.679c-1.448-1.446-2.896-7.714-2.896-7.714s15.448-3.857 21.241-5.786c5.793-1.928 10.62-5.303 19.31-7.232 8.69-1.929 30.897-10.125 30.897-10.125s-3.862-3.375-4.828-1.929c-.965 1.447-1.93-1.928-3.379-2.892-1.448-.965-1.448 1.928-1.448-.965s-3.862-4.339-3.862-4.339 3.862-2.893 4.827-3.857c.966-.964 1.449-3.857 2.897-5.786 1.448-1.928.483-6.75.965-7.232.483-.482-2.896-3.857-.965-5.786 1.93-1.928 4.345-2.41 5.31-2.892.966-.483 5.31-1.93 5.31-1.93l2.897-2.892s-1.448-1.446-2.414-1.446c-.965 0-4.827-2.893-4.345-4.822.483-1.928 1.449-4.821 1.449-7.714 0-2.893-1.449-4.822-1.449-6.268 0-1.446 3.38-4.821 2.897-8.196-.483-3.375-3.38-6.268-2.414-7.715.966-1.446-.483-3.857 2.414-3.375 2.897.483 4.828-1.928 6.276-3.857 1.448-1.928-3.38-6.268-2.897-7.714.483-1.447-.965-3.375-1.93-3.857-.966-.482-3.38-1.447-2.415-3.857.966-2.411.966-4.34-.965-5.304-1.931-.964-3.38-3.857-3.38-3.857l-2.896.964s1.448-2.893-2.414-5.303c-3.862-2.411-4.827-3.858-6.758-3.375-1.931.482-5.31-2.411-5.31-2.411s-2.897.482-4.345-.964c-1.449-1.447-4.345-1.929-5.31-1.447-.966.482-2.415-2.41-2.415-2.41s-1.93-1.93-4.344-1.93c-2.414 0-3.38-.481-3.863-2.41-.482-1.928 0-3.375-2.896-4.34-2.897-.963-6.276-1.928-6.759 0-.482 1.93-.965 3.376-2.896 2.894-1.931-.482-7.724-5.304-7.724-5.304l-3.38.965s-1.448-1.447-1.448-2.893c0-1.447.966-5.304.966-5.304L167.31 6.51s2.414 9.643-8.69 16.393c-3.379 1.446-5.792 2.893-3.861 3.857 1.93.964-.483-2.41 1.93.964 2.414 3.375 3.38 5.304 3.38 5.304l1.448 4.821s-.965 2.41-1.448 5.304c-.483 2.893 0 5.785 0 5.785s-.483 1.93.483 4.822c.965 2.893 1.448 5.786 1.448 5.786l-2.897 3.857s-.482 1.446-.965 3.375c-.483 1.928-2.414 2.893-1.931 5.785.483 2.893-.966 4.34-.966 4.34l-1.448 3.375s.483 3.375 2.414 6.268c1.93 2.892 4.345 3.857 6.759 6.267l4.827 4.822c1.931 1.928 1.448 3.857 3.862 4.821 2.414.965 2.414-1.446 5.793 0 3.38 1.447 5.31.483 5.31.483s-1.93-2.893-.965-3.858c.966-.964 1.931-2.892 3.862-2.41l1.931.482.966 1.446v28.447s-5.793 2.892-4.828 0c.966-2.893 1.931-3.858.966-4.34-.966-.482-3.862-.482-4.345.965-.483 1.446-.483 0-3.38 1.928-2.896 1.929-2.896 1.447-5.31 1.447-2.414 0-3.38.964-3.862-1.447-.483-2.41 0-3.375-1.93-5.303-1.932-1.929-1.932-3.858-2.897-4.822-.966-.964.965 0-.966-.964s-4.345-.482-4.828-4.34c-.482-3.856-2.413-5.785-2.413-5.785s-.483-.482-3.38-.964c-2.896-.483-6.276-2.411-6.276-2.411s-1.448-2.41-4.827-1.929c-3.38.483-6.759.965-7.242-2.892-.482-3.858 2.897-1.93-1.93-5.304-4.828-3.375-4.828-3.857-4.828-6.268 0-2.41-3.38-4.34-3.862-2.893-.483 1.447-.966 1.447-1.931 5.304-.966 3.857-2.897 4.821-2.897 4.821s-4.827.482-7.724-.482c-2.896-.964-1.931-1.928-5.793-.964s-2.414-.482-5.793-.965c-3.38-.482-2.897-2.892-5.31-2.41-2.414.482-5.31-.965-5.31-.965s-1.932 1.93-2.897-.482c-.966-2.41-4.828-1.928-4.345-4.821.483-2.893-1.448-3.375 0-5.786 1.448-2.41-1.448-3.375-2.414-2.41-.966.964-2.897.482-7.724 1.928-4.828 1.447-8.207 4.822-9.655 4.34-1.449-.483-3.38-.483-2.897-1.93.483-1.446.483-2.892.966-3.856.482-.965-.483-3.375-1.449-3.375-.965 0-4.344-1.929-4.344-1.929s-1.449-3.857-4.345-2.41c0 0-.966 0 0 2.892.965 2.893 0 2.41.965 4.822.966 2.41 2.414 2.41.483 5.785s-1.931 2.411-1.448 5.304c.482 2.893.482 4.34.482 6.268s-1.448 5.303-.482 7.232c.965 1.928 2.896.482 1.448 5.303-1.448 4.822-3.38 7.715-3.38 8.68 0 .963 2.414 4.338 2.414 4.338l-47.793.483z"/>
        <g stroke="#FFF" stroke-linejoin="round">
            <path d="M1.241 134.092c1.93 1.443 1.447 2.405 3.376 1.443 1.93-.962 2.411-2.405 3.858-.962 1.447 1.443 3.858 1.443 5.305 3.367 1.447 1.923 4.34 3.366 5.305 2.885.965-.48 0-2.404 1.93-1.924 1.928.481 2.41-.48 4.34 1.443 1.929 1.924.482.481 3.375 1.924 2.894 1.443 2.412 5.29 5.305 3.367 2.894-1.924 7.235-5.772 9.164-4.329 1.929 1.443-.965 2.886 1.929 1.443 2.893-1.443 5.787-1.443 5.787-1.443s1.929 0 2.894-.962c.964-.962 4.822-.48 4.822-.48s3.376 0 5.787.961l2.412.962s-.965 2.886 4.34 4.328c5.305 1.443 6.752-2.404 5.305 1.443-1.447 3.848-1.929 5.29-1.929 5.29s-3.858 2.405-1.447 3.367c2.412.962 2.894 2.405 6.752.962 3.858-1.443 6.27-.481 6.27-.481s-1.447 2.405-.965 3.847c.482 1.443-2.411 0-1.447 2.886.965 2.886 1.447 0 .965 2.886-.483 2.885.482 1.442-.483 2.885-.964 1.443-2.41.481-2.41 1.924v3.366c0 1.924 0 2.886-.965 3.848-.965.962-.965 2.886-.965 2.886s-1.447 2.404 0 2.885l1.447.481 1.929.481s-1.447 2.405-.965 3.847c.483 1.443.483 2.886.483 2.886s.964.481.964 1.924-1.929 3.847-1.929 3.847l-1.447 1.924-2.893 2.405s-1.93 1.442-2.412 2.404-1.929-1.443-.482.962c1.447 2.405 1.93 2.886 2.894 3.367.964.48 2.893-1.443 2.893.48 0 1.924.965 2.405.483 4.329-.483 1.924.964.962-.483 1.924-1.446.962-1.929-.481-2.893 2.404-.965 2.886 0 .481-.965 2.886-.964 2.405.965 0-.964 2.405-1.93 2.404-1.447 4.328-1.447 4.328l-1.93 3.367"/>
            <path d="M81.78 174.49s31.348 0 35.688.481c4.34.481 4.34 3.367 4.34 3.367s1.447-.962 3.859 0c2.411.962 1.446 5.29 2.893 6.252 1.447.962 2.412-3.847 3.858-3.847 1.447 0 0 0 2.412-1.924 2.411-1.924 0 0 .482-.481s1.447 2.886 3.376 4.81c1.929 1.923 2.894.961 1.929-1.444-.965-2.404 1.93-1.923 3.858-3.366 1.93-1.443-1.929-1.924-3.858-3.848-1.93-1.923 1.93-1.923 3.376-.961 1.447.961 5.787.961 9.163 1.442 3.376.481.482-3.847 2.411-3.366 1.93.48 5.305-.481 7.234 0 1.93.48 4.823-2.405 7.717-5.29 2.893-2.886 4.34-.481 6.27 0 1.928.48 2.893 0 3.857-1.924.965-1.924.965-1.443.965-2.405 0-.962 5.305-2.404 5.305-2.404s2.411 0 6.27-2.405c3.858-2.405 0 0 .482.48.482.482 2.893 1.925 3.858 2.886.964.962 1.447 4.81 1.447 4.81M134.83 99.465c-2.412 0-4.34.481-4.34.481s-2.412 1.443-3.859.48c-1.447-.961-3.376.482-3.376.482s.483 4.81-1.929 6.252c-2.411 1.443-3.376 2.886-3.376 2.886s.483.961 1.447 3.847c.965 2.886 1.447.48 2.894 1.924 1.447 1.443 3.858.962 1.929 2.885-1.93 1.924-1.93 1.924-2.894 4.329-.964 2.404-.964 4.328-.964 4.328s-3.376.481-2.894 2.886c.482 2.404-.482 3.366.965 4.809 1.446 1.443.964 0 1.446 1.443.483 1.443-.482 3.847-.482 4.81 0 .961-.964.961.482 2.885 1.447 1.923 2.894 2.404 1.447 4.328-1.447 1.924-.482 4.329-1.929 4.329s-3.858 0-5.787.48c-1.93.481-4.34 1.443-4.34 1.443s-1.93 1.443-2.412 3.367-1.447 2.404-3.376 0c-1.929-2.405-3.858-1.924-6.27-1.924-2.41 0-6.751-1.443-6.751-1.443l-4.34 1.924"/>
            <path d="M171 127.36c-.965.48-3.376 2.404-3.376 2.404s.482-.481-2.411 1.924c-2.894 2.404-3.376 4.328-3.376 4.328s.964 2.405-2.894 2.405-4.822-.481-7.716 0c-2.894.48-4.823.961-4.823.961l-2.893-.48-3.376-4.81-3.376-.48-.965 2.885c-1.929 0-2.411 1.443-3.376 2.404-.964.962-1.929 0-2.41-1.923-.483-1.924-3.86-2.405-3.86-2.405l-7.715.481M272.759 62.433c-.965 0-2.894.481-1.93-1.923.965-2.405 0-2.886 0-4.81 0-1.924-2.893-1.443-2.893-1.443l-1.929-1.923-2.411-.481s-.483.48-2.894.962c-2.411.48-2.411 0-4.823 1.923-2.41 1.924-5.305 2.405-5.305 2.405s-2.893 1.924-1.929 3.847c.965 1.924-.964-.961.965 1.924 1.929 2.886 0 1.924 0 3.367v1.443l-1.447 3.847s.482 1.924-.482 4.328l-.965 2.405s5.305 1.924 6.27 2.405c.964.48 1.929 2.885 1.929 2.885s2.894.962.482 2.886c-2.411 1.924-1.929-1.924-2.411 1.924-.482 3.847-1.447 1.923-2.412 4.328-.964 2.405-1.929 1.443-2.41 3.367-.483 1.923.481 1.923-.965 4.328-1.447 2.405-3.376 2.405-2.894 4.81.482 2.404-1.447 2.885-1.447 5.29 0 2.404-1.447 3.366-1.447 3.366s-1.446.48-1.929 1.924l-.964 2.885-3.376.962s-1.93 1.924-1.93 3.848c0 1.923-1.446 3.847-1.446 3.847l-4.34.481s-2.894 1.443-3.376 2.886c-.483 1.442-2.894 1.442-2.894 1.442l-1.447 2.886-3.376 2.405-1.446 2.404h-19.291s1.447 0 2.411 2.886c.965 2.886 5.305.48 3.376 2.886-1.93 2.404-3.858 3.847-3.858 3.847l-2.894 2.886.482 3.847"/>
            <path d="M182.092 4.24c.965.962 2.412.962.482 2.405-1.929 1.443-2.41.481-3.375 2.886-.965 2.404-1.447 3.847-1.447 3.847l-2.412 5.29-2.41 2.886s1.928 2.405 3.857 3.367c1.93.961.483 3.847.483 3.847s-1.447.962.964 2.886c2.411 1.923 4.34 4.328 4.34 4.328s1.447.962 4.823 1.443c3.376.48 4.34 1.924 4.34 1.924s1.447 1.923.483 4.809c-.965 2.885-.482 3.366-1.447 4.81-.964 1.442-.482 0-2.894.961-2.41.962-4.34 2.405-4.34 2.405l-3.858 2.885-2.411 4.329-3.376 2.404-.965 4.81s-2.411 0 .482 1.442c2.894 1.443 5.305 1.924 5.305 1.924l.483-2.404c.482-2.405 2.41-3.848 2.41-3.848l5.306-1.443s2.894 1.924 3.376 3.848c.482 1.923 0 4.328 0 4.328l-.482 6.733s1.929-1.924 4.34-2.885c2.411-.962 2.894.961 4.823 1.923 1.929.962 4.822 1.924 5.787 3.848.964 1.923-2.411 3.847-3.376 5.77-.965 1.925 1.447 2.406-3.376 3.367-4.823.962-9.163-1.442-9.163.481 0 1.924-.482 3.848-.482 3.848l-.483 4.328 4.34-5.29 3.859 3.847s2.894 2.405 4.823 2.886c1.929.481 5.305.962 5.305.962s-1.447 2.405 0 3.847c1.446 1.443 1.446 2.886 3.376 3.848 1.929.962 1.446-1.924 1.929.962.482 2.885-.965 5.77 2.411 6.252 3.376.48 5.305.962 6.27 1.924.964.961 1.929 1.923 2.893 0 .965-1.924 2.894-1.924 3.376.48.482 2.405-.965 4.81 0 6.253.965 1.442.965 3.847.965 3.847M140.617 181.704c1.447.481 1.93.962 4.34 1.924 2.412.962 3.859 1.924 3.859 1.924s1.446.962 3.858.48c2.411-.48 2.893 0 2.893 0s2.894 0 3.376 1.444c.483 1.442 2.412.962 2.412.962s.964.48 1.446.961c.483.481 5.305-.962 5.788.962"/>
        </g>
    </g>
</svg>
