<svg xmlns="http://www.w3.org/2000/svg" width="39" height="32" viewBox="0 0 39 32">
    <g fill="none" fill-rule="nonzero">
        <path stroke="#FFF" d="M8.311 15.86C4.005 15.86.5 19.369.5 23.68s3.505 7.82 7.811 7.82c4.307 0 7.812-3.509 7.812-7.82s-3.505-7.82-7.812-7.82z"/>
        <path fill="#FFF" d="M33.885 20.48c.216 0 .43.012.64.033V18.56c0-1.764-1.434-3.2-3.197-3.2H29.41v-4.48c0-1.059.86-1.92 1.918-1.92h1.279a.64.64 0 1 0 0-1.28h-1.28a3.202 3.202 0 0 0-3.196 3.2v4.48h-2.736L20.425.438A.638.638 0 0 0 19.82 0H4.475a.64.64 0 1 0 0 1.28h3.197v10.271a12.024 12.024 0 0 0-4.085.923.64.64 0 0 0 .498 1.18 10.78 10.78 0 0 1 4.226-.854c5.994 0 10.87 4.88 10.87 10.88 0 .814-.09 1.63-.263 2.422a.642.642 0 0 0 .624.778h7.95c0-3.529 2.868-6.4 6.393-6.4zm-16.722-5.12a12.108 12.108 0 0 0-8.212-3.806V1.28h10.408l4.689 14.08h-6.885z"/>
        <ellipse cx="33.885" cy="26.88" stroke="#FFF" rx="4.615" ry="4.62"/>
    </g>
</svg>
