<svg xmlns="http://www.w3.org/2000/svg" width="165" height="62" viewBox="0 0 165 62">
    <g fill="none" fill-rule="evenodd">
        <path d="M-1-2h166v66H-1z"/>
        <path fill="#635D5D" d="M119.872 42.529c-3.58-1.236-7.998-2.807-12.45-4.277-1.882-.622-3.646-1.628-5.79-1.49-.895.058-1.894-.578-2.753-1.064-1.37-.776-2.768-1.168-4.332-.864-1.376.266-2.675-.001-3.895-.644-2.362-1.243-5.076-1.74-7.208-3.487-.84-.69-1.892-.695-2.85-.197-1.2.624-2.28.52-3.215-.415-.743-.745-1.513-1.198-2.623-1.232-.986-.031-1.964-.368-2.943-.583-.482-.106-1.122-.089-1.413-.392-1.886-1.968-4.507-2.068-6.863-2.849-1.032-.344-1.976-.203-2.912.261-1.03.51-1.962.228-2.813-.4-2.854-2.102-5.964-3.619-9.47-4.263-.165-.03-.344-.044-.488-.12-3.895-2.048-8.247-2.753-12.34-4.211-.785-.28-1.59-.574-2.285-1.019-3.255-2.083-6.719-3.775-10.147-5.538-.891-.458-1.71-1.055-2.577-1.563a942.876 942.876 0 0 0-8.25-4.816 7.848 7.848 0 0 0-1.843-.79c-2.42-.655-4.854-1.26-7.285-1.873C2.342.507 1.349.984 1.05 1.738.68 2.671.316 3.612.056 4.58c-.181.673.013 1.36.608 1.792 2.562 1.853 4.702 4.362 7.954 5.152 1.957 1.294 3.999 2.351 6.305 2.97 1.954.524 3.107 2.606 5.13 3.076 1.82.423 3.502 1.148 5.145 1.987.592.301 1.108.75 1.668 1.117.28.182.613.508.866.464 2.137-.383 3.804 1.233 5.745 1.328 1.1.052 1.368.494 1.79 1.225.231.398.705.7 1.13.934.953.52 1.845.686 2.64-.396.339-.459.948-.317 1.225.131.35.568.618 1.19 1 1.735.503.721 1.249 1.255 2.12 1.125 1.793-.269 3.139.448 4.626 1.35 1.545.938 3.38 1.466 5.149 1.952 1.81.498 3.514 1.077 4.86 2.458.528.541 1.198.49 1.846.194 1.173-.537 2.329-.41 3.357.276 1.853 1.238 3.89 1.865 6.058 2.292 1.12.22 2.167.858 3.21 1.381.156.08.108.566.152.866.044.307-.022.766.154.894.384.281.92.594 1.34.533.812-.117 1.57-.585 2.38-.726 1.003-.173 2.072-.174 2.526 1.03.473 1.253 1.505 1.918 2.657 2.062 4.38.546 8.384 2.28 12.507 3.672 3.17 1.072 6.38 2.061 9.77 2.236 2.216.115 4.195 1.14 6.29 1.722 1.454.403 2.862 1.104 4.336 1.266 5.846.648 11.352 3.014 17.253 3.35.477.028.946.28 1.402.466.094.039.163.254.158.383-.005.148-.072.382-.171.42-.46.175-.933.393-1.41.418-3.677.194-7.353.424-11.031.486-2.34.04-4.69-.104-7.024-.313-2.505-.223-4.98-.523-7.52-.265-1.643.165-3.34-.152-5.01-.275-1.172-.086-2.355-.127-3.506-.334-2.505-.45-4.173.691-5.473 2.666-.596.906-.007 3.131.989 3.56.3.129.638.237.957.234.498-.007.998-.1 1.492-.185 5.628-.965 11.334-1.128 17.008-1.602 1.658-.139 3.338.033 5.003-.046 6.017-.287 12.05-.213 18.054-.832 1.31-.134 2.67.098 3.994.27 1.49.193 2.968.49 4.447.775 3.114.597 6.242 1.04 9.397 1.413 3.176.375 5.978.157 8.334-2.234.461-.468 1.113-.741 1.638-1.153.879-.689 1.02-1.799.436-2.682-1.843-2.784-4.444-4.588-7.607-5.425-2.279-.6-4.584-1.003-6.475-2.543a1.02 1.02 0 0 0-.453-.212c-3.066-.491-5.517-2.377-8.227-3.664-5.154-2.449-10.455-4.531-15.806-6.493-2.512-.924-4.99-1.855-7.258-3.373-1.36-.91-3.016-1.508-4.624-1.892-3.488-.835-6.605-2.378-9.547-4.36-2.366-1.594-4.737-3.175-7.368-4.322-.953-.417-1.896-.664-2.918-.35-1.01.31-1.967.114-2.953-.178-.97-.287-1.738.024-1.624.497.11.457.254 1.022.586 1.288 1.044.835 2.134 1.639 3.293 2.3a409.01 409.01 0 0 0 9.243 5.099c2.804 1.507 5.733 2.803 8.437 4.467 3.026 1.861 6.205 3.306 9.539 4.464.951.331 1.912.647 2.58 1.466.087.107.15.363.09.433-.193.22-.445.537-.683.543-.487.012-.978-.153-2.37-.414"/>
    </g>
</svg>
