<svg xmlns="http://www.w3.org/2000/svg" width="71" height="58" viewBox="0 0 71 58">
    <g fill="#000" fill-rule="nonzero">
        <path d="M67.45 0H27.217a3.55 3.55 0 0 0-3.55 3.551v10.653H3.55A3.55 3.55 0 0 0 0 17.755v28.409a3.55 3.55 0 0 0 3.55 3.55h4.733v7.103a1.183 1.183 0 0 0 2.02.836l7.937-7.938h25.543a3.55 3.55 0 0 0 3.55-3.551V35.51h5.427l7.937 7.94a1.183 1.183 0 0 0 2.02-.838V35.51h4.733A3.55 3.55 0 0 0 71 31.96V3.55A3.55 3.55 0 0 0 67.45 0zM44.967 46.164c0 .653-.53 1.183-1.184 1.183H17.75c-.314 0-.615.125-.837.347l-6.263 6.265v-5.428c0-.654-.53-1.184-1.183-1.184H3.55c-.653 0-1.183-.53-1.183-1.183V17.755c0-.653.53-1.183 1.183-1.183h40.233c.654 0 1.184.53 1.184 1.183v28.409zm23.666-14.205c0 .654-.53 1.184-1.183 1.184h-5.917c-.653 0-1.183.53-1.183 1.184v5.428l-6.263-6.265a1.183 1.183 0 0 0-.837-.347h-5.917V17.755a3.55 3.55 0 0 0-3.55-3.55h-17.75V3.55c0-.654.53-1.184 1.184-1.184H67.45c.653 0 1.183.53 1.183 1.184v28.408z"/>
        <path d="M7 24h2v2H7zM12 24h28v2H12zM7 31h33v2H7zM7 38h33v2H7zM36 7h28v2H36zM50 14h14v2H50zM50 21h14v2H50zM31 7h2v2h-2z"/>
    </g>
</svg>
