<svg xmlns="http://www.w3.org/2000/svg" width="32" height="32" viewBox="0 0 32 32">
    <g fill="none" fill-rule="evenodd">
        <path stroke="#FFF" d="M14.948 17.052H.5v14.396c0 .03.023.052.052.052h14.396V17.052z"/>
        <path fill="#FFF" d="M10.873 27.425a.55.55 0 0 1-.78 0l-2.369-2.369-2.368 2.369a.55.55 0 0 1-.78 0 .551.551 0 0 1 0-.78l2.368-2.37-2.369-2.368a.551.551 0 1 1 .78-.78l2.37 2.369 2.368-2.369a.551.551 0 1 1 .78.78l-2.369 2.369 2.369 2.368a.551.551 0 0 1 0 .78z"/>
        <path stroke="#FFF" d="M14.948 14.948V.5H.552A.051.051 0 0 0 .5.552v14.396h14.448z"/>
        <path fill="#FFF" d="M4.414 7.172h2.758V4.414a.551.551 0 1 1 1.104 0v2.758h2.758a.551.551 0 1 1 0 1.104H8.276v2.758a.551.551 0 1 1-1.104 0V8.276H4.414a.551.551 0 1 1 0-1.104z"/>
        <path stroke="#FFF" d="M17.052 17.052V31.5h14.396a.051.051 0 0 0 .052-.052V17.052H17.052z"/>
        <path fill="#FFF" d="M27.586 27.034h-6.62a.551.551 0 1 1 0-1.103h6.62a.551.551 0 1 1 0 1.103zM27.586 22.62h-6.62a.551.551 0 1 1 0-1.103h6.62a.551.551 0 1 1 0 1.104z"/>
        <path stroke="#FFF" d="M17.052 14.948H31.5V.552A.051.051 0 0 0 31.448.5H17.052v14.448z"/>
        <path fill="#FFF" d="M20.966 7.172h6.62a.551.551 0 1 1 0 1.104h-6.62a.551.551 0 1 1 0-1.104z"/>
    </g>
</svg>
