<svg xmlns="http://www.w3.org/2000/svg" width="30" height="32" viewBox="0 0 30 32">
    <g fill="none" fill-rule="nonzero">
        <path stroke="#FFF" d="M29.483 7.726H.517c-.01 0-.017.007-.017.016v13.42c0 .008.007.015.017.015h6.19v.5c0 5.416 4.416 9.823 9.845 9.823 5.428 0 9.845-4.407 9.845-9.823v-.5h3.086c.01 0 .017-.007.017-.016V7.741c0-.008-.007-.015-.017-.015zm-.017 13.42h-3.07V11.87c0-.009-.007-.016-.017-.016a3.638 3.638 0 0 0-3.638 3.629v3.581l-.466.032c-1.663.113-3.21.811-4.294 1.9l-.147.148H.534V7.758h28.932v13.387zM6.707 5.694h2.62V3.87c0-.721-.586-1.306-1.31-1.306-.724 0-1.31.585-1.31 1.306v1.823zM11.362 5.694h2.62V2.839c0-.722-.586-1.307-1.31-1.307-.724 0-1.31.585-1.31 1.307v2.855zM16.017 5.694h2.62V1.806c0-.72-.585-1.306-1.31-1.306-.723 0-1.31.585-1.31 1.306v3.888zM20.672 5.694h2.621V2.839c0-.722-.586-1.307-1.31-1.307-.724 0-1.31.585-1.31 1.307v2.855z"/>
        <ellipse cx="15" cy="14.452" stroke="#FFF" rx="2.603" ry="2.597"/>
        <path fill="#FFF" d="M4.655 12.387h4.138a.517.517 0 1 0 0-1.032H4.655a.517.517 0 1 0 0 1.032z"/>
    </g>
</svg>
