<svg xmlns="http://www.w3.org/2000/svg" width="28" height="33" viewBox="0 0 28 33">
    <g fill="none" fill-rule="nonzero" stroke="#FFF">
        <path d="M6.72 4.145h14.56c.037 0 .02.017.02-.016V.516c0-.033.017-.016-.02-.016H6.72C6.683.5 6.7.483 6.7.516V4.13c0 .033-.017.016.02.016zM26.792 17.652l-8.112-6.04V6.195c0-.31-.208-.517-.52-.517H9.84c-.312 0-.52.207-.52.517v5.419l-8.112 6.039a.468.468 0 0 0-.208.413v13.419c0 .31.208.516.52.516h24.96c.312 0 .52-.206.52-.516v-13.42a.468.468 0 0 0-.208-.412zm-7.592 6.09c0 .31-.208.516-.52.516h-2.6v2.58c0 .31-.208.517-.52.517h-3.12c-.312 0-.52-.207-.52-.516v-2.58h-2.6c-.312 0-.52-.207-.52-.517v-3.097c0-.31.208-.516.52-.516h2.6v-2.58c0-.31.208-.517.52-.517h3.12c.312 0 .52.207.52.516v2.581h2.6c.312 0 .52.206.52.516v3.097z"/>
    </g>
</svg>
