<svg xmlns="http://www.w3.org/2000/svg" width="96" height="96" viewBox="0 0 96 96">
    <g fill="#FFF" fill-rule="nonzero">
        <path d="M21.684 46.782l12.251-24.656c.262-.528.8-.862 1.387-.862a1.55 1.55 0 0 1 1.387.862l23.972 48.245 11.293-22.727c.26-.528.797-.862 1.384-.862H96C95.177 20.846 73.969 0 48 0S.823 20.846 0 46.782h21.684z"/>
        <path d="M74.316 49.218L62.065 73.874c-.262.528-.8.862-1.387.862a1.55 1.55 0 0 1-1.387-.862L35.32 25.629 24.027 48.356a1.546 1.546 0 0 1-1.385.862H0C.823 75.154 22.031 96 48 96s47.177-20.846 48-46.782H74.316z"/>
    </g>
</svg>
