<?xml version="1.0" standalone="no"?>
<!DOCTYPE svg PUBLIC "-//W3C//DTD SVG 20010904//EN"
 "http://www.w3.org/TR/2001/REC-SVG-20010904/DTD/svg10.dtd">
<svg version="1.0" xmlns="http://www.w3.org/2000/svg"
 width="246.000000pt" height="135.000000pt" viewBox="0 0 246.000000 135.000000"
 preserveAspectRatio="xMidYMid meet">
<metadata>
Created by potrace 1.15, written by Peter Selinger 2001-2017
</metadata>
<g transform="translate(0.000000,135.000000) scale(0.100000,-0.100000)"
fill="#000000" stroke="none">
<path d="M1372 1340 c-87 -35 -165 -128 -197 -235 -10 -33 -24 -74 -32 -92 -7
-17 -13 -38 -13 -46 0 -8 -7 -28 -15 -43 -8 -16 -15 -38 -15 -50 0 -11 -4 -24
-8 -30 -5 -5 -32 -81 -62 -169 -29 -88 -56 -164 -61 -170 -5 -5 -9 -18 -9 -30
0 -11 -7 -33 -15 -49 -8 -15 -15 -36 -16 -45 0 -9 -12 -41 -27 -71 -45 -92
-35 -90 -468 -90 l-372 0 -31 -29 c-27 -25 -31 -36 -31 -79 0 -39 6 -57 24
-79 l24 -28 404 -3 c286 -2 415 0 446 9 23 6 42 14 42 18 0 3 14 12 31 20 60
26 149 128 149 170 0 11 3 22 8 24 4 3 18 38 32 79 14 40 28 75 31 78 4 3 10
24 14 48 4 23 11 42 16 42 5 0 9 10 9 23 1 12 9 40 20 62 11 22 19 47 20 56 0
9 7 30 15 45 8 16 15 36 15 45 0 9 7 30 15 45 8 16 15 36 15 45 0 9 7 30 15
45 8 16 15 39 15 51 0 12 5 25 10 28 6 3 10 14 10 24 0 18 17 59 49 121 14 27
26 36 49 38 28 3 33 -1 51 -39 12 -24 21 -48 21 -55 0 -7 8 -27 17 -46 9 -18
22 -45 30 -60 7 -14 13 -33 13 -41 0 -7 6 -27 14 -43 7 -16 35 -85 61 -154 26
-69 53 -138 60 -155 14 -32 18 -41 92 -238 39 -106 57 -138 97 -183 87 -97 93
-99 303 -99 179 0 182 0 202 24 16 18 21 38 21 77 0 47 -4 58 -31 84 l-32 30
-123 0 c-115 0 -125 1 -148 24 -15 13 -26 27 -26 32 -1 5 -9 27 -20 49 -11 22
-19 48 -20 57 0 9 -4 19 -9 22 -5 3 -12 22 -15 41 -4 19 -11 35 -16 35 -6 0
-10 10 -10 23 0 13 -7 32 -15 43 -8 10 -15 26 -15 34 0 8 -6 27 -14 42 -8 15
-17 40 -21 57 -4 17 -11 33 -16 36 -5 4 -9 14 -9 23 0 9 -6 29 -14 44 -8 15
-17 40 -21 57 -4 17 -11 31 -16 31 -5 0 -9 10 -9 23 0 12 -6 33 -13 47 -7 14
-24 54 -37 90 -12 36 -27 69 -32 75 -4 5 -8 15 -8 23 0 28 -40 99 -78 138 -63
64 -113 84 -213 83 -46 0 -94 -4 -107 -9z"/>
</g>
</svg>
