<?xml version="1.0" standalone="no"?>
<!DOCTYPE svg PUBLIC "-//W3C//DTD SVG 20010904//EN"
 "http://www.w3.org/TR/2001/REC-SVG-20010904/DTD/svg10.dtd">
<svg version="1.0" xmlns="http://www.w3.org/2000/svg"
 width="167.000000pt" height="167.000000pt" viewBox="0 0 167.000000 167.000000"
 preserveAspectRatio="xMidYMid meet">
<metadata>
Created by potrace 1.11, written by Peter Selinger 2001-2013
</metadata>
<g transform="translate(0.000000,167.000000) scale(0.100000,-0.100000)"
fill="#000000" stroke="none">
<path d="M934 1281 c-23 -10 -53 -34 -67 -53 -16 -21 -61 -137 -118 -308 -112
-336 -120 -355 -159 -379 -28 -17 -54 -18 -286 -18 -276 -1 -276 0 -289 -55
-5 -21 -1 -33 19 -53 l26 -25 262 0 c240 1 267 3 308 21 100 44 110 64 263
519 62 186 76 217 99 230 25 14 29 13 52 -9 15 -14 26 -28 26 -33 0 -7 94
-257 196 -520 51 -130 91 -181 156 -199 53 -14 190 -14 216 0 29 16 39 58 21
90 -14 24 -21 26 -107 31 -63 3 -97 10 -110 21 -10 8 -74 161 -142 340 -113
297 -127 327 -165 365 -59 57 -126 69 -201 35z"/>
<path d="M19 1279 c-12 -7 -16 -89 -5 -107 5 -8 42 -12 117 -12 l109 0 0 -284
c0 -250 2 -285 16 -290 28 -11 101 -6 111 7 5 7 9 129 9 290 l-1 277 106 0
c77 0 110 4 118 14 14 16 12 94 -3 104 -14 8 -564 10 -577 1z"/>
<path d="M912 508 c-41 -20 -41 -87 0 -109 12 -7 71 -12 132 -13 108 -1 112
-1 139 26 32 31 30 60 -5 91 -17 14 -39 17 -132 16 -61 0 -121 -5 -134 -11z"/>
</g>
</svg>
