<?xml version="1.0" standalone="no"?>
<!DOCTYPE svg PUBLIC "-//W3C//DTD SVG 20010904//EN"
 "http://www.w3.org/TR/2001/REC-SVG-20010904/DTD/svg10.dtd">
<svg version="1.0" xmlns="http://www.w3.org/2000/svg"
 width="260.000000pt" height="260.000000pt" viewBox="0 0 260.000000 260.000000"
 preserveAspectRatio="xMidYMid meet">
<metadata>
Created by potrace 1.11, written by Peter Selinger 2001-2013
</metadata>
<g transform="translate(0.000000,260.000000) scale(0.100000,-0.100000)"
fill="#000000" stroke="none">
<path d="M1479 1977 c-60 -23 -104 -55 -142 -103 -29 -37 -55 -103 -140 -362
-141 -425 -215 -633 -235 -656 -10 -10 -33 -26 -52 -36 -32 -16 -72 -18 -420
-19 -419 -2 -419 -2 -441 -59 -15 -38 0 -91 34 -116 27 -20 39 -21 420 -21
437 0 441 0 541 69 99 68 113 98 307 681 137 412 148 435 205 435 40 0 64 -18
84 -63 10 -23 95 -243 189 -489 94 -246 177 -460 185 -475 23 -45 92 -109 143
-134 42 -21 65 -24 183 -26 105 -2 142 1 166 13 51 25 67 80 39 133 -20 39
-55 50 -167 49 -54 0 -111 3 -127 7 -30 6 -73 53 -83 90 -3 11 -65 175 -138
365 -72 190 -147 388 -167 440 -58 157 -101 217 -188 262 -49 26 -147 33 -196
15z"/>
</g>
</svg>
