<svg xmlns="http://www.w3.org/2000/svg" width="32" height="31" viewBox="0 0 32 31">
    <path fill="#29A87C" fill-rule="evenodd" d="M16 0C7.133 0 0 7.082 0 15.886c0 7.016 4.6 12.973 10.933 15.091.8.132 1.067-.33 1.067-.794v-2.714c-4.467.993-5.4-2.118-5.4-2.118-.733-1.853-1.8-2.317-1.8-2.317-1.467-.993.133-.993.133-.993 1.6.133 2.467 1.655 2.467 1.655 1.4 2.45 3.733 1.721 4.667 1.324.133-1.06.533-1.721 1-2.118-3.534-.397-7.267-1.787-7.267-7.877 0-1.72.6-3.177 1.667-4.236-.134-.397-.734-1.986.133-4.236 0 0 1.333-.397 4.4 1.655a16.174 16.174 0 0 1 4-.53c1.333 0 2.733.199 4 .53 3.067-2.052 4.4-1.655 4.4-1.655.867 2.184.333 3.773.133 4.236 1 1.125 1.667 2.515 1.667 4.236 0 6.09-3.733 7.413-7.333 7.81.6.464 1.066 1.457 1.066 2.913v4.369c0 .397.267.926 1.134.794C27.4 28.859 32 22.9 32 15.886 32 7.082 24.867 0 16 0z"/>
</svg>
